<?xml version="1.0" standalone="no"?>
<!DOCTYPE svg PUBLIC "-//W3C//DTD SVG 1.1//EN" "http://www.w3.org/Graphics/SVG/1.1/DTD/svg11.dtd" >
<svg xmlns="http://www.w3.org/2000/svg" xmlns:xlink="http://www.w3.org/1999/xlink" version="1.1">
<metadata>
Created by FontForge 20170924 at Mon May 11 09:33:01 2020
 By root
NEVOCLARA (c)MLKWSN STUDIO 2020. All Rights Reserved
</metadata>
<defs>
<font id="NEVOCLARA" horiz-adv-x="903" >
  <font-face 
    font-family="NEVOCLARA"
    font-weight="400"
    font-stretch="normal"
    units-per-em="2048"
    panose-1="2 0 5 0 0 0 0 0 0 0"
    ascent="1638"
    descent="-410"
    x-height="1194"
    cap-height="1433"
    bbox="-93 -348 2055 1747"
    underline-thickness="150"
    underline-position="-292"
    unicode-range="U+0020-F843"
  />
    <missing-glyph />
    <glyph glyph-name="uniF843" unicode="FT" horiz-adv-x="1485" 
d="M1174 0h-239q-9 0 -10 10q0 4 3 7t7 3q29 0 49 20.5t20 49.5v1303h-759v-617h368q29 0 49.5 20.5t20.5 49.5q0 9 10 9t10 -9v-180q0 -9 -10 -9t-10 9q0 29 -20.5 49.5t-49.5 20.5h-368v-646q0 -29 20.5 -49.5t49.5 -20.5q4 0 7 -3t3 -7t-3 -7t-7 -3h-239q-9 0 -10 10
q0 4 3 7t7 3q28 0 47 17.5t23 45.5v1266q-4 28 -23 46t-47 18q-10 0 -10 9t10 10h1366l53 -199q0 -6 -2.5 -8t-7.5 -3q-6 0 -9 7q-10 38 -40 75.5t-77 63t-106 25.5h-149v-1303q0 -29 20.5 -49.5t49.5 -20.5q4 0 7 -3t3 -7t-3 -7t-7 -3z" />
    <glyph glyph-name="space" unicode=" " horiz-adv-x="400" 
 />
    <glyph glyph-name="space" unicode="&#xa0;" horiz-adv-x="400" 
 />
    <glyph glyph-name="exclam" unicode="!" horiz-adv-x="166" 
d="M115 184q-7 0 -13.5 4t-6.5 11l-29 1233h99l-30 -1233q0 -7 -6 -11t-14 -4zM116 0q-21 0 -35.5 14.5t-14.5 35.5q0 20 14.5 35t35.5 15q20 0 35 -15t15 -35q0 -21 -15 -35.5t-35 -14.5z" />
    <glyph glyph-name="quotedbl" unicode="&#x22;" horiz-adv-x="291" 
d="M116 1224q-21 0 -35.5 14.5t-14.5 35.5q0 93 55 151q7 6 13 6q8 0 13.5 -5.5t5.5 -13.5q0 -7 -6 -14q-28 -28 -37 -75q23 0 39.5 -12.5t16.5 -36.5q0 -21 -15 -35.5t-35 -14.5zM241 1224q-20 0 -35 14.5t-15 35.5q0 91 55 151q7 6 13 6q8 0 13.5 -5.5t5.5 -13.5
q0 -7 -6 -14q-27 -28 -37 -75q24 0 40 -12.5t16 -36.5q0 -21 -14.5 -35.5t-35.5 -14.5z" />
    <glyph glyph-name="numbersign" unicode="#" horiz-adv-x="1286" 
d="M657 674q-2 0 -2 2q7 15 19 27l2 1q1 0 2 -2l-1 -1q-12 -10 -18 -24q0 -1 -1 -1v-1q0 -1 -1 -1zM406 118l-4 2q54 22 108 40q170 57 345 93h2q31 7 54 7q9 0 14 -9v1l-2 1q-5 5 -12 5l-7 -1q-10 0 -19 -2q-106 -19 -210 -49q-12 -3 -23 -7q-118 -31 -246 -81zM945 635
h-28q-2 0 -2 1l4 6l10 10q24 24 24 37v2q-10 -22 -29 -39l-15 -16v3q0 2 3 5q20 20 30 33t10 26q0 6 -2 12l-1 5q0 5 3.5 8t3.5 6q-1 4 -8 4q-4 0 -8 -4q-13 -11 -23 -25l-27 -36q-3 -3 -5 -7q-1 0 -1 -0.5t-3 -3.5q0 3 1 4v1q9 24 21 51q19 47 37 95q5 14 7 30
q-17 -57 -41 -113q-16 -36 -30 -73l-1 4l1 2q0 5 4 13q20 46 38 92l6 15q13 31 21 64l1 3q0 4 -3 5t-5 1q-5 0 -16 -30q-40 -101 -46 -113q-2 -8 -9 -12q-11 -6 -21 -14l-22 -15v-1q-2 -1 -3 -1h-2h-2q0 7 3 13.5t3 14.5q-6 -18 -6 -28q-2 2 -2 10l7 24q0 4 -2 5t-3 1l-5 -1
q-15 -7 -26 -20l-30 -37v-1q-1 -2 -6 -2q-2 1 -2 3q0 18 9 41q15 37 31 73l19 42q5 12 16 19l2 1q2 1 4 3t2 5l-1 2q-7 7 -7 18q0 9 -7 9q-4 0 -7 -5.5t-11 -25.5q-3 -12 -17 -12q-34 0 -67 -5l-5 -1q-25 -3 -48 -14q-11 -5 -15 -16v-3q0 -6 7 -6q4 1 6 4q15 13 35 18
q27 6 51 9q16 4 33 4l2 1q2 0 4 -4h-7q-17 0 -72 -11q-28 -4 -43 -19q-5 -5 -10 -5l-1 -1q0 -3 4 -2q4 0 7 3q22 19 69 25q8 0 15 2q20 4 33 4q5 0 5 -2l-2 -8q-22 -58 -71 -98l-3 -1l1 11q0 -5 -5 -12v6q3 0 3 14q0 6 -4 6h-6q-25 0 -40.5 -18.5t-15.5 -19.5
q-14 -19 -29 -19l-5 1q-18 4 -25 21q-4 11 -4 22q0 27 10 60q2 7 2 13l-1 9q-1 9 -9 9q-10 0 -23 -26q-5 -11 -11 -21q-28 -57 -44 -81q-4 -7 -10 -13h-1q-1 -2 -2 -2h-2q-3 0 -4.5 3.5t-1.5 14.5q0 13 10 61q26 137 67 227q14 28 14 41q0 5 -4 7q43 8 88 8q168 0 295 -99.5
t173 -256.5h-3q-13 -5 -26 -7q-62 -13 -125 -19zM663 722q18 3 23 8l3 3l-2 2l-2 -2h-1q-9 -6 -21 -7h-6q-1 0 -1 -2t4 -2h3zM659 729q15 0 25 8l3 3q0 4 -4 4q-8 0 -25 -4q-7 -2 -7 -7q1 -3 2.5 -3.5t5.5 -0.5zM951 716q7 7 7 9t-2 2l-2 -3h-1q-2 -3 -2 -8zM843 710
q3 0 3 5h-8q-5 3 -11.5 7t-11.5 4q-4 0 -7 -3h-3l-1 -2q0 -2 5 -2v1h3q4 2 7 2t18 -9zM840 717q4 0 4 4q0 2 -2 4v1q-6 6 -7 12q0 3 2 6q0 6 -6 6l-13 -1l-13 1q-2 0 -3 -1v0l1 -7q0 -2 -0.5 -4.5t-1.5 -4.5t-1 -3q0 -4 4 -4q3 0 6 1.5t6 1.5q4 0 7 -3q12 -7 13 -7t1.5 -1
t2.5 -1zM750 655q4 19 12 36q13 34 28 66l19 43q5 12 16 19l8 7q0 1 -0.5 2t-1.5 1l-1 -1q-16 -10 -23 -27l-21 -49q-33 -68 -36 -97zM580 707l1 8q1 8 2.5 18t5 21.5t3.5 20.5q-9 -31 -12 -68zM484 679l2 12q30 169 82 281q5 10 6 19q-35 -74 -55.5 -152.5t-34.5 -159.5z
M389 505v3q0 3 2 5q29 39 71 63q5 3 10 4q2 0 4 -2v-1h-3q-14 -4 -24 -13q-32 -21 -55 -52zM901 658h-2l-1 2l1 1q5 6 9 13q5 5 20 25q0 3 3 3h2q1 0 1 -1v-1h-1q-11 -12 -20 -25q-5 -8 -11 -15zM656 48q-134 0 -246 67q54 21 108 40q193 62 354 94h4q14 4 28 4l21 -2
q4 -7 14 -7q10 2 12 13q0 9 -6 15.5t-30 6.5q-22 0 -90 -14q-14 0 -94 -21l-40 -9q-123 -30 -242 -72q-35 -13 -69 -29q-96 67 -152.5 171t-56.5 228q0 117 50.5 216t136.5 166.5t196 91.5q-6 -10 -15 -31l-13 -30q-56 -122 -115 -242q-42 -87 -103 -163q-24 -31 -58 -51
q-8 -4 -14 -4q-4 0 -10.5 2.5t-9 16.5t-2.5 29q0 35 14 80l3 12q19 73 57 139q5 10 12 17q2 2 4 2t4 -2q-7 -2 -12 -10q-43 -70 -66 -161q-10 -30 -12 -60q4 28 12 55q16 64 43 120l2 3q10 22 24 42q1 1 1 1.5t4 4.5q1 0 2.5 -0.5t1.5 -1.5q-1 -2 -1 -4t-1 -3
q-5 -37 -16 -85l-1 -6q0 -12 6 -12q4 0 5 5t1.5 13.5t2.5 16.5q21 70 21 88q0 22 -16 22q-24 0 -56 -63q-45 -93 -58 -195q-2 -12 -2 -23q0 -62 41 -65q17 0 31 9q39 24 66 60q83 104 138 239q1 3 4 5h1q1 0 1.5 -0.5t0.5 -1.5h-1q-3 -2 -4 -5l-5 -14q-106 -230 -202 -287
q-13 -8 -28 -8q-13 0 -24 8q6 -7 13 -9t14 -2q15 0 28 8q43 27 72 68q54 69 92 146l6 11q19 36 34 72q0 5 5 7l1 -1v-3q-1 -8 -4 -15q-4 -15 -9 -55q-2 -12 -2 -25q0 -12 5.5 -24t14.5 -12q5 0 12 5q13 10 22 24q14 23 26.5 47t12.5 26l3 1l1 -1v-2h-1l-15 -28
q-22 -47 -44 -68q-7 -7 -16 -7q-5 0 -11 4q7 -8 14 -8q5 0 10 4q24 17 54 83q3 7 9 14v-19q0 -21 12.5 -40t35.5 -19h7q10 0 15.5 -5t9.5 -5t8 3q12 6 24 22q9 12 11 12q3 0 6 -3.5t8 -3.5q10 0 34 24q2 3 5 5v1l4 2l2 -1l-1 -2q-6 -4 -9 -8t-6 -6q-9 -10 -22 -16
q-3 -2 -6 -2q-5 0 -8 3t-5 3t-8 -6q-11 -17 -26 -27q-5 -3 -9 -3q-6 0 -10.5 5t-11.5 5l-4 -1h-6q-15 0 -27 8q11 -11 32 -11q13 0 18.5 -5t10.5 -5q4 0 8 3q12 8 23 24q10 10 11 10q2 0 5 -3t7 -3q6 0 11 3q13 7 32 27q-1 -7 -3 -12q-5 -10 -5 -26q0 -7 2.5 -16t14.5 -9
q20 4 37 33q1 1 1.5 2.5t2.5 2.5t3 2q1 0 1.5 -0.5t0.5 -1.5v0q-1 -1 -3 -2t-3 -4q-5 -10 -12 -18t-15 -12.5t-22 -4.5q3 -4 7 -4q13 0 23 9q14 13 22 29l2 1q2 -2 2 -4v-1q2 -11 11 -11q10 0 19 9q16 13 31 27l5 3q1 0 2 -0.5t1 -1.5l-2 -1q-12 -9 -23 -20q-6 -5 -13 -11.5
t-18 -6.5l-8 1q4 -5 13 -5q7 1 44 33q1 0 1.5 0.5l1.5 1.5t2 1q0 -3 -1 -4q-10 -31 -17 -62q-2 -5 -2 -10q1 -6 6 -8h6q8 8 13.5 18.5t16.5 10.5l5 -1q15 -4 31 -4l12 1q48 3 94 8.5t87 19.5l12 5l1 -4h-2q-47 -20 -130 -27l-16 -1q-44 -4 -54 -4q-16 0 -32 2l-9 1
q-7 0 -15 -12q-4 -7 -8 -11.5t-13 -4.5q4 -4 7 -4q5 0 16 17q5 12 17 12l5 -1q14 -3 36 -3q109 5 175 24q12 3 24 8q13 -53 13 -111q0 -29 -4 -58q-5 13 -20 13q-9 0 -33 -7.5t-44 -24.5q-10 -7 -13 -20q0 -9 3 -12t5 -3t4 1t2 4v1q0 10 8 16q29 22 64 27l2 1q4 0 6 -5l-5 1
q-4 0 -12 -2q-35 -9 -54 -26q-6 -4 -6 -14q4 10 14 16q25 18 57 22l3 1q2 0 2.5 -1t0.5 -3q0 -15 -9 -27q-30 -44 -76 -73q-28 -18 -61 -26l-6 -1q-14 0 -17 17v15q13 54 46 100q16 21 23 36q0 8 -7 8q-4 0 -6 -4q-15 -15 -23 -27q-21 -31 -52 -51l-3 -1q3 6 8 13.5t8 18.5
l-20 -33q0 -1 -1 -1.5t-2 -0.5v3q1 0 1 1t1 2t1 2l17 29l1 6q0 5 -6 5t-23 -22t-41 -29l-8 -1q-1 0 -4.5 1t-4.5 9q-5 14 -14 14q-4 0 -18 -7q-2 -2 -5 -3l2 6q4 8 4 16q-2 -10 -8 -20l-1 -3v3q-1 3 1 6v1q6 11 6 22q-1 6 -6 6t-9 -6q-7 -9 -18 -16t-48 -44q-7 -7 -16 -8
q-10 0 -16 4q7 23 47 59q4 2 4 9q-31 -26 -51 -60l-1 -4l1 -4q-3 4 -3 8q0 7 17 26q4 9 32 33q4 3 4 6q0 2 -1 3q-2 5 -8 5q-7 -1 -12 -4q-29 -16 -54 -36l-11 -8q0 2 0.5 3t1 1.5l1.5 1.5q20 30 24 38q1 0 1.5 1t0.5 2l-1 2q-16 -26 -35 -51l-3 -5l-1 3q0 2 1 3h1
q28 42 32 48.5t4 7.5q0 2 -1.5 3.5t-7.5 1.5q-5 -3 -9 -8l-26 -35q-26 -36 -49 -74q-1 0 -1 -1q-3 -4 -4 -9q0 -6 2.5 -8t4.5 -2q6 0 15 9l3 4q32 44 73 75q0 1 1 1.5l3 1.5q1 0 2 -1t1 -2h-1q0 -1 -1.5 -1t-1.5 -1h-1v-1q-36 -27 -64 -63l-6 -7q-10 -17 -24 -20q2 -2 5 -2
q2 0 6 2q15 13 15 17q24 32 55 58q1 1 2.5 3t7.5 4q-10 -13 -10 -27q0 -12 12 -18l10 -3q1 0 4 -3q-10 1 -18 5q4 -6 9.5 -7t5.5 -2q0 -2 -3 -4q-13 -12 -26 -27q-7 -7 -7 -13q0 -3 2.5 -6.5t6.5 -3.5q7 0 13 6q22 17 37 40q2 2 2 6q1 12 10 20l29 30q7 9 11 9q2 0 4 -4
l-3 1q-2 0 -4 -2l-34 -35q-9 -9 -10 -21q0 -4 -3 -6q-15 -24 -38 -42q-6 -5 -12 -5q-3 0 -6 2l1 -2q3 -3 7 -3q5 0 10 4q23 17 38 40q2 3 2 7q2 13 12 22l33 34q1 0 1.5 1t1.5 2h3q-6 -11 -10 -22q-2 -5 -4.5 -10t-2.5 -10q0 -9 7 -9q8 0 13 8q16 22 38 38h1q1 2 3 2h1
q2 0 3 -2h-3l-3 -3q-22 -16 -38 -38q-3 -4 -7 -6t-11 -2q4 -4 7 -4t6 2.5t6 5.5q17 24 42 40l1 3l5 -7q4 -6 9 -8h5q9 0 25 7v1l6 1q1 0 1 -1h1l-10 -5q-12 -6 -21 -6q-8 0 -11 3q3 -5 7 -7q14 0 27 6l5 2q1 -1 1 -6q1 -11 11 -11q7 0 15 7q16 14 22 17v1l4 2q3 0 4 -1v-1
l-2 -1h-1l-12 -9q-21 -18 -30 -18l-6 1q3 -5 8 -5q8 0 14 5t11.5 9.5t10.5 8.5l1 1q0 1 2 2h3q-6 -16 -10 -32q-1 -5 -2.5 -10.5t-1.5 -11.5q0 -12 5.5 -22.5t16.5 -14.5q6 -3 13 -3t24 5q91 34 140 116q-2 -5 -2 -11l-4 -5q-58 -82 -145 -107q-6 -2 -12 -2q-12 0 -23 9
q11 -12 25 -12l10 1q52 14 93 49q32 26 54 60q-42 -162 -171 -266t-300 -104zM299 658q4 4 4 18v4q2 3 2 6t1 5q17 65 18.5 68.5t2 6.5t0.5 7l-10 -38q-9 -27 -14 -55v-4q0 -12 -9 -15q3 -3 5 -3zM940 237q13 0 13 15q-7 -11 -14 -11q-4 0 -9 2q4 -6 10 -6zM458 261
q2 16 7 31l2 6q15 50 39 97q32 69 78 131q10 15 26 22q3 1 4 4q0 1 -1 1h-2q-15 -6 -24 -18q-36 -46 -62 -97q-33 -60 -55 -125q-10 -31 -12 -52zM463 225q3 0 5 3q11 11 29 47q45 99 116 181q59 67 126 127q23 22 53 36q4 2 4 4t-2.5 5t-6.5 3q-5 0 -10 -5
q-66 -44 -154 -135q-86 -86 -139 -203q-4 -8 -7.5 -16.5t-9.5 -15.5q-1 0 -2 -1.5t-3 -1.5q-6 0 -6 13q0 6 1 11q12 51 34 99q36 83 90 157q10 15 27 22q4 1 4 4q0 8 -7 9q-13 0 -24 -12t-63 -62q-82 -79 -143 -175v-1q0 -2 -3 -2q10 20 45 76l31 52l11 18q16 27 30 56
q11 23 11 48v-1q0 -24 -18 -56q-26 -48 -54 -94q-26 -41 -50 -82l-20 -37q0 8 4 14l55 94q29 46 55 94q25 40 27 75q-1 17 -12 24q-6 4 -13 4q-6 0 -13 -3q-64 -30 -97 -90q-4 -7 -4 -16q0 -14 9 -14l5 1q16 5 30 15q5 3 8.5 6t3.5 5q0 4 -4 4l-4 -1l-9 -4q-1 -1 -3 -1t-3 2
q2 3 2 3.5t1 0.5q28 36 67 60q7 4 12 4q3 0 3 -3v-2q-3 -26 -33 -77q-112 -175 -112 -216q1 -12 12 -12t21 17q25 34 49 69q41 57 89 109h1l2 3l5 -1l-1 -2q-9 -4 -13 -12q-48 -52 -102 -130q-28 -38 -28 -40q-12 -17 -23 -17l-6 1q3 -4 9 -4q10 0 18 14q6 6 30 41
q49 73 109 138l1 2q0 1 3 1l-2 -5q-8 -18 -20 -39q-29 -59 -45 -124q-2 -10 -2 -20q0 -4 1 -12.5t14 -18.5l3 -4q3 -4 5 -4zM373 471l4 1q22 7 38 22h1q2 2 2 5h-3q-14 -14 -33 -21q-1 0 -1 -1l-11 -2l-6 1q4 -5 9 -5zM720 510q3 1 3 3q0 13 8 20q2 1 2 3q0 1 -1.5 3.5
t-4.5 2.5l-4 -1q-18 -2 -21 -9.5t-9 -14.5q-1 -1 -1 -1.5v-1.5l1 -1q1 -2 4 -2q2 0 3.5 0.5t1.5 1.5l7 1q4 0 6 -2t5 -2zM722 503q2 0 3 5q-3 -2 -5 -2q-3 0 -5 2.5t-5 2.5q-4 0 -7 -1.5t-6 -2.5q-2 0 -2 -1l2 -1q1 -1 3 -1q3 0 5.5 1.5t5.5 1.5q4 0 7 -2t4 -2zM726 515
q1 4 4.5 7t3.5 8q-8 -6 -8 -15zM466 219q9 0 32 46q65 147 215 284l12 11q35 37 70 52q3 3 3 4l-2 1l-3 -1q-39 -17 -133 -115q-104 -101 -165 -236q-9 -21 -23 -38q-5 -5 -11 -5q3 -3 5 -3zM1040 415q3 1 3 4v1l-6 -2l-4 1q2 -4 5 -4h2zM954 357l2 5q13 51 43 95
q11 15 21 31l1 1q1 2 1.5 3.5t0.5 3.5q-51 -62 -69 -139z" />
    <glyph glyph-name="dollar" unicode="$" horiz-adv-x="1286" 
d="M657 674q-2 0 -2 2q7 15 19 27l2 1q1 0 2 -2l-1 -1q-12 -10 -18 -24q0 -1 -1 -1v-1q0 -1 -1 -1zM406 118l-4 2q54 22 108 40q170 57 345 93h2q31 7 54 7q9 0 14 -9v1l-2 1q-5 5 -12 5l-7 -1q-10 0 -19 -2q-106 -19 -210 -49q-12 -3 -23 -7q-118 -31 -246 -81zM945 635
h-28q-2 0 -2 1l4 6l10 10q24 24 24 37v2q-10 -22 -29 -39l-15 -16v3q0 2 3 5q20 20 30 33t10 26q0 6 -2 12l-1 5q0 5 3.5 8t3.5 6q-1 4 -8 4q-4 0 -8 -4q-13 -11 -23 -25l-27 -36q-3 -3 -5 -7q-1 0 -1 -0.5t-3 -3.5q0 3 1 4v1q9 24 21 51q19 47 37 95q5 14 7 30
q-17 -57 -41 -113q-16 -36 -30 -73l-1 4l1 2q0 5 4 13q20 46 38 92l6 15q13 31 21 64l1 3q0 4 -3 5t-5 1q-5 0 -16 -30q-40 -101 -46 -113q-2 -8 -9 -12q-11 -6 -21 -14l-22 -15v-1q-2 -1 -3 -1h-2h-2q0 7 3 13.5t3 14.5q-6 -18 -6 -28q-2 2 -2 10l7 24q0 4 -2 5t-3 1l-5 -1
q-15 -7 -26 -20l-30 -37v-1q-1 -2 -6 -2q-2 1 -2 3q0 18 9 41q15 37 31 73l19 42q5 12 16 19l2 1q2 1 4 3t2 5l-1 2q-7 7 -7 18q0 9 -7 9q-4 0 -7 -5.5t-11 -25.5q-3 -12 -17 -12q-34 0 -67 -5l-5 -1q-25 -3 -48 -14q-11 -5 -15 -16v-3q0 -6 7 -6q4 1 6 4q15 13 35 18
q27 6 51 9q16 4 33 4l2 1q2 0 4 -4h-7q-17 0 -72 -11q-28 -4 -43 -19q-5 -5 -10 -5l-1 -1q0 -3 4 -2q4 0 7 3q22 19 69 25q8 0 15 2q20 4 33 4q5 0 5 -2l-2 -8q-22 -58 -71 -98l-3 -1l1 11q0 -5 -5 -12v6q3 0 3 14q0 6 -4 6h-6q-25 0 -40.5 -18.5t-15.5 -19.5
q-14 -19 -29 -19l-5 1q-18 4 -25 21q-4 11 -4 22q0 27 10 60q2 7 2 13l-1 9q-1 9 -9 9q-10 0 -23 -26q-5 -11 -11 -21q-28 -57 -44 -81q-4 -7 -10 -13h-1q-1 -2 -2 -2h-2q-3 0 -4.5 3.5t-1.5 14.5q0 13 10 61q26 137 67 227q14 28 14 41q0 5 -4 7q43 8 88 8q168 0 295 -99.5
t173 -256.5h-3q-13 -5 -26 -7q-62 -13 -125 -19zM663 722q18 3 23 8l3 3l-2 2l-2 -2h-1q-9 -6 -21 -7h-6q-1 0 -1 -2t4 -2h3zM659 729q15 0 25 8l3 3q0 4 -4 4q-8 0 -25 -4q-7 -2 -7 -7q1 -3 2.5 -3.5t5.5 -0.5zM951 716q7 7 7 9t-2 2l-2 -3h-1q-2 -3 -2 -8zM843 710
q3 0 3 5h-8q-5 3 -11.5 7t-11.5 4q-4 0 -7 -3h-3l-1 -2q0 -2 5 -2v1h3q4 2 7 2t18 -9zM840 717q4 0 4 4q0 2 -2 4v1q-6 6 -7 12q0 3 2 6q0 6 -6 6l-13 -1l-13 1q-2 0 -3 -1v0l1 -7q0 -2 -0.5 -4.5t-1.5 -4.5t-1 -3q0 -4 4 -4q3 0 6 1.5t6 1.5q4 0 7 -3q12 -7 13 -7t1.5 -1
t2.5 -1zM750 655q4 19 12 36q13 34 28 66l19 43q5 12 16 19l8 7q0 1 -0.5 2t-1.5 1l-1 -1q-16 -10 -23 -27l-21 -49q-33 -68 -36 -97zM580 707l1 8q1 8 2.5 18t5 21.5t3.5 20.5q-9 -31 -12 -68zM484 679l2 12q30 169 82 281q5 10 6 19q-35 -74 -55.5 -152.5t-34.5 -159.5z
M389 505v3q0 3 2 5q29 39 71 63q5 3 10 4q2 0 4 -2v-1h-3q-14 -4 -24 -13q-32 -21 -55 -52zM901 658h-2l-1 2l1 1q5 6 9 13q5 5 20 25q0 3 3 3h2q1 0 1 -1v-1h-1q-11 -12 -20 -25q-5 -8 -11 -15zM656 48q-134 0 -246 67q54 21 108 40q193 62 354 94h4q14 4 28 4l21 -2
q4 -7 14 -7q10 2 12 13q0 9 -6 15.5t-30 6.5q-22 0 -90 -14q-14 0 -94 -21l-40 -9q-123 -30 -242 -72q-35 -13 -69 -29q-96 67 -152.5 171t-56.5 228q0 117 50.5 216t136.5 166.5t196 91.5q-6 -10 -15 -31l-13 -30q-56 -122 -115 -242q-42 -87 -103 -163q-24 -31 -58 -51
q-8 -4 -14 -4q-4 0 -10.5 2.5t-9 16.5t-2.5 29q0 35 14 80l3 12q19 73 57 139q5 10 12 17q2 2 4 2t4 -2q-7 -2 -12 -10q-43 -70 -66 -161q-10 -30 -12 -60q4 28 12 55q16 64 43 120l2 3q10 22 24 42q1 1 1 1.5t4 4.5q1 0 2.5 -0.5t1.5 -1.5q-1 -2 -1 -4t-1 -3
q-5 -37 -16 -85l-1 -6q0 -12 6 -12q4 0 5 5t1.5 13.5t2.5 16.5q21 70 21 88q0 22 -16 22q-24 0 -56 -63q-45 -93 -58 -195q-2 -12 -2 -23q0 -62 41 -65q17 0 31 9q39 24 66 60q83 104 138 239q1 3 4 5h1q1 0 1.5 -0.5t0.5 -1.5h-1q-3 -2 -4 -5l-5 -14q-106 -230 -202 -287
q-13 -8 -28 -8q-13 0 -24 8q6 -7 13 -9t14 -2q15 0 28 8q43 27 72 68q54 69 92 146l6 11q19 36 34 72q0 5 5 7l1 -1v-3q-1 -8 -4 -15q-4 -15 -9 -55q-2 -12 -2 -25q0 -12 5.5 -24t14.5 -12q5 0 12 5q13 10 22 24q14 23 26.5 47t12.5 26l3 1l1 -1v-2h-1l-15 -28
q-22 -47 -44 -68q-7 -7 -16 -7q-5 0 -11 4q7 -8 14 -8q5 0 10 4q24 17 54 83q3 7 9 14v-19q0 -21 12.5 -40t35.5 -19h7q10 0 15.5 -5t9.5 -5t8 3q12 6 24 22q9 12 11 12q3 0 6 -3.5t8 -3.5q10 0 34 24q2 3 5 5v1l4 2l2 -1l-1 -2q-6 -4 -9 -8t-6 -6q-9 -10 -22 -16
q-3 -2 -6 -2q-5 0 -8 3t-5 3t-8 -6q-11 -17 -26 -27q-5 -3 -9 -3q-6 0 -10.5 5t-11.5 5l-4 -1h-6q-15 0 -27 8q11 -11 32 -11q13 0 18.5 -5t10.5 -5q4 0 8 3q12 8 23 24q10 10 11 10q2 0 5 -3t7 -3q6 0 11 3q13 7 32 27q-1 -7 -3 -12q-5 -10 -5 -26q0 -7 2.5 -16t14.5 -9
q20 4 37 33q1 1 1.5 2.5t2.5 2.5t3 2q1 0 1.5 -0.5t0.5 -1.5v0q-1 -1 -3 -2t-3 -4q-5 -10 -12 -18t-15 -12.5t-22 -4.5q3 -4 7 -4q13 0 23 9q14 13 22 29l2 1q2 -2 2 -4v-1q2 -11 11 -11q10 0 19 9q16 13 31 27l5 3q1 0 2 -0.5t1 -1.5l-2 -1q-12 -9 -23 -20q-6 -5 -13 -11.5
t-18 -6.5l-8 1q4 -5 13 -5q7 1 44 33q1 0 1.5 0.5l1.5 1.5t2 1q0 -3 -1 -4q-10 -31 -17 -62q-2 -5 -2 -10q1 -6 6 -8h6q8 8 13.5 18.5t16.5 10.5l5 -1q15 -4 31 -4l12 1q48 3 94 8.5t87 19.5l12 5l1 -4h-2q-47 -20 -130 -27l-16 -1q-44 -4 -54 -4q-16 0 -32 2l-9 1
q-7 0 -15 -12q-4 -7 -8 -11.5t-13 -4.5q4 -4 7 -4q5 0 16 17q5 12 17 12l5 -1q14 -3 36 -3q109 5 175 24q12 3 24 8q13 -53 13 -111q0 -29 -4 -58q-5 13 -20 13q-9 0 -33 -7.5t-44 -24.5q-10 -7 -13 -20q0 -9 3 -12t5 -3t4 1t2 4v1q0 10 8 16q29 22 64 27l2 1q4 0 6 -5l-5 1
q-4 0 -12 -2q-35 -9 -54 -26q-6 -4 -6 -14q4 10 14 16q25 18 57 22l3 1q2 0 2.5 -1t0.5 -3q0 -15 -9 -27q-30 -44 -76 -73q-28 -18 -61 -26l-6 -1q-14 0 -17 17v15q13 54 46 100q16 21 23 36q0 8 -7 8q-4 0 -6 -4q-15 -15 -23 -27q-21 -31 -52 -51l-3 -1q3 6 8 13.5t8 18.5
l-20 -33q0 -1 -1 -1.5t-2 -0.5v3q1 0 1 1t1 2t1 2l17 29l1 6q0 5 -6 5t-23 -22t-41 -29l-8 -1q-1 0 -4.5 1t-4.5 9q-5 14 -14 14q-4 0 -18 -7q-2 -2 -5 -3l2 6q4 8 4 16q-2 -10 -8 -20l-1 -3v3q-1 3 1 6v1q6 11 6 22q-1 6 -6 6t-9 -6q-7 -9 -18 -16t-48 -44q-7 -7 -16 -8
q-10 0 -16 4q7 23 47 59q4 2 4 9q-31 -26 -51 -60l-1 -4l1 -4q-3 4 -3 8q0 7 17 26q4 9 32 33q4 3 4 6q0 2 -1 3q-2 5 -8 5q-7 -1 -12 -4q-29 -16 -54 -36l-11 -8q0 2 0.5 3t1 1.5l1.5 1.5q20 30 24 38q1 0 1.5 1t0.5 2l-1 2q-16 -26 -35 -51l-3 -5l-1 3q0 2 1 3h1
q28 42 32 48.5t4 7.5q0 2 -1.5 3.5t-7.5 1.5q-5 -3 -9 -8l-26 -35q-26 -36 -49 -74q-1 0 -1 -1q-3 -4 -4 -9q0 -6 2.5 -8t4.5 -2q6 0 15 9l3 4q32 44 73 75q0 1 1 1.5l3 1.5q1 0 2 -1t1 -2h-1q0 -1 -1.5 -1t-1.5 -1h-1v-1q-36 -27 -64 -63l-6 -7q-10 -17 -24 -20q2 -2 5 -2
q2 0 6 2q15 13 15 17q24 32 55 58q1 1 2.5 3t7.5 4q-10 -13 -10 -27q0 -12 12 -18l10 -3q1 0 4 -3q-10 1 -18 5q4 -6 9.5 -7t5.5 -2q0 -2 -3 -4q-13 -12 -26 -27q-7 -7 -7 -13q0 -3 2.5 -6.5t6.5 -3.5q7 0 13 6q22 17 37 40q2 2 2 6q1 12 10 20l29 30q7 9 11 9q2 0 4 -4
l-3 1q-2 0 -4 -2l-34 -35q-9 -9 -10 -21q0 -4 -3 -6q-15 -24 -38 -42q-6 -5 -12 -5q-3 0 -6 2l1 -2q3 -3 7 -3q5 0 10 4q23 17 38 40q2 3 2 7q2 13 12 22l33 34q1 0 1.5 1t1.5 2h3q-6 -11 -10 -22q-2 -5 -4.5 -10t-2.5 -10q0 -9 7 -9q8 0 13 8q16 22 38 38h1q1 2 3 2h1
q2 0 3 -2h-3l-3 -3q-22 -16 -38 -38q-3 -4 -7 -6t-11 -2q4 -4 7 -4t6 2.5t6 5.5q17 24 42 40l1 3l5 -7q4 -6 9 -8h5q9 0 25 7v1l6 1q1 0 1 -1h1l-10 -5q-12 -6 -21 -6q-8 0 -11 3q3 -5 7 -7q14 0 27 6l5 2q1 -1 1 -6q1 -11 11 -11q7 0 15 7q16 14 22 17v1l4 2q3 0 4 -1v-1
l-2 -1h-1l-12 -9q-21 -18 -30 -18l-6 1q3 -5 8 -5q8 0 14 5t11.5 9.5t10.5 8.5l1 1q0 1 2 2h3q-6 -16 -10 -32q-1 -5 -2.5 -10.5t-1.5 -11.5q0 -12 5.5 -22.5t16.5 -14.5q6 -3 13 -3t24 5q91 34 140 116q-2 -5 -2 -11l-4 -5q-58 -82 -145 -107q-6 -2 -12 -2q-12 0 -23 9
q11 -12 25 -12l10 1q52 14 93 49q32 26 54 60q-42 -162 -171 -266t-300 -104zM299 658q4 4 4 18v4q2 3 2 6t1 5q17 65 18.5 68.5t2 6.5t0.5 7l-10 -38q-9 -27 -14 -55v-4q0 -12 -9 -15q3 -3 5 -3zM940 237q13 0 13 15q-7 -11 -14 -11q-4 0 -9 2q4 -6 10 -6zM458 261
q2 16 7 31l2 6q15 50 39 97q32 69 78 131q10 15 26 22q3 1 4 4q0 1 -1 1h-2q-15 -6 -24 -18q-36 -46 -62 -97q-33 -60 -55 -125q-10 -31 -12 -52zM463 225q3 0 5 3q11 11 29 47q45 99 116 181q59 67 126 127q23 22 53 36q4 2 4 4t-2.5 5t-6.5 3q-5 0 -10 -5
q-66 -44 -154 -135q-86 -86 -139 -203q-4 -8 -7.5 -16.5t-9.5 -15.5q-1 0 -2 -1.5t-3 -1.5q-6 0 -6 13q0 6 1 11q12 51 34 99q36 83 90 157q10 15 27 22q4 1 4 4q0 8 -7 9q-13 0 -24 -12t-63 -62q-82 -79 -143 -175v-1q0 -2 -3 -2q10 20 45 76l31 52l11 18q16 27 30 56
q11 23 11 48v-1q0 -24 -18 -56q-26 -48 -54 -94q-26 -41 -50 -82l-20 -37q0 8 4 14l55 94q29 46 55 94q25 40 27 75q-1 17 -12 24q-6 4 -13 4q-6 0 -13 -3q-64 -30 -97 -90q-4 -7 -4 -16q0 -14 9 -14l5 1q16 5 30 15q5 3 8.5 6t3.5 5q0 4 -4 4l-4 -1l-9 -4q-1 -1 -3 -1t-3 2
q2 3 2 3.5t1 0.5q28 36 67 60q7 4 12 4q3 0 3 -3v-2q-3 -26 -33 -77q-112 -175 -112 -216q1 -12 12 -12t21 17q25 34 49 69q41 57 89 109h1l2 3l5 -1l-1 -2q-9 -4 -13 -12q-48 -52 -102 -130q-28 -38 -28 -40q-12 -17 -23 -17l-6 1q3 -4 9 -4q10 0 18 14q6 6 30 41
q49 73 109 138l1 2q0 1 3 1l-2 -5q-8 -18 -20 -39q-29 -59 -45 -124q-2 -10 -2 -20q0 -4 1 -12.5t14 -18.5l3 -4q3 -4 5 -4zM373 471l4 1q22 7 38 22h1q2 2 2 5h-3q-14 -14 -33 -21q-1 0 -1 -1l-11 -2l-6 1q4 -5 9 -5zM720 510q3 1 3 3q0 13 8 20q2 1 2 3q0 1 -1.5 3.5
t-4.5 2.5l-4 -1q-18 -2 -21 -9.5t-9 -14.5q-1 -1 -1 -1.5v-1.5l1 -1q1 -2 4 -2q2 0 3.5 0.5t1.5 1.5l7 1q4 0 6 -2t5 -2zM722 503q2 0 3 5q-3 -2 -5 -2q-3 0 -5 2.5t-5 2.5q-4 0 -7 -1.5t-6 -2.5q-2 0 -2 -1l2 -1q1 -1 3 -1q3 0 5.5 1.5t5.5 1.5q4 0 7 -2t4 -2zM726 515
q1 4 4.5 7t3.5 8q-8 -6 -8 -15zM466 219q9 0 32 46q65 147 215 284l12 11q35 37 70 52q3 3 3 4l-2 1l-3 -1q-39 -17 -133 -115q-104 -101 -165 -236q-9 -21 -23 -38q-5 -5 -11 -5q3 -3 5 -3zM1040 415q3 1 3 4v1l-6 -2l-4 1q2 -4 5 -4h2zM954 357l2 5q13 51 43 95
q11 15 21 31l1 1q1 2 1.5 3.5t0.5 3.5q-51 -62 -69 -139z" />
    <glyph glyph-name="uni0025" unicode="%" horiz-adv-x="987" 
d="M268 836q-61 0 -106.5 40t-70.5 108t-25 150q0 83 25 150.5t70.5 108t106.5 40.5t106 -40.5t70 -108t25 -150.5q0 -82 -25 -150t-70 -108t-106 -40zM268 875q44 0 74 35t45 94t15 130q0 72 -15 130.5t-45 93.5t-74 35t-74 -35t-45.5 -93.5t-15.5 -130.5q0 -71 15.5 -130
t45.5 -94t74 -35zM317 0h-40l398 1433h39zM723 0q-61 0 -106 40.5t-70 108.5t-25 150t25 149.5t70 108t106 40.5q62 0 107 -40.5t70 -108t25 -149.5t-25 -150t-70 -108.5t-107 -40.5zM723 40q45 0 75 35t45 94t15 130t-15 129.5t-45 93.5t-75 35q-43 0 -73.5 -35t-46 -93.5
t-15.5 -129.5t15.5 -130t46 -94t73.5 -35z" />
    <glyph glyph-name="ampersand" unicode="&#x26;" horiz-adv-x="1035" 
d="M518 -20q-137 0 -239 64.5t-157.5 173t-55.5 240.5q0 165 86 290.5t238 169.5q-85 34 -132.5 103t-47.5 153q0 75 38 138t107.5 101.5t162.5 38.5q114 0 191 -56.5t104 -143.5q2 -7 2 -15q0 -21 -16 -33.5t-33 -12.5q-13 0 -23.5 8t-13.5 24q-11 85 -64 137t-147 52
q-108 0 -162 -67t-54 -171q0 -69 24 -123t72 -85t120 -31q9 0 13.5 -6t4.5 -14q0 -7 -4.5 -13.5t-13.5 -6.5q-110 0 -189 -59t-121 -158t-42 -220t42 -220.5t121 -158.5t189 -59t188.5 59t120.5 158.5t42 220.5q0 135 -61 224.5t-158 89.5q-85 0 -146 -52.5t-61 -139.5
q0 -79 48.5 -120t127.5 -41q17 0 25 -9.5t8 -20.5q0 -13 -8.5 -23t-24.5 -10q-70 0 -118 30.5t-72.5 80t-24.5 107.5q0 98 70.5 164t203.5 66q85 0 134.5 30.5t49.5 83.5q0 16 10 23.5t22 7.5q11 0 21 -7.5t10 -23.5q0 -43 -37.5 -79t-109.5 -54q90 -36 140.5 -124.5
t50.5 -202.5q0 -132 -55.5 -240.5t-157 -173t-238.5 -64.5z" />
    <glyph glyph-name="quotesingle" unicode="'" horiz-adv-x="137" 
d="M102 1100q-16 0 -18 15l-18 165q0 9 12 14t25 5t23.5 -4.5t10.5 -13.5l-17 -166q-1 -7 -6.5 -11t-11.5 -4z" />
    <glyph glyph-name="parenleft" unicode="(" horiz-adv-x="424" 
d="M402 -100q-158 87 -247 308.5t-89 507.5t89 507t247 309l22 -35q-121 -78 -185.5 -263.5t-64.5 -517.5q0 -333 64 -518t184 -263z" />
    <glyph glyph-name="parenright" unicode=")" horiz-adv-x="424" 
d="M88 -100l-20 35q120 78 184 263t64 518q0 332 -65 517.5t-185 263.5l22 35q158 -88 247 -309t89 -507t-89 -507.5t-247 -308.5z" />
    <glyph glyph-name="asterisk" unicode="*" horiz-adv-x="1286" 
d="M657 674q-2 0 -2 2q7 15 19 27l2 1q1 0 2 -2l-1 -1q-12 -10 -18 -24q0 -1 -1 -1v-1q0 -1 -1 -1zM406 118l-4 2q54 22 108 40q170 57 345 93h2q31 7 54 7q9 0 14 -9v1l-2 1q-5 5 -12 5l-7 -1q-10 0 -19 -2q-106 -19 -210 -49q-12 -3 -23 -7q-118 -31 -246 -81zM945 635
h-28q-2 0 -2 1l4 6l10 10q24 24 24 37v2q-10 -22 -29 -39l-15 -16v3q0 2 3 5q20 20 30 33t10 26q0 6 -2 12l-1 5q0 5 3.5 8t3.5 6q-1 4 -8 4q-4 0 -8 -4q-13 -11 -23 -25l-27 -36q-3 -3 -5 -7q-1 0 -1 -0.5t-3 -3.5q0 3 1 4v1q9 24 21 51q19 47 37 95q5 14 7 30
q-17 -57 -41 -113q-16 -36 -30 -73l-1 4l1 2q0 5 4 13q20 46 38 92l6 15q13 31 21 64l1 3q0 4 -3 5t-5 1q-5 0 -16 -30q-40 -101 -46 -113q-2 -8 -9 -12q-11 -6 -21 -14l-22 -15v-1q-2 -1 -3 -1h-2h-2q0 7 3 13.5t3 14.5q-6 -18 -6 -28q-2 2 -2 10l7 24q0 4 -2 5t-3 1l-5 -1
q-15 -7 -26 -20l-30 -37v-1q-1 -2 -6 -2q-2 1 -2 3q0 18 9 41q15 37 31 73l19 42q5 12 16 19l2 1q2 1 4 3t2 5l-1 2q-7 7 -7 18q0 9 -7 9q-4 0 -7 -5.5t-11 -25.5q-3 -12 -17 -12q-34 0 -67 -5l-5 -1q-25 -3 -48 -14q-11 -5 -15 -16v-3q0 -6 7 -6q4 1 6 4q15 13 35 18
q27 6 51 9q16 4 33 4l2 1q2 0 4 -4h-7q-17 0 -72 -11q-28 -4 -43 -19q-5 -5 -10 -5l-1 -1q0 -3 4 -2q4 0 7 3q22 19 69 25q8 0 15 2q20 4 33 4q5 0 5 -2l-2 -8q-22 -58 -71 -98l-3 -1l1 11q0 -5 -5 -12v6q3 0 3 14q0 6 -4 6h-6q-25 0 -40.5 -18.5t-15.5 -19.5
q-14 -19 -29 -19l-5 1q-18 4 -25 21q-4 11 -4 22q0 27 10 60q2 7 2 13l-1 9q-1 9 -9 9q-10 0 -23 -26q-5 -11 -11 -21q-28 -57 -44 -81q-4 -7 -10 -13h-1q-1 -2 -2 -2h-2q-3 0 -4.5 3.5t-1.5 14.5q0 13 10 61q26 137 67 227q14 28 14 41q0 5 -4 7q43 8 88 8q168 0 295 -99.5
t173 -256.5h-3q-13 -5 -26 -7q-62 -13 -125 -19zM663 722q18 3 23 8l3 3l-2 2l-2 -2h-1q-9 -6 -21 -7h-6q-1 0 -1 -2t4 -2h3zM659 729q15 0 25 8l3 3q0 4 -4 4q-8 0 -25 -4q-7 -2 -7 -7q1 -3 2.5 -3.5t5.5 -0.5zM951 716q7 7 7 9t-2 2l-2 -3h-1q-2 -3 -2 -8zM843 710
q3 0 3 5h-8q-5 3 -11.5 7t-11.5 4q-4 0 -7 -3h-3l-1 -2q0 -2 5 -2v1h3q4 2 7 2t18 -9zM840 717q4 0 4 4q0 2 -2 4v1q-6 6 -7 12q0 3 2 6q0 6 -6 6l-13 -1l-13 1q-2 0 -3 -1v0l1 -7q0 -2 -0.5 -4.5t-1.5 -4.5t-1 -3q0 -4 4 -4q3 0 6 1.5t6 1.5q4 0 7 -3q12 -7 13 -7t1.5 -1
t2.5 -1zM750 655q4 19 12 36q13 34 28 66l19 43q5 12 16 19l8 7q0 1 -0.5 2t-1.5 1l-1 -1q-16 -10 -23 -27l-21 -49q-33 -68 -36 -97zM580 707l1 8q1 8 2.5 18t5 21.5t3.5 20.5q-9 -31 -12 -68zM484 679l2 12q30 169 82 281q5 10 6 19q-35 -74 -55.5 -152.5t-34.5 -159.5z
M389 505v3q0 3 2 5q29 39 71 63q5 3 10 4q2 0 4 -2v-1h-3q-14 -4 -24 -13q-32 -21 -55 -52zM901 658h-2l-1 2l1 1q5 6 9 13q5 5 20 25q0 3 3 3h2q1 0 1 -1v-1h-1q-11 -12 -20 -25q-5 -8 -11 -15zM656 48q-134 0 -246 67q54 21 108 40q193 62 354 94h4q14 4 28 4l21 -2
q4 -7 14 -7q10 2 12 13q0 9 -6 15.5t-30 6.5q-22 0 -90 -14q-14 0 -94 -21l-40 -9q-123 -30 -242 -72q-35 -13 -69 -29q-96 67 -152.5 171t-56.5 228q0 117 50.5 216t136.5 166.5t196 91.5q-6 -10 -15 -31l-13 -30q-56 -122 -115 -242q-42 -87 -103 -163q-24 -31 -58 -51
q-8 -4 -14 -4q-4 0 -10.5 2.5t-9 16.5t-2.5 29q0 35 14 80l3 12q19 73 57 139q5 10 12 17q2 2 4 2t4 -2q-7 -2 -12 -10q-43 -70 -66 -161q-10 -30 -12 -60q4 28 12 55q16 64 43 120l2 3q10 22 24 42q1 1 1 1.5t4 4.5q1 0 2.5 -0.5t1.5 -1.5q-1 -2 -1 -4t-1 -3
q-5 -37 -16 -85l-1 -6q0 -12 6 -12q4 0 5 5t1.5 13.5t2.5 16.5q21 70 21 88q0 22 -16 22q-24 0 -56 -63q-45 -93 -58 -195q-2 -12 -2 -23q0 -62 41 -65q17 0 31 9q39 24 66 60q83 104 138 239q1 3 4 5h1q1 0 1.5 -0.5t0.5 -1.5h-1q-3 -2 -4 -5l-5 -14q-106 -230 -202 -287
q-13 -8 -28 -8q-13 0 -24 8q6 -7 13 -9t14 -2q15 0 28 8q43 27 72 68q54 69 92 146l6 11q19 36 34 72q0 5 5 7l1 -1v-3q-1 -8 -4 -15q-4 -15 -9 -55q-2 -12 -2 -25q0 -12 5.5 -24t14.5 -12q5 0 12 5q13 10 22 24q14 23 26.5 47t12.5 26l3 1l1 -1v-2h-1l-15 -28
q-22 -47 -44 -68q-7 -7 -16 -7q-5 0 -11 4q7 -8 14 -8q5 0 10 4q24 17 54 83q3 7 9 14v-19q0 -21 12.5 -40t35.5 -19h7q10 0 15.5 -5t9.5 -5t8 3q12 6 24 22q9 12 11 12q3 0 6 -3.5t8 -3.5q10 0 34 24q2 3 5 5v1l4 2l2 -1l-1 -2q-6 -4 -9 -8t-6 -6q-9 -10 -22 -16
q-3 -2 -6 -2q-5 0 -8 3t-5 3t-8 -6q-11 -17 -26 -27q-5 -3 -9 -3q-6 0 -10.5 5t-11.5 5l-4 -1h-6q-15 0 -27 8q11 -11 32 -11q13 0 18.5 -5t10.5 -5q4 0 8 3q12 8 23 24q10 10 11 10q2 0 5 -3t7 -3q6 0 11 3q13 7 32 27q-1 -7 -3 -12q-5 -10 -5 -26q0 -7 2.5 -16t14.5 -9
q20 4 37 33q1 1 1.5 2.5t2.5 2.5t3 2q1 0 1.5 -0.5t0.5 -1.5v0q-1 -1 -3 -2t-3 -4q-5 -10 -12 -18t-15 -12.5t-22 -4.5q3 -4 7 -4q13 0 23 9q14 13 22 29l2 1q2 -2 2 -4v-1q2 -11 11 -11q10 0 19 9q16 13 31 27l5 3q1 0 2 -0.5t1 -1.5l-2 -1q-12 -9 -23 -20q-6 -5 -13 -11.5
t-18 -6.5l-8 1q4 -5 13 -5q7 1 44 33q1 0 1.5 0.5l1.5 1.5t2 1q0 -3 -1 -4q-10 -31 -17 -62q-2 -5 -2 -10q1 -6 6 -8h6q8 8 13.5 18.5t16.5 10.5l5 -1q15 -4 31 -4l12 1q48 3 94 8.5t87 19.5l12 5l1 -4h-2q-47 -20 -130 -27l-16 -1q-44 -4 -54 -4q-16 0 -32 2l-9 1
q-7 0 -15 -12q-4 -7 -8 -11.5t-13 -4.5q4 -4 7 -4q5 0 16 17q5 12 17 12l5 -1q14 -3 36 -3q109 5 175 24q12 3 24 8q13 -53 13 -111q0 -29 -4 -58q-5 13 -20 13q-9 0 -33 -7.5t-44 -24.5q-10 -7 -13 -20q0 -9 3 -12t5 -3t4 1t2 4v1q0 10 8 16q29 22 64 27l2 1q4 0 6 -5l-5 1
q-4 0 -12 -2q-35 -9 -54 -26q-6 -4 -6 -14q4 10 14 16q25 18 57 22l3 1q2 0 2.5 -1t0.5 -3q0 -15 -9 -27q-30 -44 -76 -73q-28 -18 -61 -26l-6 -1q-14 0 -17 17v15q13 54 46 100q16 21 23 36q0 8 -7 8q-4 0 -6 -4q-15 -15 -23 -27q-21 -31 -52 -51l-3 -1q3 6 8 13.5t8 18.5
l-20 -33q0 -1 -1 -1.5t-2 -0.5v3q1 0 1 1t1 2t1 2l17 29l1 6q0 5 -6 5t-23 -22t-41 -29l-8 -1q-1 0 -4.5 1t-4.5 9q-5 14 -14 14q-4 0 -18 -7q-2 -2 -5 -3l2 6q4 8 4 16q-2 -10 -8 -20l-1 -3v3q-1 3 1 6v1q6 11 6 22q-1 6 -6 6t-9 -6q-7 -9 -18 -16t-48 -44q-7 -7 -16 -8
q-10 0 -16 4q7 23 47 59q4 2 4 9q-31 -26 -51 -60l-1 -4l1 -4q-3 4 -3 8q0 7 17 26q4 9 32 33q4 3 4 6q0 2 -1 3q-2 5 -8 5q-7 -1 -12 -4q-29 -16 -54 -36l-11 -8q0 2 0.5 3t1 1.5l1.5 1.5q20 30 24 38q1 0 1.5 1t0.5 2l-1 2q-16 -26 -35 -51l-3 -5l-1 3q0 2 1 3h1
q28 42 32 48.5t4 7.5q0 2 -1.5 3.5t-7.5 1.5q-5 -3 -9 -8l-26 -35q-26 -36 -49 -74q-1 0 -1 -1q-3 -4 -4 -9q0 -6 2.5 -8t4.5 -2q6 0 15 9l3 4q32 44 73 75q0 1 1 1.5l3 1.5q1 0 2 -1t1 -2h-1q0 -1 -1.5 -1t-1.5 -1h-1v-1q-36 -27 -64 -63l-6 -7q-10 -17 -24 -20q2 -2 5 -2
q2 0 6 2q15 13 15 17q24 32 55 58q1 1 2.5 3t7.5 4q-10 -13 -10 -27q0 -12 12 -18l10 -3q1 0 4 -3q-10 1 -18 5q4 -6 9.5 -7t5.5 -2q0 -2 -3 -4q-13 -12 -26 -27q-7 -7 -7 -13q0 -3 2.5 -6.5t6.5 -3.5q7 0 13 6q22 17 37 40q2 2 2 6q1 12 10 20l29 30q7 9 11 9q2 0 4 -4
l-3 1q-2 0 -4 -2l-34 -35q-9 -9 -10 -21q0 -4 -3 -6q-15 -24 -38 -42q-6 -5 -12 -5q-3 0 -6 2l1 -2q3 -3 7 -3q5 0 10 4q23 17 38 40q2 3 2 7q2 13 12 22l33 34q1 0 1.5 1t1.5 2h3q-6 -11 -10 -22q-2 -5 -4.5 -10t-2.5 -10q0 -9 7 -9q8 0 13 8q16 22 38 38h1q1 2 3 2h1
q2 0 3 -2h-3l-3 -3q-22 -16 -38 -38q-3 -4 -7 -6t-11 -2q4 -4 7 -4t6 2.5t6 5.5q17 24 42 40l1 3l5 -7q4 -6 9 -8h5q9 0 25 7v1l6 1q1 0 1 -1h1l-10 -5q-12 -6 -21 -6q-8 0 -11 3q3 -5 7 -7q14 0 27 6l5 2q1 -1 1 -6q1 -11 11 -11q7 0 15 7q16 14 22 17v1l4 2q3 0 4 -1v-1
l-2 -1h-1l-12 -9q-21 -18 -30 -18l-6 1q3 -5 8 -5q8 0 14 5t11.5 9.5t10.5 8.5l1 1q0 1 2 2h3q-6 -16 -10 -32q-1 -5 -2.5 -10.5t-1.5 -11.5q0 -12 5.5 -22.5t16.5 -14.5q6 -3 13 -3t24 5q91 34 140 116q-2 -5 -2 -11l-4 -5q-58 -82 -145 -107q-6 -2 -12 -2q-12 0 -23 9
q11 -12 25 -12l10 1q52 14 93 49q32 26 54 60q-42 -162 -171 -266t-300 -104zM299 658q4 4 4 18v4q2 3 2 6t1 5q17 65 18.5 68.5t2 6.5t0.5 7l-10 -38q-9 -27 -14 -55v-4q0 -12 -9 -15q3 -3 5 -3zM940 237q13 0 13 15q-7 -11 -14 -11q-4 0 -9 2q4 -6 10 -6zM458 261
q2 16 7 31l2 6q15 50 39 97q32 69 78 131q10 15 26 22q3 1 4 4q0 1 -1 1h-2q-15 -6 -24 -18q-36 -46 -62 -97q-33 -60 -55 -125q-10 -31 -12 -52zM463 225q3 0 5 3q11 11 29 47q45 99 116 181q59 67 126 127q23 22 53 36q4 2 4 4t-2.5 5t-6.5 3q-5 0 -10 -5
q-66 -44 -154 -135q-86 -86 -139 -203q-4 -8 -7.5 -16.5t-9.5 -15.5q-1 0 -2 -1.5t-3 -1.5q-6 0 -6 13q0 6 1 11q12 51 34 99q36 83 90 157q10 15 27 22q4 1 4 4q0 8 -7 9q-13 0 -24 -12t-63 -62q-82 -79 -143 -175v-1q0 -2 -3 -2q10 20 45 76l31 52l11 18q16 27 30 56
q11 23 11 48v-1q0 -24 -18 -56q-26 -48 -54 -94q-26 -41 -50 -82l-20 -37q0 8 4 14l55 94q29 46 55 94q25 40 27 75q-1 17 -12 24q-6 4 -13 4q-6 0 -13 -3q-64 -30 -97 -90q-4 -7 -4 -16q0 -14 9 -14l5 1q16 5 30 15q5 3 8.5 6t3.5 5q0 4 -4 4l-4 -1l-9 -4q-1 -1 -3 -1t-3 2
q2 3 2 3.5t1 0.5q28 36 67 60q7 4 12 4q3 0 3 -3v-2q-3 -26 -33 -77q-112 -175 -112 -216q1 -12 12 -12t21 17q25 34 49 69q41 57 89 109h1l2 3l5 -1l-1 -2q-9 -4 -13 -12q-48 -52 -102 -130q-28 -38 -28 -40q-12 -17 -23 -17l-6 1q3 -4 9 -4q10 0 18 14q6 6 30 41
q49 73 109 138l1 2q0 1 3 1l-2 -5q-8 -18 -20 -39q-29 -59 -45 -124q-2 -10 -2 -20q0 -4 1 -12.5t14 -18.5l3 -4q3 -4 5 -4zM373 471l4 1q22 7 38 22h1q2 2 2 5h-3q-14 -14 -33 -21q-1 0 -1 -1l-11 -2l-6 1q4 -5 9 -5zM720 510q3 1 3 3q0 13 8 20q2 1 2 3q0 1 -1.5 3.5
t-4.5 2.5l-4 -1q-18 -2 -21 -9.5t-9 -14.5q-1 -1 -1 -1.5v-1.5l1 -1q1 -2 4 -2q2 0 3.5 0.5t1.5 1.5l7 1q4 0 6 -2t5 -2zM722 503q2 0 3 5q-3 -2 -5 -2q-3 0 -5 2.5t-5 2.5q-4 0 -7 -1.5t-6 -2.5q-2 0 -2 -1l2 -1q1 -1 3 -1q3 0 5.5 1.5t5.5 1.5q4 0 7 -2t4 -2zM726 515
q1 4 4.5 7t3.5 8q-8 -6 -8 -15zM466 219q9 0 32 46q65 147 215 284l12 11q35 37 70 52q3 3 3 4l-2 1l-3 -1q-39 -17 -133 -115q-104 -101 -165 -236q-9 -21 -23 -38q-5 -5 -11 -5q3 -3 5 -3zM1040 415q3 1 3 4v1l-6 -2l-4 1q2 -4 5 -4h2zM954 357l2 5q13 51 43 95
q11 15 21 31l1 1q1 2 1.5 3.5t0.5 3.5q-51 -62 -69 -139z" />
    <glyph glyph-name="plus" unicode="+" horiz-adv-x="807" 
d="M433 267h-60v328h-328v60h328v328h60v-328h328v-60h-328v-328z" />
    <glyph glyph-name="comma" unicode="," horiz-adv-x="165" 
d="M97 -100q-7 0 -13 6t-6 13q0 8 6 14q28 28 37 75q-23 0 -39 12.5t-16 36.5q0 21 14.5 35.5t34.5 14.5q21 0 35.5 -14.5t14.5 -35.5q0 -92 -54 -151q-8 -6 -14 -6z" />
    <glyph glyph-name="hyphen" unicode="-" horiz-adv-x="647" 
d="M622 595h-597v60h597v-60z" />
    <glyph glyph-name="hyphen" unicode="&#xad;" horiz-adv-x="647" 
d="M622 595h-597v60h597v-60z" />
    <glyph glyph-name="period" unicode="." horiz-adv-x="165" 
d="M116 0q-21 0 -35.5 14.5t-14.5 35.5q0 20 14.5 35t35.5 15q20 0 34.5 -15t14.5 -35q0 -21 -14.5 -35.5t-34.5 -14.5z" />
    <glyph glyph-name="slash" unicode="/" horiz-adv-x="504" 
d="M106 0h-40l398 1433h40z" />
    <glyph glyph-name="zero" unicode="0" horiz-adv-x="1061" 
d="M563 -20q-113 0 -205 57.5t-157 158t-100 234t-35 286.5t35 286.5t100 234t157 158t205 57.5q114 0 205.5 -57.5t157 -158t100.5 -234t35 -286.5t-35 -286.5t-100.5 -234t-157 -158t-205.5 -57.5zM563 20q119 0 206.5 94t135.5 252t48 350q0 193 -48 351t-135.5 252
t-206.5 94q-118 0 -206 -94t-136 -252t-48 -351q0 -192 48 -350t136 -252t206 -94z" />
    <glyph glyph-name="one" unicode="1" horiz-adv-x="325" 
d="M315 0h-239q-4 0 -7 3t-3 7t3 7t7 3q29 0 49.5 20.5t20.5 48.5v1175q-42 0 -57 -25q-6 -8 -14 -8q-4 1 -6 3t-2 6q0 5 3 8l146 184h29v-1343q0 -28 20.5 -48.5t49.5 -20.5q4 0 7 -3t3 -7t-3 -7t-7 -3z" />
    <glyph glyph-name="two" unicode="2" horiz-adv-x="841" 
d="M787 0h-721v40h1q10 144 68 266.5t141.5 228.5t170.5 201q69 77 128 149t95 142.5t36 142.5q0 64 -36.5 119.5t-99 89.5t-139.5 34q-73 0 -133 -25t-104 -58.5t-69 -61.5q-6 -5 -12 -5q-8 0 -15 6.5t-7 14.5q0 6 6 13q38 39 87.5 74.5t111.5 58t138 22.5q102 0 185 -38.5
t131.5 -110.5t48.5 -172q0 -94 -40.5 -176t-104.5 -159t-139 -154q-80 -84 -155 -174.5t-126 -196t-61 -231.5h438q84 7 140 57t71 107q3 6 10 6q9 0 9 -6q0 -4 -54 -204z" />
    <glyph glyph-name="three" unicode="3" horiz-adv-x="883" 
d="M454 -20q-95 0 -170.5 30.5t-129 74.5t-83.5 87q-5 8 -5 14q0 9 7 15t14 6q9 0 15 -8q32 -47 84 -87.5t120 -66t148 -25.5q87 1 157 41.5t111 119t41 191.5q0 144 -72 234t-197 90h-112q-8 0 -12 6.5t-4 13.5q0 8 4 14t12 6h96q85 0 143.5 47t89.5 124t31 167
q0 91 -35.5 168t-100.5 124t-153 47q-73 0 -135 -25t-108 -58.5t-71 -61.5q-6 -6 -12 -6q-8 0 -15 7t-7 15q0 6 6 13q39 39 90 74.5t115 58t140 22.5q107 0 196 -48t142.5 -133.5t53.5 -196.5q0 -128 -54 -219t-148 -132v-3q110 -34 173.5 -125.5t63.5 -222.5
q0 -122 -56 -210t-153 -135t-220 -47z" />
    <glyph glyph-name="four" unicode="4" horiz-adv-x="902" 
d="M872 0h-239q-4 0 -7 3t-3 7q0 5 3 7.5t7 2.5q29 0 49.5 20.5t20.5 48.5v229h-637v40l637 1075h99v-1075h100v-40h-100v-229q0 -28 20.5 -48.5t49.5 -20.5q4 0 7 -2.5t3 -7.5q0 -4 -3 -7t-7 -3zM703 358v996l-590 -996h590z" />
    <glyph glyph-name="five" unicode="5" horiz-adv-x="907" 
d="M468 -20q-99 0 -177 31.5t-133.5 77t-86.5 90.5q-5 8 -5 15q0 9 7 14.5t15 5.5t15 -8q33 -48 86.5 -91t124 -70t154.5 -27q90 1 162 47t114.5 131t42.5 202q0 115 -42.5 200.5t-114 133t-160.5 48.5q-101 0 -175.5 -21.5t-151.5 -52.5l-13 -5l47 731h661l-7 -99h-621
l-36 -570q153 53 296 53q127 0 225.5 -52t155 -145.5t56.5 -220.5t-57 -221t-156 -145.5t-226 -51.5z" />
    <glyph glyph-name="six" unicode="6" horiz-adv-x="982" 
d="M552 -20q-159 6 -267 102t-163.5 255.5t-55.5 347.5l1 53q10 201 76 362t177.5 256.5t257.5 95.5q200 -5 323 -153q6 -7 6 -13q0 -9 -7 -15.5t-15 -6.5q-7 0 -13 5q-67 73 -134.5 107t-154.5 36q-115 0 -204 -91t-142 -244t-62 -344l-1 -80q47 110 143.5 177t232.5 67
l23 -1q187 -11 298 -139.5t111 -321.5l-1 -28q-7 -121 -63.5 -217t-151.5 -153t-214 -57zM546 20q125 0 216.5 107t102.5 285l1 30q0 176 -81 292.5t-227 123.5q-140 0 -239 -105t-109 -264l-1 -33q0 -69 14 -130q45 -137 124 -218q85 -88 199 -88z" />
    <glyph glyph-name="seven" unicode="7" horiz-adv-x="862" 
d="M454 0h-119q0 196 34 359.5t90.5 304t126.5 267.5t145 248l91 154h-756v100h796v-100q-408 -699 -408 -1333z" />
    <glyph glyph-name="eight" unicode="8" horiz-adv-x="1061" 
d="M564 -20q-151 0 -263 59t-173.5 158.5t-61.5 220.5q0 151 95 266t262 156q-99 38 -154.5 117.5t-55.5 176.5q0 85 43 157.5t122 116.5t186 44t185.5 -44t121.5 -116.5t43 -157.5q0 -97 -55.5 -176.5t-154.5 -117.5q167 -41 262 -156t95 -266q0 -121 -61.5 -220.5
t-173 -158.5t-262.5 -59zM564 855q84 0 139.5 36t83.5 99.5t28 143.5q0 81 -28 144t-83.5 99t-139.5 36t-140 -36t-84 -99t-28 -144q0 -80 28 -143.5t84 -99.5t140 -36zM564 20q118 0 205.5 52t136 142t48.5 204t-48.5 204t-136 142t-205.5 52q-119 0 -206.5 -52
t-135.5 -142t-48 -204t48 -204t135.5 -142t206.5 -52z" />
    <glyph glyph-name="nine" unicode="9" horiz-adv-x="973" 
d="M449 -20q-208 8 -328 162q-5 7 -5 13q0 9 6.5 15.5t14.5 6.5t14 -6q68 -78 134.5 -113t157.5 -38q114 0 203.5 89t146 239t70.5 338q4 41 4 80q-48 -105 -143.5 -168.5t-226.5 -63.5q-122 0 -220 56.5t-154.5 159t-56.5 240.5l2 46q10 118 67.5 211.5t151 148t207.5 54.5
q35 0 47 -2q136 -16 232.5 -108.5t148 -241t51.5 -328.5q0 -154 -36.5 -296t-105 -253t-165 -176t-217.5 -65zM487 573q137 0 235.5 101t113.5 257l1 50q0 60 -10 114q-43 147 -122.5 229t-197.5 87q-125 0 -216.5 -106t-107.5 -278l-2 -49q0 -160 74 -275t209 -129z" />
    <glyph glyph-name="colon" unicode=":" horiz-adv-x="166" 
d="M83 846q-21 0 -35.5 14.5t-14.5 35.5q0 20 14.5 35t35.5 15q20 0 34.5 -15t14.5 -35q0 -21 -14.5 -35.5t-34.5 -14.5zM83 290q-21 0 -35.5 14.5t-14.5 35.5q0 20 14.5 35t35.5 15q20 0 34.5 -15t14.5 -35q0 -21 -14.5 -35.5t-34.5 -14.5z" />
    <glyph glyph-name="semicolon" unicode=";" horiz-adv-x="166" 
d="M83 835q-21 0 -35.5 14.5t-14.5 35.5q0 20 14.5 35t35.5 15q20 0 35 -15t15 -35q0 -21 -15 -35.5t-35 -14.5zM64 190q-7 0 -12.5 6t-5.5 13q0 8 6 14q27 28 36 75q-23 0 -39 12.5t-16 36.5q0 21 14.5 35.5t34.5 14.5q21 0 35.5 -14.5t14.5 -35.5q0 -92 -54 -151
q-6 -6 -14 -6z" />
    <glyph glyph-name="semicolon" unicode="&#x37e;" horiz-adv-x="166" 
d="M83 835q-21 0 -35.5 14.5t-14.5 35.5q0 20 14.5 35t35.5 15q20 0 35 -15t15 -35q0 -21 -15 -35.5t-35 -14.5zM64 190q-7 0 -12.5 6t-5.5 13q0 8 6 14q27 28 36 75q-23 0 -39 12.5t-16 36.5q0 21 14.5 35.5t34.5 14.5q21 0 35.5 -14.5t14.5 -35.5q0 -92 -54 -151
q-6 -6 -14 -6z" />
    <glyph glyph-name="less" unicode="&#x3c;" horiz-adv-x="604" 
d="M549 327l-498 273v50l498 274v-45l-462 -254l462 -254v-44z" />
    <glyph glyph-name="equal" unicode="=" horiz-adv-x="643" 
d="M620 725h-597v59h597v-59zM620 415h-597v60h597v-60z" />
    <glyph glyph-name="greater" unicode="&#x3e;" horiz-adv-x="604" 
d="M55 327v44l461 254l-461 254v45l498 -274v-50z" />
    <glyph glyph-name="question" unicode="?" horiz-adv-x="1286" 
d="M657 674q-2 0 -2 2q7 15 19 27l2 1q1 0 2 -2l-1 -1q-12 -10 -18 -24q0 -1 -1 -1v-1q0 -1 -1 -1zM406 118l-4 2q54 22 108 40q170 57 345 93h2q31 7 54 7q9 0 14 -9v1l-2 1q-5 5 -12 5l-7 -1q-10 0 -19 -2q-106 -19 -210 -49q-12 -3 -23 -7q-118 -31 -246 -81zM945 635
h-28q-2 0 -2 1l4 6l10 10q24 24 24 37v2q-10 -22 -29 -39l-15 -16v3q0 2 3 5q20 20 30 33t10 26q0 6 -2 12l-1 5q0 5 3.5 8t3.5 6q-1 4 -8 4q-4 0 -8 -4q-13 -11 -23 -25l-27 -36q-3 -3 -5 -7q-1 0 -1 -0.5t-3 -3.5q0 3 1 4v1q9 24 21 51q19 47 37 95q5 14 7 30
q-17 -57 -41 -113q-16 -36 -30 -73l-1 4l1 2q0 5 4 13q20 46 38 92l6 15q13 31 21 64l1 3q0 4 -3 5t-5 1q-5 0 -16 -30q-40 -101 -46 -113q-2 -8 -9 -12q-11 -6 -21 -14l-22 -15v-1q-2 -1 -3 -1h-2h-2q0 7 3 13.5t3 14.5q-6 -18 -6 -28q-2 2 -2 10l7 24q0 4 -2 5t-3 1l-5 -1
q-15 -7 -26 -20l-30 -37v-1q-1 -2 -6 -2q-2 1 -2 3q0 18 9 41q15 37 31 73l19 42q5 12 16 19l2 1q2 1 4 3t2 5l-1 2q-7 7 -7 18q0 9 -7 9q-4 0 -7 -5.5t-11 -25.5q-3 -12 -17 -12q-34 0 -67 -5l-5 -1q-25 -3 -48 -14q-11 -5 -15 -16v-3q0 -6 7 -6q4 1 6 4q15 13 35 18
q27 6 51 9q16 4 33 4l2 1q2 0 4 -4h-7q-17 0 -72 -11q-28 -4 -43 -19q-5 -5 -10 -5l-1 -1q0 -3 4 -2q4 0 7 3q22 19 69 25q8 0 15 2q20 4 33 4q5 0 5 -2l-2 -8q-22 -58 -71 -98l-3 -1l1 11q0 -5 -5 -12v6q3 0 3 14q0 6 -4 6h-6q-25 0 -40.5 -18.5t-15.5 -19.5
q-14 -19 -29 -19l-5 1q-18 4 -25 21q-4 11 -4 22q0 27 10 60q2 7 2 13l-1 9q-1 9 -9 9q-10 0 -23 -26q-5 -11 -11 -21q-28 -57 -44 -81q-4 -7 -10 -13h-1q-1 -2 -2 -2h-2q-3 0 -4.5 3.5t-1.5 14.5q0 13 10 61q26 137 67 227q14 28 14 41q0 5 -4 7q43 8 88 8q168 0 295 -99.5
t173 -256.5h-3q-13 -5 -26 -7q-62 -13 -125 -19zM663 722q18 3 23 8l3 3l-2 2l-2 -2h-1q-9 -6 -21 -7h-6q-1 0 -1 -2t4 -2h3zM659 729q15 0 25 8l3 3q0 4 -4 4q-8 0 -25 -4q-7 -2 -7 -7q1 -3 2.5 -3.5t5.5 -0.5zM951 716q7 7 7 9t-2 2l-2 -3h-1q-2 -3 -2 -8zM843 710
q3 0 3 5h-8q-5 3 -11.5 7t-11.5 4q-4 0 -7 -3h-3l-1 -2q0 -2 5 -2v1h3q4 2 7 2t18 -9zM840 717q4 0 4 4q0 2 -2 4v1q-6 6 -7 12q0 3 2 6q0 6 -6 6l-13 -1l-13 1q-2 0 -3 -1v0l1 -7q0 -2 -0.5 -4.5t-1.5 -4.5t-1 -3q0 -4 4 -4q3 0 6 1.5t6 1.5q4 0 7 -3q12 -7 13 -7t1.5 -1
t2.5 -1zM750 655q4 19 12 36q13 34 28 66l19 43q5 12 16 19l8 7q0 1 -0.5 2t-1.5 1l-1 -1q-16 -10 -23 -27l-21 -49q-33 -68 -36 -97zM580 707l1 8q1 8 2.5 18t5 21.5t3.5 20.5q-9 -31 -12 -68zM484 679l2 12q30 169 82 281q5 10 6 19q-35 -74 -55.5 -152.5t-34.5 -159.5z
M389 505v3q0 3 2 5q29 39 71 63q5 3 10 4q2 0 4 -2v-1h-3q-14 -4 -24 -13q-32 -21 -55 -52zM901 658h-2l-1 2l1 1q5 6 9 13q5 5 20 25q0 3 3 3h2q1 0 1 -1v-1h-1q-11 -12 -20 -25q-5 -8 -11 -15zM656 48q-134 0 -246 67q54 21 108 40q193 62 354 94h4q14 4 28 4l21 -2
q4 -7 14 -7q10 2 12 13q0 9 -6 15.5t-30 6.5q-22 0 -90 -14q-14 0 -94 -21l-40 -9q-123 -30 -242 -72q-35 -13 -69 -29q-96 67 -152.5 171t-56.5 228q0 117 50.5 216t136.5 166.5t196 91.5q-6 -10 -15 -31l-13 -30q-56 -122 -115 -242q-42 -87 -103 -163q-24 -31 -58 -51
q-8 -4 -14 -4q-4 0 -10.5 2.5t-9 16.5t-2.5 29q0 35 14 80l3 12q19 73 57 139q5 10 12 17q2 2 4 2t4 -2q-7 -2 -12 -10q-43 -70 -66 -161q-10 -30 -12 -60q4 28 12 55q16 64 43 120l2 3q10 22 24 42q1 1 1 1.5t4 4.5q1 0 2.5 -0.5t1.5 -1.5q-1 -2 -1 -4t-1 -3
q-5 -37 -16 -85l-1 -6q0 -12 6 -12q4 0 5 5t1.5 13.5t2.5 16.5q21 70 21 88q0 22 -16 22q-24 0 -56 -63q-45 -93 -58 -195q-2 -12 -2 -23q0 -62 41 -65q17 0 31 9q39 24 66 60q83 104 138 239q1 3 4 5h1q1 0 1.5 -0.5t0.5 -1.5h-1q-3 -2 -4 -5l-5 -14q-106 -230 -202 -287
q-13 -8 -28 -8q-13 0 -24 8q6 -7 13 -9t14 -2q15 0 28 8q43 27 72 68q54 69 92 146l6 11q19 36 34 72q0 5 5 7l1 -1v-3q-1 -8 -4 -15q-4 -15 -9 -55q-2 -12 -2 -25q0 -12 5.5 -24t14.5 -12q5 0 12 5q13 10 22 24q14 23 26.5 47t12.5 26l3 1l1 -1v-2h-1l-15 -28
q-22 -47 -44 -68q-7 -7 -16 -7q-5 0 -11 4q7 -8 14 -8q5 0 10 4q24 17 54 83q3 7 9 14v-19q0 -21 12.5 -40t35.5 -19h7q10 0 15.5 -5t9.5 -5t8 3q12 6 24 22q9 12 11 12q3 0 6 -3.5t8 -3.5q10 0 34 24q2 3 5 5v1l4 2l2 -1l-1 -2q-6 -4 -9 -8t-6 -6q-9 -10 -22 -16
q-3 -2 -6 -2q-5 0 -8 3t-5 3t-8 -6q-11 -17 -26 -27q-5 -3 -9 -3q-6 0 -10.5 5t-11.5 5l-4 -1h-6q-15 0 -27 8q11 -11 32 -11q13 0 18.5 -5t10.5 -5q4 0 8 3q12 8 23 24q10 10 11 10q2 0 5 -3t7 -3q6 0 11 3q13 7 32 27q-1 -7 -3 -12q-5 -10 -5 -26q0 -7 2.5 -16t14.5 -9
q20 4 37 33q1 1 1.5 2.5t2.5 2.5t3 2q1 0 1.5 -0.5t0.5 -1.5v0q-1 -1 -3 -2t-3 -4q-5 -10 -12 -18t-15 -12.5t-22 -4.5q3 -4 7 -4q13 0 23 9q14 13 22 29l2 1q2 -2 2 -4v-1q2 -11 11 -11q10 0 19 9q16 13 31 27l5 3q1 0 2 -0.5t1 -1.5l-2 -1q-12 -9 -23 -20q-6 -5 -13 -11.5
t-18 -6.5l-8 1q4 -5 13 -5q7 1 44 33q1 0 1.5 0.5l1.5 1.5t2 1q0 -3 -1 -4q-10 -31 -17 -62q-2 -5 -2 -10q1 -6 6 -8h6q8 8 13.5 18.5t16.5 10.5l5 -1q15 -4 31 -4l12 1q48 3 94 8.5t87 19.5l12 5l1 -4h-2q-47 -20 -130 -27l-16 -1q-44 -4 -54 -4q-16 0 -32 2l-9 1
q-7 0 -15 -12q-4 -7 -8 -11.5t-13 -4.5q4 -4 7 -4q5 0 16 17q5 12 17 12l5 -1q14 -3 36 -3q109 5 175 24q12 3 24 8q13 -53 13 -111q0 -29 -4 -58q-5 13 -20 13q-9 0 -33 -7.5t-44 -24.5q-10 -7 -13 -20q0 -9 3 -12t5 -3t4 1t2 4v1q0 10 8 16q29 22 64 27l2 1q4 0 6 -5l-5 1
q-4 0 -12 -2q-35 -9 -54 -26q-6 -4 -6 -14q4 10 14 16q25 18 57 22l3 1q2 0 2.5 -1t0.5 -3q0 -15 -9 -27q-30 -44 -76 -73q-28 -18 -61 -26l-6 -1q-14 0 -17 17v15q13 54 46 100q16 21 23 36q0 8 -7 8q-4 0 -6 -4q-15 -15 -23 -27q-21 -31 -52 -51l-3 -1q3 6 8 13.5t8 18.5
l-20 -33q0 -1 -1 -1.5t-2 -0.5v3q1 0 1 1t1 2t1 2l17 29l1 6q0 5 -6 5t-23 -22t-41 -29l-8 -1q-1 0 -4.5 1t-4.5 9q-5 14 -14 14q-4 0 -18 -7q-2 -2 -5 -3l2 6q4 8 4 16q-2 -10 -8 -20l-1 -3v3q-1 3 1 6v1q6 11 6 22q-1 6 -6 6t-9 -6q-7 -9 -18 -16t-48 -44q-7 -7 -16 -8
q-10 0 -16 4q7 23 47 59q4 2 4 9q-31 -26 -51 -60l-1 -4l1 -4q-3 4 -3 8q0 7 17 26q4 9 32 33q4 3 4 6q0 2 -1 3q-2 5 -8 5q-7 -1 -12 -4q-29 -16 -54 -36l-11 -8q0 2 0.5 3t1 1.5l1.5 1.5q20 30 24 38q1 0 1.5 1t0.5 2l-1 2q-16 -26 -35 -51l-3 -5l-1 3q0 2 1 3h1
q28 42 32 48.5t4 7.5q0 2 -1.5 3.5t-7.5 1.5q-5 -3 -9 -8l-26 -35q-26 -36 -49 -74q-1 0 -1 -1q-3 -4 -4 -9q0 -6 2.5 -8t4.5 -2q6 0 15 9l3 4q32 44 73 75q0 1 1 1.5l3 1.5q1 0 2 -1t1 -2h-1q0 -1 -1.5 -1t-1.5 -1h-1v-1q-36 -27 -64 -63l-6 -7q-10 -17 -24 -20q2 -2 5 -2
q2 0 6 2q15 13 15 17q24 32 55 58q1 1 2.5 3t7.5 4q-10 -13 -10 -27q0 -12 12 -18l10 -3q1 0 4 -3q-10 1 -18 5q4 -6 9.5 -7t5.5 -2q0 -2 -3 -4q-13 -12 -26 -27q-7 -7 -7 -13q0 -3 2.5 -6.5t6.5 -3.5q7 0 13 6q22 17 37 40q2 2 2 6q1 12 10 20l29 30q7 9 11 9q2 0 4 -4
l-3 1q-2 0 -4 -2l-34 -35q-9 -9 -10 -21q0 -4 -3 -6q-15 -24 -38 -42q-6 -5 -12 -5q-3 0 -6 2l1 -2q3 -3 7 -3q5 0 10 4q23 17 38 40q2 3 2 7q2 13 12 22l33 34q1 0 1.5 1t1.5 2h3q-6 -11 -10 -22q-2 -5 -4.5 -10t-2.5 -10q0 -9 7 -9q8 0 13 8q16 22 38 38h1q1 2 3 2h1
q2 0 3 -2h-3l-3 -3q-22 -16 -38 -38q-3 -4 -7 -6t-11 -2q4 -4 7 -4t6 2.5t6 5.5q17 24 42 40l1 3l5 -7q4 -6 9 -8h5q9 0 25 7v1l6 1q1 0 1 -1h1l-10 -5q-12 -6 -21 -6q-8 0 -11 3q3 -5 7 -7q14 0 27 6l5 2q1 -1 1 -6q1 -11 11 -11q7 0 15 7q16 14 22 17v1l4 2q3 0 4 -1v-1
l-2 -1h-1l-12 -9q-21 -18 -30 -18l-6 1q3 -5 8 -5q8 0 14 5t11.5 9.5t10.5 8.5l1 1q0 1 2 2h3q-6 -16 -10 -32q-1 -5 -2.5 -10.5t-1.5 -11.5q0 -12 5.5 -22.5t16.5 -14.5q6 -3 13 -3t24 5q91 34 140 116q-2 -5 -2 -11l-4 -5q-58 -82 -145 -107q-6 -2 -12 -2q-12 0 -23 9
q11 -12 25 -12l10 1q52 14 93 49q32 26 54 60q-42 -162 -171 -266t-300 -104zM299 658q4 4 4 18v4q2 3 2 6t1 5q17 65 18.5 68.5t2 6.5t0.5 7l-10 -38q-9 -27 -14 -55v-4q0 -12 -9 -15q3 -3 5 -3zM940 237q13 0 13 15q-7 -11 -14 -11q-4 0 -9 2q4 -6 10 -6zM458 261
q2 16 7 31l2 6q15 50 39 97q32 69 78 131q10 15 26 22q3 1 4 4q0 1 -1 1h-2q-15 -6 -24 -18q-36 -46 -62 -97q-33 -60 -55 -125q-10 -31 -12 -52zM463 225q3 0 5 3q11 11 29 47q45 99 116 181q59 67 126 127q23 22 53 36q4 2 4 4t-2.5 5t-6.5 3q-5 0 -10 -5
q-66 -44 -154 -135q-86 -86 -139 -203q-4 -8 -7.5 -16.5t-9.5 -15.5q-1 0 -2 -1.5t-3 -1.5q-6 0 -6 13q0 6 1 11q12 51 34 99q36 83 90 157q10 15 27 22q4 1 4 4q0 8 -7 9q-13 0 -24 -12t-63 -62q-82 -79 -143 -175v-1q0 -2 -3 -2q10 20 45 76l31 52l11 18q16 27 30 56
q11 23 11 48v-1q0 -24 -18 -56q-26 -48 -54 -94q-26 -41 -50 -82l-20 -37q0 8 4 14l55 94q29 46 55 94q25 40 27 75q-1 17 -12 24q-6 4 -13 4q-6 0 -13 -3q-64 -30 -97 -90q-4 -7 -4 -16q0 -14 9 -14l5 1q16 5 30 15q5 3 8.5 6t3.5 5q0 4 -4 4l-4 -1l-9 -4q-1 -1 -3 -1t-3 2
q2 3 2 3.5t1 0.5q28 36 67 60q7 4 12 4q3 0 3 -3v-2q-3 -26 -33 -77q-112 -175 -112 -216q1 -12 12 -12t21 17q25 34 49 69q41 57 89 109h1l2 3l5 -1l-1 -2q-9 -4 -13 -12q-48 -52 -102 -130q-28 -38 -28 -40q-12 -17 -23 -17l-6 1q3 -4 9 -4q10 0 18 14q6 6 30 41
q49 73 109 138l1 2q0 1 3 1l-2 -5q-8 -18 -20 -39q-29 -59 -45 -124q-2 -10 -2 -20q0 -4 1 -12.5t14 -18.5l3 -4q3 -4 5 -4zM373 471l4 1q22 7 38 22h1q2 2 2 5h-3q-14 -14 -33 -21q-1 0 -1 -1l-11 -2l-6 1q4 -5 9 -5zM720 510q3 1 3 3q0 13 8 20q2 1 2 3q0 1 -1.5 3.5
t-4.5 2.5l-4 -1q-18 -2 -21 -9.5t-9 -14.5q-1 -1 -1 -1.5v-1.5l1 -1q1 -2 4 -2q2 0 3.5 0.5t1.5 1.5l7 1q4 0 6 -2t5 -2zM722 503q2 0 3 5q-3 -2 -5 -2q-3 0 -5 2.5t-5 2.5q-4 0 -7 -1.5t-6 -2.5q-2 0 -2 -1l2 -1q1 -1 3 -1q3 0 5.5 1.5t5.5 1.5q4 0 7 -2t4 -2zM726 515
q1 4 4.5 7t3.5 8q-8 -6 -8 -15zM466 219q9 0 32 46q65 147 215 284l12 11q35 37 70 52q3 3 3 4l-2 1l-3 -1q-39 -17 -133 -115q-104 -101 -165 -236q-9 -21 -23 -38q-5 -5 -11 -5q3 -3 5 -3zM1040 415q3 1 3 4v1l-6 -2l-4 1q2 -4 5 -4h2zM954 357l2 5q13 51 43 95
q11 15 21 31l1 1q1 2 1.5 3.5t0.5 3.5q-51 -62 -69 -139z" />
    <glyph glyph-name="at" unicode="@" horiz-adv-x="1286" 
d="M657 674q-2 0 -2 2q7 15 19 27l2 1q1 0 2 -2l-1 -1q-12 -10 -18 -24q0 -1 -1 -1v-1q0 -1 -1 -1zM406 118l-4 2q54 22 108 40q170 57 345 93h2q31 7 54 7q9 0 14 -9v1l-2 1q-5 5 -12 5l-7 -1q-10 0 -19 -2q-106 -19 -210 -49q-12 -3 -23 -7q-118 -31 -246 -81zM945 635
h-28q-2 0 -2 1l4 6l10 10q24 24 24 37v2q-10 -22 -29 -39l-15 -16v3q0 2 3 5q20 20 30 33t10 26q0 6 -2 12l-1 5q0 5 3.5 8t3.5 6q-1 4 -8 4q-4 0 -8 -4q-13 -11 -23 -25l-27 -36q-3 -3 -5 -7q-1 0 -1 -0.5t-3 -3.5q0 3 1 4v1q9 24 21 51q19 47 37 95q5 14 7 30
q-17 -57 -41 -113q-16 -36 -30 -73l-1 4l1 2q0 5 4 13q20 46 38 92l6 15q13 31 21 64l1 3q0 4 -3 5t-5 1q-5 0 -16 -30q-40 -101 -46 -113q-2 -8 -9 -12q-11 -6 -21 -14l-22 -15v-1q-2 -1 -3 -1h-2h-2q0 7 3 13.5t3 14.5q-6 -18 -6 -28q-2 2 -2 10l7 24q0 4 -2 5t-3 1l-5 -1
q-15 -7 -26 -20l-30 -37v-1q-1 -2 -6 -2q-2 1 -2 3q0 18 9 41q15 37 31 73l19 42q5 12 16 19l2 1q2 1 4 3t2 5l-1 2q-7 7 -7 18q0 9 -7 9q-4 0 -7 -5.5t-11 -25.5q-3 -12 -17 -12q-34 0 -67 -5l-5 -1q-25 -3 -48 -14q-11 -5 -15 -16v-3q0 -6 7 -6q4 1 6 4q15 13 35 18
q27 6 51 9q16 4 33 4l2 1q2 0 4 -4h-7q-17 0 -72 -11q-28 -4 -43 -19q-5 -5 -10 -5l-1 -1q0 -3 4 -2q4 0 7 3q22 19 69 25q8 0 15 2q20 4 33 4q5 0 5 -2l-2 -8q-22 -58 -71 -98l-3 -1l1 11q0 -5 -5 -12v6q3 0 3 14q0 6 -4 6h-6q-25 0 -40.5 -18.5t-15.5 -19.5
q-14 -19 -29 -19l-5 1q-18 4 -25 21q-4 11 -4 22q0 27 10 60q2 7 2 13l-1 9q-1 9 -9 9q-10 0 -23 -26q-5 -11 -11 -21q-28 -57 -44 -81q-4 -7 -10 -13h-1q-1 -2 -2 -2h-2q-3 0 -4.5 3.5t-1.5 14.5q0 13 10 61q26 137 67 227q14 28 14 41q0 5 -4 7q43 8 88 8q168 0 295 -99.5
t173 -256.5h-3q-13 -5 -26 -7q-62 -13 -125 -19zM663 722q18 3 23 8l3 3l-2 2l-2 -2h-1q-9 -6 -21 -7h-6q-1 0 -1 -2t4 -2h3zM659 729q15 0 25 8l3 3q0 4 -4 4q-8 0 -25 -4q-7 -2 -7 -7q1 -3 2.5 -3.5t5.5 -0.5zM951 716q7 7 7 9t-2 2l-2 -3h-1q-2 -3 -2 -8zM843 710
q3 0 3 5h-8q-5 3 -11.5 7t-11.5 4q-4 0 -7 -3h-3l-1 -2q0 -2 5 -2v1h3q4 2 7 2t18 -9zM840 717q4 0 4 4q0 2 -2 4v1q-6 6 -7 12q0 3 2 6q0 6 -6 6l-13 -1l-13 1q-2 0 -3 -1v0l1 -7q0 -2 -0.5 -4.5t-1.5 -4.5t-1 -3q0 -4 4 -4q3 0 6 1.5t6 1.5q4 0 7 -3q12 -7 13 -7t1.5 -1
t2.5 -1zM750 655q4 19 12 36q13 34 28 66l19 43q5 12 16 19l8 7q0 1 -0.5 2t-1.5 1l-1 -1q-16 -10 -23 -27l-21 -49q-33 -68 -36 -97zM580 707l1 8q1 8 2.5 18t5 21.5t3.5 20.5q-9 -31 -12 -68zM484 679l2 12q30 169 82 281q5 10 6 19q-35 -74 -55.5 -152.5t-34.5 -159.5z
M389 505v3q0 3 2 5q29 39 71 63q5 3 10 4q2 0 4 -2v-1h-3q-14 -4 -24 -13q-32 -21 -55 -52zM901 658h-2l-1 2l1 1q5 6 9 13q5 5 20 25q0 3 3 3h2q1 0 1 -1v-1h-1q-11 -12 -20 -25q-5 -8 -11 -15zM656 48q-134 0 -246 67q54 21 108 40q193 62 354 94h4q14 4 28 4l21 -2
q4 -7 14 -7q10 2 12 13q0 9 -6 15.5t-30 6.5q-22 0 -90 -14q-14 0 -94 -21l-40 -9q-123 -30 -242 -72q-35 -13 -69 -29q-96 67 -152.5 171t-56.5 228q0 117 50.5 216t136.5 166.5t196 91.5q-6 -10 -15 -31l-13 -30q-56 -122 -115 -242q-42 -87 -103 -163q-24 -31 -58 -51
q-8 -4 -14 -4q-4 0 -10.5 2.5t-9 16.5t-2.5 29q0 35 14 80l3 12q19 73 57 139q5 10 12 17q2 2 4 2t4 -2q-7 -2 -12 -10q-43 -70 -66 -161q-10 -30 -12 -60q4 28 12 55q16 64 43 120l2 3q10 22 24 42q1 1 1 1.5t4 4.5q1 0 2.5 -0.5t1.5 -1.5q-1 -2 -1 -4t-1 -3
q-5 -37 -16 -85l-1 -6q0 -12 6 -12q4 0 5 5t1.5 13.5t2.5 16.5q21 70 21 88q0 22 -16 22q-24 0 -56 -63q-45 -93 -58 -195q-2 -12 -2 -23q0 -62 41 -65q17 0 31 9q39 24 66 60q83 104 138 239q1 3 4 5h1q1 0 1.5 -0.5t0.5 -1.5h-1q-3 -2 -4 -5l-5 -14q-106 -230 -202 -287
q-13 -8 -28 -8q-13 0 -24 8q6 -7 13 -9t14 -2q15 0 28 8q43 27 72 68q54 69 92 146l6 11q19 36 34 72q0 5 5 7l1 -1v-3q-1 -8 -4 -15q-4 -15 -9 -55q-2 -12 -2 -25q0 -12 5.5 -24t14.5 -12q5 0 12 5q13 10 22 24q14 23 26.5 47t12.5 26l3 1l1 -1v-2h-1l-15 -28
q-22 -47 -44 -68q-7 -7 -16 -7q-5 0 -11 4q7 -8 14 -8q5 0 10 4q24 17 54 83q3 7 9 14v-19q0 -21 12.5 -40t35.5 -19h7q10 0 15.5 -5t9.5 -5t8 3q12 6 24 22q9 12 11 12q3 0 6 -3.5t8 -3.5q10 0 34 24q2 3 5 5v1l4 2l2 -1l-1 -2q-6 -4 -9 -8t-6 -6q-9 -10 -22 -16
q-3 -2 -6 -2q-5 0 -8 3t-5 3t-8 -6q-11 -17 -26 -27q-5 -3 -9 -3q-6 0 -10.5 5t-11.5 5l-4 -1h-6q-15 0 -27 8q11 -11 32 -11q13 0 18.5 -5t10.5 -5q4 0 8 3q12 8 23 24q10 10 11 10q2 0 5 -3t7 -3q6 0 11 3q13 7 32 27q-1 -7 -3 -12q-5 -10 -5 -26q0 -7 2.5 -16t14.5 -9
q20 4 37 33q1 1 1.5 2.5t2.5 2.5t3 2q1 0 1.5 -0.5t0.5 -1.5v0q-1 -1 -3 -2t-3 -4q-5 -10 -12 -18t-15 -12.5t-22 -4.5q3 -4 7 -4q13 0 23 9q14 13 22 29l2 1q2 -2 2 -4v-1q2 -11 11 -11q10 0 19 9q16 13 31 27l5 3q1 0 2 -0.5t1 -1.5l-2 -1q-12 -9 -23 -20q-6 -5 -13 -11.5
t-18 -6.5l-8 1q4 -5 13 -5q7 1 44 33q1 0 1.5 0.5l1.5 1.5t2 1q0 -3 -1 -4q-10 -31 -17 -62q-2 -5 -2 -10q1 -6 6 -8h6q8 8 13.5 18.5t16.5 10.5l5 -1q15 -4 31 -4l12 1q48 3 94 8.5t87 19.5l12 5l1 -4h-2q-47 -20 -130 -27l-16 -1q-44 -4 -54 -4q-16 0 -32 2l-9 1
q-7 0 -15 -12q-4 -7 -8 -11.5t-13 -4.5q4 -4 7 -4q5 0 16 17q5 12 17 12l5 -1q14 -3 36 -3q109 5 175 24q12 3 24 8q13 -53 13 -111q0 -29 -4 -58q-5 13 -20 13q-9 0 -33 -7.5t-44 -24.5q-10 -7 -13 -20q0 -9 3 -12t5 -3t4 1t2 4v1q0 10 8 16q29 22 64 27l2 1q4 0 6 -5l-5 1
q-4 0 -12 -2q-35 -9 -54 -26q-6 -4 -6 -14q4 10 14 16q25 18 57 22l3 1q2 0 2.5 -1t0.5 -3q0 -15 -9 -27q-30 -44 -76 -73q-28 -18 -61 -26l-6 -1q-14 0 -17 17v15q13 54 46 100q16 21 23 36q0 8 -7 8q-4 0 -6 -4q-15 -15 -23 -27q-21 -31 -52 -51l-3 -1q3 6 8 13.5t8 18.5
l-20 -33q0 -1 -1 -1.5t-2 -0.5v3q1 0 1 1t1 2t1 2l17 29l1 6q0 5 -6 5t-23 -22t-41 -29l-8 -1q-1 0 -4.5 1t-4.5 9q-5 14 -14 14q-4 0 -18 -7q-2 -2 -5 -3l2 6q4 8 4 16q-2 -10 -8 -20l-1 -3v3q-1 3 1 6v1q6 11 6 22q-1 6 -6 6t-9 -6q-7 -9 -18 -16t-48 -44q-7 -7 -16 -8
q-10 0 -16 4q7 23 47 59q4 2 4 9q-31 -26 -51 -60l-1 -4l1 -4q-3 4 -3 8q0 7 17 26q4 9 32 33q4 3 4 6q0 2 -1 3q-2 5 -8 5q-7 -1 -12 -4q-29 -16 -54 -36l-11 -8q0 2 0.5 3t1 1.5l1.5 1.5q20 30 24 38q1 0 1.5 1t0.5 2l-1 2q-16 -26 -35 -51l-3 -5l-1 3q0 2 1 3h1
q28 42 32 48.5t4 7.5q0 2 -1.5 3.5t-7.5 1.5q-5 -3 -9 -8l-26 -35q-26 -36 -49 -74q-1 0 -1 -1q-3 -4 -4 -9q0 -6 2.5 -8t4.5 -2q6 0 15 9l3 4q32 44 73 75q0 1 1 1.5l3 1.5q1 0 2 -1t1 -2h-1q0 -1 -1.5 -1t-1.5 -1h-1v-1q-36 -27 -64 -63l-6 -7q-10 -17 -24 -20q2 -2 5 -2
q2 0 6 2q15 13 15 17q24 32 55 58q1 1 2.5 3t7.5 4q-10 -13 -10 -27q0 -12 12 -18l10 -3q1 0 4 -3q-10 1 -18 5q4 -6 9.5 -7t5.5 -2q0 -2 -3 -4q-13 -12 -26 -27q-7 -7 -7 -13q0 -3 2.5 -6.5t6.5 -3.5q7 0 13 6q22 17 37 40q2 2 2 6q1 12 10 20l29 30q7 9 11 9q2 0 4 -4
l-3 1q-2 0 -4 -2l-34 -35q-9 -9 -10 -21q0 -4 -3 -6q-15 -24 -38 -42q-6 -5 -12 -5q-3 0 -6 2l1 -2q3 -3 7 -3q5 0 10 4q23 17 38 40q2 3 2 7q2 13 12 22l33 34q1 0 1.5 1t1.5 2h3q-6 -11 -10 -22q-2 -5 -4.5 -10t-2.5 -10q0 -9 7 -9q8 0 13 8q16 22 38 38h1q1 2 3 2h1
q2 0 3 -2h-3l-3 -3q-22 -16 -38 -38q-3 -4 -7 -6t-11 -2q4 -4 7 -4t6 2.5t6 5.5q17 24 42 40l1 3l5 -7q4 -6 9 -8h5q9 0 25 7v1l6 1q1 0 1 -1h1l-10 -5q-12 -6 -21 -6q-8 0 -11 3q3 -5 7 -7q14 0 27 6l5 2q1 -1 1 -6q1 -11 11 -11q7 0 15 7q16 14 22 17v1l4 2q3 0 4 -1v-1
l-2 -1h-1l-12 -9q-21 -18 -30 -18l-6 1q3 -5 8 -5q8 0 14 5t11.5 9.5t10.5 8.5l1 1q0 1 2 2h3q-6 -16 -10 -32q-1 -5 -2.5 -10.5t-1.5 -11.5q0 -12 5.5 -22.5t16.5 -14.5q6 -3 13 -3t24 5q91 34 140 116q-2 -5 -2 -11l-4 -5q-58 -82 -145 -107q-6 -2 -12 -2q-12 0 -23 9
q11 -12 25 -12l10 1q52 14 93 49q32 26 54 60q-42 -162 -171 -266t-300 -104zM299 658q4 4 4 18v4q2 3 2 6t1 5q17 65 18.5 68.5t2 6.5t0.5 7l-10 -38q-9 -27 -14 -55v-4q0 -12 -9 -15q3 -3 5 -3zM940 237q13 0 13 15q-7 -11 -14 -11q-4 0 -9 2q4 -6 10 -6zM458 261
q2 16 7 31l2 6q15 50 39 97q32 69 78 131q10 15 26 22q3 1 4 4q0 1 -1 1h-2q-15 -6 -24 -18q-36 -46 -62 -97q-33 -60 -55 -125q-10 -31 -12 -52zM463 225q3 0 5 3q11 11 29 47q45 99 116 181q59 67 126 127q23 22 53 36q4 2 4 4t-2.5 5t-6.5 3q-5 0 -10 -5
q-66 -44 -154 -135q-86 -86 -139 -203q-4 -8 -7.5 -16.5t-9.5 -15.5q-1 0 -2 -1.5t-3 -1.5q-6 0 -6 13q0 6 1 11q12 51 34 99q36 83 90 157q10 15 27 22q4 1 4 4q0 8 -7 9q-13 0 -24 -12t-63 -62q-82 -79 -143 -175v-1q0 -2 -3 -2q10 20 45 76l31 52l11 18q16 27 30 56
q11 23 11 48v-1q0 -24 -18 -56q-26 -48 -54 -94q-26 -41 -50 -82l-20 -37q0 8 4 14l55 94q29 46 55 94q25 40 27 75q-1 17 -12 24q-6 4 -13 4q-6 0 -13 -3q-64 -30 -97 -90q-4 -7 -4 -16q0 -14 9 -14l5 1q16 5 30 15q5 3 8.5 6t3.5 5q0 4 -4 4l-4 -1l-9 -4q-1 -1 -3 -1t-3 2
q2 3 2 3.5t1 0.5q28 36 67 60q7 4 12 4q3 0 3 -3v-2q-3 -26 -33 -77q-112 -175 -112 -216q1 -12 12 -12t21 17q25 34 49 69q41 57 89 109h1l2 3l5 -1l-1 -2q-9 -4 -13 -12q-48 -52 -102 -130q-28 -38 -28 -40q-12 -17 -23 -17l-6 1q3 -4 9 -4q10 0 18 14q6 6 30 41
q49 73 109 138l1 2q0 1 3 1l-2 -5q-8 -18 -20 -39q-29 -59 -45 -124q-2 -10 -2 -20q0 -4 1 -12.5t14 -18.5l3 -4q3 -4 5 -4zM373 471l4 1q22 7 38 22h1q2 2 2 5h-3q-14 -14 -33 -21q-1 0 -1 -1l-11 -2l-6 1q4 -5 9 -5zM720 510q3 1 3 3q0 13 8 20q2 1 2 3q0 1 -1.5 3.5
t-4.5 2.5l-4 -1q-18 -2 -21 -9.5t-9 -14.5q-1 -1 -1 -1.5v-1.5l1 -1q1 -2 4 -2q2 0 3.5 0.5t1.5 1.5l7 1q4 0 6 -2t5 -2zM722 503q2 0 3 5q-3 -2 -5 -2q-3 0 -5 2.5t-5 2.5q-4 0 -7 -1.5t-6 -2.5q-2 0 -2 -1l2 -1q1 -1 3 -1q3 0 5.5 1.5t5.5 1.5q4 0 7 -2t4 -2zM726 515
q1 4 4.5 7t3.5 8q-8 -6 -8 -15zM466 219q9 0 32 46q65 147 215 284l12 11q35 37 70 52q3 3 3 4l-2 1l-3 -1q-39 -17 -133 -115q-104 -101 -165 -236q-9 -21 -23 -38q-5 -5 -11 -5q3 -3 5 -3zM1040 415q3 1 3 4v1l-6 -2l-4 1q2 -4 5 -4h2zM954 357l2 5q13 51 43 95
q11 15 21 31l1 1q1 2 1.5 3.5t0.5 3.5q-51 -62 -69 -139z" />
    <glyph glyph-name="A" unicode="A" horiz-adv-x="1047" 
d="M1037 0h-243q-9 0 -10 10q0 9 10 10q25 0 48.5 12.5t23.5 40.5q0 13 -156 544h-370l-154 -527q-2 -8 -2 -16q0 -28 23.5 -41t48.5 -13q9 0 10 -10q0 -9 -10 -10h-182q-4 0 -7 3t-3 7q0 5 3 7.5t7 2.5q29 0 47 25t26 56l387 1332h43l382 -1316q9 -32 30.5 -64.5
t47.5 -32.5q4 0 7 -2.5t3 -7.5q0 -4 -3 -7t-7 -3zM699 657l-174 597l-174 -597h348z" />
    <glyph glyph-name="B" unicode="B" horiz-adv-x="979" 
d="M612 0h-536q-9 0 -10 10q0 9 10 10q29 0 49.5 20.5t20.5 49.5v1253q0 29 -20.5 49.5t-49.5 20.5q-9 0 -10 10q0 4 3 7t7 3h498q101 0 175 -47t114.5 -126t40.5 -175q0 -106 -49.5 -191t-137.5 -127v-5q123 -36 192.5 -138t69.5 -236q0 -107 -45.5 -195t-127.5 -140.5
t-194 -52.5zM544 776q79 0 137.5 41t90.5 111.5t32 156.5t-32 156t-90.5 111t-137.5 41h-299v-617h299zM572 40q88 0 152.5 47t100 126t35.5 175t-35.5 175t-100 126t-152.5 47h-327v-696h327z" />
    <glyph glyph-name="C" unicode="C" horiz-adv-x="1202" 
d="M793 -20q-159 0 -287.5 57.5t-220 158t-140.5 234t-49 286.5t49 286.5t140.5 234t220 158t287.5 57.5q197 0 367 -130q11 0 11 44q0 5 3 8t7 3t7 -3t3 -8v-228q0 -4 -3 -7t-7 -3q-9 0 -10 10q0 65 -56 129t-142.5 106.5t-179.5 42.5q-175 0 -305 -94.5t-201 -253
t-71 -352.5q0 -193 73.5 -352t206.5 -253.5t311 -94.5q106 0 200.5 33.5t165.5 82.5q7 4 13 4q15 0 16 -17q0 -9 -11 -19q-171 -120 -398 -120z" />
    <glyph glyph-name="D" unicode="D" horiz-adv-x="1150" 
d="M445 0h-369q-9 0 -10 10q0 9 10 10q29 0 49.5 20.5t20.5 49.5v1253q0 29 -20.5 49.5t-49.5 20.5q-9 0 -10 10q0 4 3 7t7 3h369q212 0 368 -94.5t241.5 -256.5t85.5 -366q0 -203 -85.5 -365t-241.5 -256.5t-368 -94.5zM445 36q175 0 304.5 89.5t200.5 243.5t71 347
q0 194 -71 348t-200.5 243.5t-304.5 89.5h-200v-1361h200z" />
    <glyph glyph-name="E" unicode="E" horiz-adv-x="842" 
d="M788 0h-713q-9 0 -9 10t9 10q29 0 49.5 20.5t20.5 49.5v1253q0 29 -20.5 49.5t-49.5 20.5q-9 0 -9 10q0 4 2.5 7t6.5 3h673l54 -201q0 -6 -2.5 -7.5t-7.5 -2.5q-6 0 -9 7q-10 38 -40.5 75.5t-77 63t-105.5 25.5h-316v-617h368q29 0 49.5 20.5t20.5 49.5q0 4 3 7t7 3
q5 0 7.5 -3t2.5 -7v-179q0 -9 -10 -10q-4 0 -7 3t-3 7q0 29 -20.5 49t-49.5 20h-368v-696h355q59 0 106 25.5t77.5 63t40.5 75.5q2 7 8 7q5 -1 7.5 -2.5t2.5 -9.5l-24 -86z" />
    <glyph glyph-name="F" unicode="F" horiz-adv-x="842" 
d="M314 0h-239q-9 0 -9 10q0 4 2.5 7t6.5 3q29 0 49.5 20.5t20.5 48.5v1254q0 29 -20.5 49t-49.5 20q-4 0 -6.5 3t-2.5 7q0 5 2.5 8t6.5 3h713l32 -117l21 -85q0 -9 -9 -9q-8 0 -9 6q-10 38 -40.5 76t-77 63.5t-105.5 25.5h-355v-617h368q29 0 49 20.5t20 49.5q0 4 3 6.5
t7 2.5q10 0 10 -9v-180q0 -4 -2.5 -7t-7.5 -3q-4 0 -7 3t-3 7q0 29 -20 49.5t-49 20.5h-368v-647q0 -28 20.5 -48.5t48.5 -20.5q5 0 7.5 -3t2.5 -7q0 -9 -10 -10z" />
    <glyph glyph-name="G" unicode="G" horiz-adv-x="1230" 
d="M792 -20q-159 0 -287 57.5t-219.5 158t-140.5 234t-49 286.5t49 286.5t140.5 234t219.5 158t287 57.5q84 0 149.5 -19t114.5 -47.5t82 -58.5q6 0 9 12.5t3 26.5q0 5 3 8t7 3q5 0 7.5 -3t2.5 -8v-228q0 -9 -10 -10q-4 0 -7 3t-3 7q0 78 -50 141t-131.5 100t-176.5 37
q-175 0 -305 -94.5t-201 -253t-71 -352.5q0 -193 71 -352t201 -253.5t305 -94.5q158 0 279 78v602h-289q-28 0 -48.5 -20t-20.5 -49q0 -4 -3 -7t-7 -3q-9 0 -10 10v89q0 8 6 14t14 6h527q9 0 10 -10q0 -9 -10 -10q-29 0 -49.5 -20t-20.5 -49v-561q-165 -106 -378 -106z" />
    <glyph glyph-name="H" unicode="H" horiz-adv-x="1021" 
d="M1011 0h-239q-9 0 -9 10t9 10q29 0 49.5 20.5t20.5 49.5v646h-597v-646q0 -29 20.5 -49.5t49.5 -20.5q4 0 7 -2.5t3 -7.5q0 -4 -3 -7t-7 -3h-239q-9 0 -10 10q0 9 10 10q29 0 49.5 20.5t20.5 49.5v1253q0 29 -20.5 49.5t-49.5 20.5q-9 0 -10 10q0 4 3 7t7 3h239q4 0 7 -3
t3 -7t-3 -7t-7 -3q-29 0 -49.5 -20.5t-20.5 -49.5v-567h597v567q0 29 -20.5 49.5t-49.5 20.5q-9 0 -9 10q0 4 2.5 7t6.5 3h239q5 0 7.5 -3t2.5 -7q0 -9 -10 -10q-28 0 -49 -20.5t-21 -49.5v-1253q0 -29 21 -49.5t49 -20.5q9 0 10 -10q0 -9 -10 -10z" />
    <glyph glyph-name="I" unicode="I" horiz-adv-x="325" 
d="M315 0h-239q-9 0 -10 10q0 9 10 10q29 0 49.5 20.5t20.5 49.5v1253q0 29 -20.5 49.5t-49.5 20.5q-9 0 -10 10q0 4 3 7t7 3h239q4 0 7 -3t3 -7t-3 -7t-7 -3q-29 0 -49.5 -20.5t-20.5 -49.5v-1253q0 -29 20.5 -49.5t49.5 -20.5q4 0 7 -2.5t3 -7.5q0 -4 -3 -7t-7 -3z" />
    <glyph glyph-name="J" unicode="J" horiz-adv-x="323" 
d="M-86 -348q-3 0 -5 3t-2 7q0 10 7 10q79 0 130 43.5t75.5 117.5t24.5 167v1343q0 29 -20 49.5t-49 20.5q-4 0 -7 3t-3 7q0 9 10 10h238q9 0 10 -10q0 -4 -2.5 -7t-7.5 -3q-28 0 -48.5 -20.5t-20.5 -49.5v-1301q0 -106 -41 -194.5t-115 -142t-174 -53.5z" />
    <glyph glyph-name="K" unicode="K" horiz-adv-x="907" 
d="M897 0h-227q-4 0 -7 3t-3 7q0 5 3 7.5t7 2.5q23 0 39 13.5t16 34.5q0 9 -3 18l-345 775l-132 -164v-607q0 -29 20.5 -49.5t48.5 -20.5q9 0 10 -10q0 -9 -10 -10h-238q-9 0 -10 10q0 9 10 10q29 0 49 20.5t20 49.5v1253q0 29 -20 49.5t-49 20.5q-9 0 -10 10q0 4 3 7t7 3
h238q5 0 7.5 -3t2.5 -7q0 -9 -10 -10q-28 0 -48.5 -20.5t-20.5 -49.5v-570l461 570q16 22 16 38q0 29 -39 32q-9 0 -10 10q0 4 3 7t7 3h185q4 0 7 -3t3 -7t-3 -7t-7 -3q-28 0 -49 -15t-52 -55l-324 -401l377 -853q30 -69 77 -69q9 0 10 -10q0 -9 -10 -10z" />
    <glyph glyph-name="L" unicode="L" horiz-adv-x="842" 
d="M788 0h-713q-9 0 -9 10t9 10q29 0 49.5 20.5t20.5 49.5v1253q0 29 -20.5 49.5t-49.5 20.5q-9 0 -9 10q0 4 2.5 7t6.5 3h239q5 0 7.5 -3t2.5 -7q0 -9 -10 -10q-28 0 -48.5 -20.5t-20.5 -49.5v-1303h355q59 0 105.5 25.5t77 63t40.5 75.5q2 7 8 7q5 -1 7.5 -2.5t2.5 -6.5
l-21 -85z" />
    <glyph glyph-name="M" unicode="M" horiz-adv-x="1220" 
d="M1210 0h-239q-4 0 -7 3t-3 7q0 5 3 7.5t7 2.5q29 0 49.5 20.5t20.5 49.5v1207l-408 -1297h-40l-408 1305v-1215q0 -29 20.5 -49.5t49.5 -20.5q9 0 10 -10q0 -9 -10 -10h-179q-9 0 -10 10q0 9 10 10q29 0 49.5 20.5t20.5 49.5v1253q0 29 -20.5 49.5t-49.5 20.5
q-9 0 -10 10q0 4 3 7t7 3h169l398 -1274l398 1274h169q5 0 7.5 -3t2.5 -7q0 -9 -10 -10q-29 0 -49.5 -20.5t-20.5 -49.5v-1253q0 -29 20.5 -49.5t49.5 -20.5q9 0 10 -10q0 -9 -10 -10z" />
    <glyph glyph-name="N" unicode="N" horiz-adv-x="949" 
d="M870 0h-80l-605 1323v-1233q0 -29 20.5 -49.5t49.5 -20.5q9 0 10 -10q0 -9 -10 -10h-179q-9 0 -10 10q0 9 10 10q29 0 49.5 20.5t20.5 49.5v1253q0 29 -20.5 49.5t-49.5 20.5q-9 0 -10 10q0 4 3 7t7 3h169l585 -1280v1190q0 29 -20.5 49.5t-49.5 20.5q-4 0 -7 3t-3 7t3 7
t7 3h179q5 0 7.5 -3t2.5 -7q0 -9 -10 -10q-28 0 -48.5 -20.5t-20.5 -49.5v-1343z" />
    <glyph glyph-name="O" unicode="O" horiz-adv-x="1519" 
d="M792 -20q-159 0 -287 57.5t-219.5 158t-140.5 234t-49 286.5t49 286.5t140.5 234t219.5 158t287 57.5t287.5 -57.5t220 -158t140.5 -234t49 -286.5t-49 -286.5t-140.5 -234t-220 -158t-287.5 -57.5zM792 16q176 0 305.5 94.5t200.5 253.5t71 352q0 194 -71 352.5
t-200.5 253t-305.5 94.5q-175 0 -305 -94.5t-201 -253t-71 -352.5q0 -193 71 -352t201 -253.5t305 -94.5z" />
    <glyph glyph-name="P" unicode="P" horiz-adv-x="927" 
d="M315 0h-239q-9 0 -10 10q0 9 10 10q29 0 49.5 20.5t20.5 49.5v1253q0 29 -20.5 49.5t-49.5 20.5q-9 0 -10 10q0 4 3 7t7 3h498q110 0 188 -50t119 -133.5t41 -184.5t-41 -185t-119 -133.5t-188 -49.5h-329v-607q0 -29 20.5 -49.5t49.5 -20.5q9 0 9 -10t-9 -10zM544 736
q119 0 198.5 92t79.5 237t-79.5 236.5t-198.5 91.5h-299v-657h299z" />
    <glyph glyph-name="Q" unicode="Q" horiz-adv-x="1519" 
d="M1478 -120q-157 0 -321 198q-155 -98 -364 -98q-159 0 -287.5 57.5t-220 158t-140.5 234t-49 286.5q0 152 49 285.5t140.5 234.5t220 158.5t287.5 57.5t287 -57.5t219.5 -158.5t140.5 -234.5t49 -285.5q0 -173 -63 -321t-179 -251q63 -92 92 -132q37 -51 72 -82t67 -31
q11 0 11 -9q0 -10 -11 -10zM793 15q184 0 326 111q-59 78 -111 155q-42 63 -80.5 114.5t-73 83t-66.5 31.5q-12 0 -12 10q0 9 12 9q85 0 158 -47t137 -119.5t120 -153.5q166 207 166 507q0 194 -71 352.5t-200.5 253t-304.5 94.5t-305 -94.5t-201.5 -253t-71.5 -352.5
q0 -193 71.5 -352.5t201.5 -254t305 -94.5z" />
    <glyph glyph-name="R" unicode="R" horiz-adv-x="1062" 
d="M1052 0h-227q-4 0 -7 3t-3 7t3 7t7 3q23 0 39 13.5t16 33.5q-1 11 -3 16.5t-324 613.5h-308v-607q0 -29 20.5 -49.5t49.5 -20.5q4 0 7 -3t3 -7t-3 -7t-7 -3h-239q-9 0 -9 11q0 4 3 6.5t7 2.5q29 0 49 20.5t20 49.5v1253q0 29 -20 49.5t-49 20.5q-4 0 -7 2.5t-3 6.5
q0 11 9 11h499q110 0 187.5 -50t118.5 -133.5t41 -184.5q0 -124 -61 -220t-176 -133q-18 -6 -35 -9l316 -597q16 -34 36.5 -60t49.5 -26q4 0 7 -3t3 -7q0 -9 -10 -10zM545 736q119 0 198.5 92t79.5 237t-79.5 236.5t-198.5 91.5h-299v-657h299z" />
    <glyph glyph-name="S" unicode="S" horiz-adv-x="873" 
d="M434 -20q-82 0 -146.5 23t-112.5 58.5t-81 74.5q-8 0 -8 -33q0 -9 -10 -10q-9 0 -10 10v228q0 9 10 10q9 0 10 -10q0 -80 37 -151.5t114.5 -115.5t199.5 -44q104 0 175.5 50.5t108 126.5t36.5 151q0 80 -37.5 140t-95 108t-121.5 91l-31 22q-30 21 -62 42
q-71 47 -135 98.5t-105 116.5t-41 154q0 94 48 169t128.5 119t176.5 44q67 0 120.5 -17.5t97.5 -46t80 -61.5q5 0 8.5 11.5t3.5 27.5q0 5 3 8t7 3t7 -3t3 -8v-228q0 -4 -3 -7t-7 -3q-9 0 -10 10q0 69 -36 132t-103 103t-159 40q-77 0 -138.5 -34t-97 -89.5t-35.5 -119.5
q0 -68 31.5 -119t90 -97.5t139.5 -101.5l59 -42q110 -77 183.5 -144.5t110 -140t36.5 -168.5q0 -102 -60.5 -187.5t-160 -137.5t-218.5 -52z" />
    <glyph glyph-name="T" unicode="T" horiz-adv-x="948" 
d="M626 0h-238q-9 0 -10 10q0 9 10 10q29 0 49 20.5t20 49.5v1303h-149q-58 0 -105 -25.5t-77.5 -63t-40.5 -75.5q-3 -7 -9 -7q-10 1 -10 8l54 203h774l54 -201q0 -9 -10 -10q-7 0 -9 7q-10 38 -40.5 75.5t-77 63t-105.5 25.5h-149v-1303q0 -29 20.5 -49.5t48.5 -20.5
q9 0 10 -10q0 -9 -10 -10z" />
    <glyph glyph-name="U" unicode="U" horiz-adv-x="961" 
d="M514 -20q-117 0 -200 58q-168 118 -168 499v806q0 29 -20.5 49.5t-49.5 20.5q-10 0 -10 9t10 10h239q9 0 9 -10q0 -4 -2.5 -6.5t-6.5 -2.5q-29 0 -49.5 -20.5t-20.5 -49.5v-806q0 -193 37.5 -304t106.5 -157.5t161 -46.5q82 0 148 51.5t105 163.5t39 293v806
q0 29 -20.5 49.5t-49.5 20.5q-4 0 -7 2.5t-3 6.5q0 5 3 7.5t7 2.5h179q9 0 10 -10q0 -9 -10 -9q-28 0 -48.5 -20.5t-20.5 -49.5v-806q0 -195 -43 -318q-84 -239 -325 -239z" />
    <glyph glyph-name="V" unicode="V" horiz-adv-x="1049" 
d="M579 0h-43l-382 1315q-10 32 -31 65t-47 33q-10 0 -10 10q0 5 3 7.5t129 2.5q125 0 128 -2.5t3 -7.5q0 -9 -10 -10q-25 0 -48.5 -13t-23.5 -40q0 -6 341 -1181q341 1174 341 1180q0 29 -23 41.5t-49 12.5q-9 0 -10 10q0 5 2.5 7.5t98.5 2.5q95 0 98 -2.5t3 -7.5
q0 -10 -10 -10q-52 0 -73 -81z" />
    <glyph glyph-name="W" unicode="W" horiz-adv-x="1566" 
d="M1096 0h-43l-237 816l-237 -816h-43l-382 1315q-10 32 -31 64.5t-47 32.5q-10 0 -10 10q0 5 3 8t129 3q125 0 128 -3t3 -8q0 -9 -10 -9q-25 0 -49 -13t-24 -40q0 -7 342 -1181l206 711l-123 425q-10 32 -31 65t-47 33q-10 0 -10 9q0 5 3 8t129 3q125 0 128 -3t3 -8
q0 -9 -10 -9q-25 0 -48.5 -13t-23.5 -40q0 -7 83 -291q81 282 82 291q0 27 -23.5 39.5t-49.5 12.5q-9 0 -9 10q0 5 2.5 8t189.5 3q9 0 9 -11q0 -9 -9 -9q-52 0 -73 -82l-98 -336l237 -816q342 1174 342 1181q0 27 -23.5 40t-49.5 13q-10 0 -10 9q0 5 2.5 8t98.5 3
q95 0 98 -3t3 -8q0 -9 -10 -9q-52 0 -73 -82z" />
    <glyph glyph-name="X" unicode="X" horiz-adv-x="988" 
d="M978 0h-239q-9 0 -10 10q0 9 10 10q23 0 40 13t17 33q0 11 -6 23l-280 586l-307 -585q-6 -12 -6 -23q0 -21 17.5 -34t40.5 -13q4 0 7 -2.5t3 -7.5q0 -4 -3 -7t-7 -3h-179q-4 0 -7 3t-3 7q0 5 3 7.5t7 2.5q47 0 82 70l330 629l-299 624q-31 70 -78 70q-9 0 -9 10
q0 4 2.5 7t6.5 3h239q5 0 7.5 -3t2.5 -7q0 -9 -10 -10q-23 0 -40 -13t-17 -34q0 -10 6 -23l247 -514l269 514q6 13 6 23q0 21 -17 34t-40 13q-4 0 -7 3t-3 7t3 7t7 3h179q4 0 7 -3t3 -7t-3 -7t-7 -3q-47 0 -82 -70l-294 -559l333 -695q32 -69 78 -69q4 0 7 -2.5t3 -7.5
q0 -4 -3 -7t-7 -3z" />
    <glyph glyph-name="Y" unicode="Y" horiz-adv-x="956" 
d="M631 0h-239q-9 0 -10 10q0 9 10 10q29 0 49 20.5t20 49.5v646l-303 607q-33 70 -82 70q-9 0 -10 10q0 4 3 7t7 3h236q5 0 7.5 -3t2.5 -7q0 -9 -10 -10q-22 0 -39.5 -13t-17.5 -34q0 -10 6 -23l282 -563l278 563q6 13 6 23q0 20 -17.5 33.5t-40.5 13.5q-9 0 -9 10
q0 4 2.5 7t6.5 3h177q5 0 7.5 -3t2.5 -7q0 -9 -10 -10q-47 0 -82 -70l-303 -607v-646q0 -29 20.5 -49.5t49.5 -20.5q9 0 9 -10t-9 -10z" />
    <glyph glyph-name="Z" unicode="Z" horiz-adv-x="880" 
d="M827 0h-761v40l684 1353h-439q-59 0 -105.5 -25.5t-77 -63.5t-41.5 -76q-1 -6 -9 -6q-5 0 -7 2t-2 9q16 61 24 89.5t29 110.5h740v-40l-685 -1353h470q86 6 142.5 56t72.5 108q2 7 8 7q5 -1 7.5 -2.5t2.5 -9.5l-24 -86z" />
    <glyph glyph-name="bracketleft" unicode="[" horiz-adv-x="364" 
d="M364 -100h-298v1632h298v-40h-199v-1552h199v-40z" />
    <glyph glyph-name="backslash" unicode="\" horiz-adv-x="504" 
d="M504 0h-40l-398 1433h40z" />
    <glyph glyph-name="bracketright" unicode="]" horiz-adv-x="364" 
d="M364 -100h-298v40h199v1552h-199v40h298v-1632z" />
    <glyph glyph-name="asciicircum" unicode="^" horiz-adv-x="461" 
d="M409 844h-40l-139 435l-139 -435h-40l159 497h40z" />
    <glyph glyph-name="underscore" unicode="_" horiz-adv-x="663" 
d="M663 -50h-597v60h597v-60z" />
    <glyph glyph-name="grave" unicode="`" horiz-adv-x="237" 
d="M237 1100h-33l-135 176q-3 4 -3 8q0 11 15 17.5t34 6.5q18 0 34.5 -7.5t23.5 -24.5z" />
    <glyph glyph-name="a" unicode="a" 
d="M893 0h-226q-4 0 -7 3t-3 7t3 7t7 3q26 0 49.5 12.5t23.5 40.5q0 7 -126 441h-309l-123 -424q-3 -9 -3 -18q0 -27 23.5 -39.5t48.5 -12.5q5 0 7.5 -3t2.5 -7q0 -9 -10 -10h-175q-4 0 -7 3t-3 7t3 7t7 3q29 0 47 25t26 56l318 1093h35l313 -1077q9 -32 30.5 -64.5
t47.5 -32.5q4 0 7 -3t3 -7t-3 -7t-7 -3zM604 547l-145 498l-144 -498h289z" />
    <glyph glyph-name="b" unicode="b" horiz-adv-x="840" 
d="M535 0h-459q-9 0 -10 10q0 4 3 7t7 3q29 0 49.5 20.5t20.5 48.5v1015q0 29 -20.5 49.5t-49.5 20.5q-9 0 -10 10q0 4 3 7t7 3h427q84 0 145.5 -39t95 -105t33.5 -147q0 -88 -41 -158.5t-114 -105.5v-4q102 -30 160 -115t58 -197q0 -89 -37.5 -162.5t-106 -117
t-161.5 -43.5zM478 647q99 0 158 74.5t59 181.5q0 108 -59 182.5t-158 74.5h-249v-513h249zM502 33q73 0 126.5 39t83 105t29.5 146q0 81 -29.5 146.5t-83 104.5t-126.5 39h-273v-580h273z" />
    <glyph glyph-name="c" unicode="c" horiz-adv-x="1022" 
d="M679 -20q-177 0 -308 83t-203 223t-72 310q0 171 72 311t203 223t308 83q164 0 307 -109q10 0 10 37q0 9 10 9t10 -9v-191q0 -9 -10 -10q-9 0 -10 10q0 54 -47 108t-119.5 89.5t-150.5 35.5q-147 0 -255.5 -79t-168 -212t-59.5 -296q0 -162 61.5 -295t173 -212t260.5 -79
q89 0 168.5 28t138.5 69q7 4 11 4q6 0 9.5 -4.5t3.5 -10.5q0 -7 -9 -16q-144 -100 -334 -100z" />
    <glyph glyph-name="d" unicode="d" horiz-adv-x="985" 
d="M395 0h-319q-9 0 -10 10q0 9 10 10q29 0 49.5 20.5t20.5 49.5v1014q0 29 -20.5 49.5t-49.5 20.5q-4 0 -7 3t-3 7q0 9 10 10h319q176 0 306.5 -78.5t202 -213.5t71.5 -305q0 -169 -71.5 -304.5t-202 -214t-306.5 -78.5zM395 30q146 0 254 74.5t167 203t59 289.5t-59 289.5
t-167 203t-254 74.5h-167v-1134h167z" />
    <glyph glyph-name="e" unicode="e" horiz-adv-x="732" 
d="M681 0h-606q-9 0 -9 10q0 4 2.5 7t6.5 3q29 0 49.5 20.5t20.5 49.5v1014q0 29 -20.5 49.5t-49.5 20.5q-9 0 -9 10q0 4 2.5 7t6.5 3h573l28 -104q19 -77 24 -92q0 -7 -10 -8q-6 0 -9 7q-10 38 -40.5 75.5t-77 63t-105.5 25.5h-230v-514h292q29 0 49.5 20.5t20.5 48.5
q0 10 9 10t10 -10v-172q0 -9 -10 -10q-9 0 -9 10q0 29 -20.5 49.5t-49.5 20.5h-292v-581h263q59 0 105.5 25.5t77 63t40.5 75.5q2 7 8 7q5 -1 7.5 -2.5t2.5 -9.5z" />
    <glyph glyph-name="f" unicode="f" horiz-adv-x="732" 
d="M298 0h-223q-9 0 -9 10q0 4 2.5 7t6.5 3q29 0 49.5 20.5t20.5 49.5v1014q0 29 -20.5 49.5t-49.5 20.5q-9 0 -9 10q0 4 2.5 7t6.5 3h606l28 -104l23 -92q0 -5 -10 -8q-6 0 -8 7q-10 38 -40.5 75.5t-77 63t-105.5 25.5h-263v-514h292q29 0 49.5 20.5t20.5 48.5q0 10 9 10
t10 -10v-172q0 -9 -10 -10q-9 0 -9 10q0 29 -20.5 49.5t-49.5 20.5h-292v-524q0 -29 20.5 -49.5t49.5 -20.5q4 0 7 -3t3 -7t-3 -7t-7 -3z" />
    <glyph glyph-name="g" unicode="g" horiz-adv-x="1057" 
d="M680 0q-177 0 -308.5 83.5t-203.5 224t-72 310.5q0 171 72 311t203.5 223t308.5 83q176 0 288 -105q6 0 7.5 9t1.5 24q0 4 3 6.5t7 2.5t7 -2.5t3 -6.5v-191q0 -4 -2.5 -7.5t-7.5 -3.5q-4 0 -7 3.5t-3 7.5q0 59 -45 112.5t-113 87t-139 33.5q-147 0 -255.5 -79
t-168.5 -212.5t-60 -295.5t60 -295.5t168.5 -213t255.5 -79.5q132 0 234 65v506h-242q-23 0 -39.5 -16t-16.5 -41q0 -10 -11 -10q-8 0 -8 8v76q0 7 4.5 11.5t11.5 4.5h454q4 0 7 -2.5t3 -7.5q0 -4 -3 -7t-7 -3q-29 0 -49.5 -20t-20.5 -49v-456q-134 -89 -317 -89z" />
    <glyph glyph-name="h" unicode="h" horiz-adv-x="888" 
d="M878 0h-222q-4 0 -7 3t-3 7t3 7t7 3q29 0 49.5 20.5t20.5 48.5v524h-498v-524q0 -28 21 -48.5t49 -20.5q4 0 7 -3t3 -7t-3 -7t-7 -3h-222q-9 0 -10 10q0 4 3 7t7 3q29 0 49.5 20.5t20.5 48.5v1015q0 29 -20.5 49.5t-49.5 20.5q-9 0 -10 10q0 9 10 9h222q4 0 7 -2.5
t3 -6.5t-3 -7t-7 -3q-28 0 -49 -20.5t-21 -49.5v-457h498v457q0 29 -20.5 49.5t-49.5 20.5q-4 0 -7 3t-3 7t3 6.5t7 2.5h222q10 0 10 -9t-10 -10q-28 0 -48.5 -20.5t-20.5 -49.5v-1015q0 -28 20.5 -48.5t48.5 -20.5q5 0 7.5 -3t2.5 -7q0 -9 -10 -10z" />
    <glyph glyph-name="i" unicode="i" horiz-adv-x="308" 
d="M298 0h-222q-9 0 -10 10q0 9 10 10q29 0 49.5 20.5t20.5 49.5v1014q0 29 -20.5 49.5t-49.5 20.5q-4 0 -7 3t-3 7q0 9 10 10h222q9 0 10 -10q0 -4 -2.5 -7t-7.5 -3q-28 0 -48.5 -20.5t-20.5 -49.5v-1014q0 -29 20.5 -49.5t48.5 -20.5q9 0 10 -10q0 -9 -10 -10z" />
    <glyph glyph-name="j" unicode="j" horiz-adv-x="307" 
d="M-47 -293q-8 0 -8 10t8 10q66 0 108.5 35.5t63 96.5t20.5 139v1106q0 29 -20.5 49t-49.5 20q-4 0 -7 3t-3 7q0 5 3 7.5t7 2.5h222q9 0 10 -10q0 -4 -2.5 -7t-7.5 -3q-28 0 -48.5 -20t-20.5 -49v-1072q0 -88 -34 -162t-95.5 -118.5t-145.5 -44.5z" />
    <glyph glyph-name="k" unicode="k" horiz-adv-x="788" 
d="M298 0h-223q-4 0 -6.5 3t-2.5 7q0 10 9 10q29 0 49.5 20.5t20.5 49.5v1015q0 29 -20.5 49t-49.5 20q-4 0 -6.5 3t-2.5 7q0 10 9 10h223q9 0 9 -10q0 -4 -2.5 -7t-6.5 -3q-29 0 -49.5 -20t-20.5 -49v-461l372 461q16 22 16 38q0 27 -39 31q-4 0 -7 3t-3 7q0 5 3 7.5t7 2.5
h175q9 0 10 -10q0 -4 -2.5 -7t-7.5 -3q-29 0 -49 -15t-51 -54l-259 -320l307 -695q31 -70 78 -70q9 0 10 -10q0 -9 -10 -9h-211q-4 0 -7 2.5t-3 6.5q0 5 3 7.5t7 2.5q23 0 39.5 13.5t16.5 33.5q0 9 -4 19l-281 631l-110 -136v-491q0 -29 20.5 -49.5t49.5 -20.5q9 0 9 -10
q0 -4 -2.5 -7t-6.5 -3z" />
    <glyph glyph-name="l" unicode="l" horiz-adv-x="733" 
d="M681 0h-606q-4 0 -6.5 3t-2.5 7q0 10 9 10q29 0 49.5 20.5t20.5 49.5v1015q0 29 -20.5 49t-49.5 20q-4 0 -6.5 3t-2.5 7q0 10 9 10h223q9 0 9 -10q0 -4 -2.5 -7t-6.5 -3q-29 0 -49.5 -20t-20.5 -49v-1071h263q59 0 105.5 25.5t77 63t40.5 75.5q2 7 8 7q6 -1 8 -3t2 -9
l-25 -90q-8 -25 -26 -103z" />
    <glyph glyph-name="m" unicode="m" horiz-adv-x="1054" 
d="M1044 0h-222q-4 0 -7 3t-3 7q0 5 3 7.5t7 2.5q29 0 49.5 20.5t20.5 49.5v991l-340 -1081h-33l-340 1088v-998q0 -29 20.5 -49.5t48.5 -20.5q9 0 10 -10q0 -4 -2.5 -7t-7.5 -3h-172q-4 0 -7 3t-3 7q0 9 10 10q29 0 49.5 20.5t20.5 49.5v1015q0 29 -20.5 49t-49.5 20
q-4 0 -7 3t-3 7q0 9 10 10h153l331 -1061l332 1061h152q9 0 10 -10q0 -4 -2.5 -7t-7.5 -3q-28 0 -48.5 -20t-20.5 -49v-1015q0 -29 20.5 -49.5t48.5 -20.5q9 0 10 -10q0 -4 -2.5 -7t-7.5 -3z" />
    <glyph glyph-name="n" unicode="n" horiz-adv-x="828" 
d="M749 0h-66l-504 1103v-1013q0 -29 20.5 -49.5t48.5 -20.5q9 0 10 -10q0 -4 -2.5 -7t-7.5 -3h-172q-4 0 -7 3t-3 7q0 9 10 10q29 0 49.5 20.5t20.5 49.5v1015q0 29 -20.5 49t-49.5 20q-4 0 -7 3t-3 7q0 9 10 10h152l488 -1066v977q0 29 -20.5 49t-49.5 20q-4 0 -7 3t-3 7
q0 5 3 7.5t7 2.5h173q9 0 9 -10q0 -4 -2.5 -7t-6.5 -3q-29 0 -49.5 -20t-20.5 -49v-1105z" />
    <glyph glyph-name="o" unicode="o" horiz-adv-x="1280" 
d="M673 -20q-175 0 -305 83t-201 223.5t-71 310.5q0 171 71 311t201 223t305 83q176 0 305.5 -83t200.5 -223t71 -311q0 -170 -71 -310.5t-200.5 -223.5t-305.5 -83zM673 10q145 0 252.5 79.5t166.5 212.5t59 295t-59 295.5t-166.5 212.5t-252.5 79t-252.5 -79
t-166.5 -212.5t-59 -295.5t59 -295t166.5 -212.5t252.5 -79.5z" />
    <glyph glyph-name="p" unicode="p" horiz-adv-x="802" 
d="M298 0h-222q-9 0 -10 10q0 4 3 7t7 3q29 0 49.5 20.5t20.5 49.5v1014q0 29 -20.5 49.5t-49.5 20.5q-9 0 -10 10q0 9 10 10h427q92 0 156.5 -41.5t98.5 -111t34 -154.5q0 -84 -34 -153.5t-98.5 -111.5t-156.5 -42h-274v-490q0 -29 20.5 -49.5t48.5 -20.5q5 0 7.5 -3
t2.5 -7q0 -9 -10 -10zM478 614q99 0 165.5 76t66.5 197t-66.5 197.5t-165.5 76.5h-249v-547h249z" />
    <glyph glyph-name="q" unicode="q" horiz-adv-x="1288" 
d="M1249 -91q-77 0 -143.5 47t-124.5 118q-136 -86 -308 -86q-175 0 -305 83t-201 223.5t-71 310.5q0 171 71 311t201 223t305 83q176 0 305.5 -83t200.5 -223t71 -311q0 -142 -50.5 -265t-144.5 -209q41 -61 78 -112q32 -43 60.5 -69t55.5 -26q9 0 9 -7q0 -8 -9 -8zM673 18
q157 0 275 98q-47 63 -89 126q-36 53 -68 96.5t-61.5 70t-56.5 26.5q-10 0 -10 8q0 7 10 7q71 0 132 -38.5t114 -98.5t99 -127q133 173 133 419q0 162 -59 295.5t-166.5 212.5t-252.5 79t-252.5 -79t-166.5 -212.5t-59 -295.5t59 -295t166.5 -212.5t252.5 -79.5z" />
    <glyph glyph-name="r" unicode="r" horiz-adv-x="911" 
d="M901 0h-215q-7 0 -10 10q0 4 3 6.5t7 2.5q23 0 37.5 13t14.5 33q-1 10 -2.5 13t-255.5 502h-252v-490q0 -29 20.5 -49.5t49.5 -20.5q4 0 7 -3t3 -7t-3 -7t-7 -3h-222q-9 0 -10 10q0 4 3 7t7 3q29 0 49 20.5t20 49.5v1014q0 29 -20 49.5t-49 20.5q-9 0 -10 10q0 9 10 10
h427q92 0 156.5 -41.5t98.5 -111t34 -154.5q0 -110 -58 -193t-165 -107l251 -486q14 -31 33 -56.5t48 -25.5q4 0 7 -2.5t3 -6.5t-3 -7t-7 -3zM477 614q99 0 165.5 76t66.5 197t-66.5 197.5t-165.5 76.5h-249v-547h249z" />
    <glyph glyph-name="s" unicode="s" horiz-adv-x="742" 
d="M374 -20q-67 0 -121.5 19.5t-94 49t-63.5 61.5q-6 0 -7.5 -6t-1.5 -22q0 -8 -10 -8t-10 8v192q0 9 10 10q4 0 7 -3t3 -7q0 -53 40 -114t106 -104t144 -43q85 0 145 42.5t92 106t32 126.5q0 67 -31 117t-79 90q-66 55 -180 131q-60 39 -113.5 82.5t-88 97.5t-34.5 129
q0 119 87 199t208 80q86 0 145.5 -31t104.5 -74q10 0 10 21l-1 12q0 8 10 8q9 0 10 -8v-192q0 -9 -10 -10q-4 0 -7 3t-3 7q0 54 -33 107t-89 88t-126 35q-91 0 -159.5 -61.5t-68.5 -141.5q0 -57 26.5 -99t75 -81t114.5 -85l52 -36q139 -95 208 -177.5t69 -202.5
q0 -85 -50.5 -157t-134.5 -115.5t-183 -43.5z" />
    <glyph glyph-name="t" unicode="t" horiz-adv-x="815" 
d="M551 0h-222q-4 0 -7 3t-3 7q0 9 10 10q29 0 49.5 20.5t20.5 49.5v1071h-91q-59 0 -106 -25.5t-77.5 -63t-40.5 -75.5q0 -3 -2.5 -5t-5.5 -2q-5 1 -7.5 3t-2.5 6q0 8 23 82q8 29 28 113h646l52 -196q0 -7 -10 -8q-7 0 -9 7q-10 38 -40.5 75.5t-77 63t-105.5 25.5h-91
v-1071q0 -29 20.5 -49.5t48.5 -20.5q9 0 10 -10q0 -4 -2.5 -7t-7.5 -3z" />
    <glyph glyph-name="u" unicode="u" horiz-adv-x="840" 
d="M453 -20q-98 0 -166.5 48t-104.5 151t-36 266v659q0 29 -20.5 49.5t-49.5 20.5q-9 0 -10 10q0 4 3 7t7 3h222q5 0 7.5 -3t2.5 -7q0 -9 -10 -10q-28 0 -48.5 -20.5t-20.5 -49.5v-659q0 -161 31.5 -254t89 -131.5t134.5 -38.5q68 0 123.5 43t88 136.5t32.5 244.5v659
q0 29 -20.5 49.5t-49.5 20.5q-9 0 -10 10q0 4 3 7t7 3h172q5 0 7.5 -3t2.5 -7q0 -9 -10 -10q-28 0 -48.5 -20.5t-20.5 -49.5v-659q0 -163 -36 -266t-104.5 -151t-167.5 -48z" />
    <glyph glyph-name="v" unicode="v" 
d="M502 0h-35l-313 1077q-9 32 -30 64.5t-47 32.5q-4 0 -7.5 3t-3.5 7q0 5 3.5 7.5t7.5 2.5h225q9 0 10 -10q0 -4 -2.5 -7t-7.5 -3q-25 0 -48.5 -12.5t-23.5 -39.5q0 -8 125 -438l155 -535q281 966 281 973q0 27 -23.5 39.5t-49.5 12.5q-4 0 -7 3t-3 7q0 5 3 7.5t7 2.5h175
q4 0 7 -2.5t3 -7.5q0 -4 -3 -7t-7 -3q-50 0 -73 -81z" />
    <glyph glyph-name="w" unicode="w" horiz-adv-x="1334" 
d="M934 0h-36l-198 681l-198 -681h-35l-313 1077q-9 32 -30 64.5t-48 32.5q-4 0 -7 3t-3 7q0 5 3 7.5t7 2.5h226q9 0 10 -10q0 -4 -2.5 -7t-7.5 -3q-25 0 -48.5 -12.5t-23.5 -38.5q0 -9 3 -18l277 -956l172 593l-97 335q-9 32 -30 64.5t-47 32.5q-4 0 -7.5 3t-3.5 7
q0 5 3.5 7.5t7.5 2.5h385q4 0 7 -2.5t3 -7.5q0 -4 -3 -7t-7 -3q-50 0 -73 -81l-77 -263q101 -343 198 -681q281 966 281 973q0 27 -23.5 39.5t-49.5 12.5q-4 0 -7 3t-3 7q0 5 3 7.5t7 2.5h175q9 0 10 -10q0 -4 -2.5 -7t-7.5 -3q-50 0 -73 -81zM726 891l62 214q3 10 3 17
q0 25 -20.5 37.5t-44.5 14.5q-25 -2 -45 -14t-20 -37q0 -13 65 -232z" />
    <glyph glyph-name="x" unicode="x" horiz-adv-x="849" 
d="M839 0h-220q-4 0 -7 3t-3 7q0 5 3 7.5t7 2.5q23 0 40 13t17 34q0 11 -6 23l-226 472l-248 -472q-6 -12 -6 -23q0 -21 17.5 -34t39.5 -13q9 0 10 -10q0 -4 -2.5 -7t-7.5 -3h-171q-4 0 -7 3t-3 7q0 5 3 7.5t7 2.5q47 0 82 70l268 510l-242 505q-33 69 -78 69q-4 0 -7 3
t-3 7q0 9 10 10h220q9 0 10 -10q0 -4 -2.5 -7t-7.5 -3q-23 0 -39.5 -13.5t-16.5 -33.5q0 -10 5 -22l198 -414l217 414q6 13 6 23q0 20 -17 33t-40 13q-4 0 -7 3t-3 7q0 5 3 7.5t7 2.5h171q9 0 10 -10q0 -4 -2.5 -7t-7.5 -3q-47 0 -82 -69l-237 -452l270 -563q33 -70 78 -70
q9 0 10 -10q0 -4 -2.5 -7t-7.5 -3z" />
    <glyph glyph-name="y" unicode="y" horiz-adv-x="824" 
d="M556 0h-222q-4 0 -7 3t-3 7q0 9 10 10q29 0 49.5 20.5t20.5 49.5v524l-246 491q-34 69 -82 69q-4 0 -7 3t-3 7q0 5 3 7.5t7 2.5h219q9 0 10 -10q0 -4 -2.5 -7t-7.5 -3q-22 0 -39.5 -13t-17.5 -33q0 -10 6 -23l227 -454l225 454q6 13 6 23q0 20 -17 33t-40 13q-4 0 -7 3
t-3 7q0 9 10 10h169q9 0 10 -10q0 -4 -2.5 -7t-7.5 -3q-48 0 -82 -69l-245 -491v-524q0 -29 20.5 -49.5t48.5 -20.5q9 0 10 -10q0 -4 -2.5 -7t-7.5 -3z" />
    <glyph glyph-name="z" unicode="z" horiz-adv-x="757" 
d="M71 0v34l570 1127h-333q-58 0 -105 -25.5t-77.5 -63t-40.5 -75.5q-3 -7 -9 -7q-10 1 -10 8l52 196h616v-33l-570 -1127h357q87 5 144 55.5t73 108.5q2 7 9 7q10 -3 10 -10l-52 -194z" />
    <glyph glyph-name="braceleft" unicode="{" horiz-adv-x="365" 
d="M365 -100q-199 0 -199 199v437q0 89 -27 124.5t-73 35.5v40q46 0 73 35t27 124v437q0 200 199 200v-40q-46 0 -73 -35.5t-27 -124.5v-437q0 -137 -94 -179q94 -43 94 -180v-437q0 -89 27 -124t73 -35v-40z" />
    <glyph glyph-name="bar" unicode="|" horiz-adv-x="106" 
d="M106 -100h-40v1632h40v-1632z" />
    <glyph glyph-name="braceright" unicode="}" horiz-adv-x="365" 
d="M66 -100v40q46 0 73 35t27 124v437q0 137 93 180q-93 42 -93 179v437q0 89 -27 124.5t-73 35.5v40q199 0 199 -200v-437q0 -89 27 -124t73 -35v-40q-46 0 -73 -35.5t-27 -124.5v-437q0 -199 -199 -199z" />
    <glyph glyph-name="asciitilde" unicode="~" horiz-adv-x="672" 
d="M511 524q-33 0 -72 10.5t-82 24.5l-78 26q-32 11 -61.5 19.5t-55.5 8.5q-34 0 -62 -19.5t-28 -69.5h-35q0 87 34.5 121.5t90.5 34.5q40 0 93 -15t107 -34q47 -15 87.5 -27t66.5 -12q17 0 36 9.5t33 29t14 49.5h35q0 -63 -19 -96.5t-47 -46.5t-57 -13z" />
    <glyph glyph-name="exclamdown" unicode="&#xa1;" horiz-adv-x="166" 
d="M165 0h-99l29 1233q1 8 7.5 11.5t13.5 3.5q8 0 13.5 -3.5t5.5 -11.5zM116 1333q-21 0 -35.5 14.5t-14.5 34.5q0 21 14.5 35.5t35.5 14.5q20 0 35 -14.5t15 -35.5q0 -20 -15 -34.5t-35 -14.5z" />
    <glyph glyph-name="cent" unicode="&#xa2;" horiz-adv-x="1132" 
d="M708 -91h-39v101q-280 20 -441.5 184.5t-161.5 430.5t161.5 430.5t441.5 184.5v101h39v-99q113 0 199.5 -29t163.5 -81q11 0 11 38q0 4 3.5 6t7.5 2q12 0 12 -8v-192q0 -9 -12 -10q-4 0 -7.5 3t-3.5 7q0 54 -53 108t-135 90t-169 36q-9 0 -17 -1v-1172l30 -1
q100 0 189.5 28t156.5 69q7 4 13 4t10.5 -4t4.5 -10q0 -7 -11 -16q-162 -101 -376 -101q-9 0 -17 1v-100zM669 42v1167q-227 -26 -358.5 -190.5t-131.5 -393.5q0 -226 132 -389t358 -194z" />
    <glyph glyph-name="sterling" unicode="&#xa3;" horiz-adv-x="1286" 
d="M657 674q-2 0 -2 2q7 15 19 27l2 1q1 0 2 -2l-1 -1q-12 -10 -18 -24q0 -1 -1 -1v-1q0 -1 -1 -1zM406 118l-4 2q54 22 108 40q170 57 345 93h2q31 7 54 7q9 0 14 -9v1l-2 1q-5 5 -12 5l-7 -1q-10 0 -19 -2q-106 -19 -210 -49q-12 -3 -23 -7q-118 -31 -246 -81zM945 635
h-28q-2 0 -2 1l4 6l10 10q24 24 24 37v2q-10 -22 -29 -39l-15 -16v3q0 2 3 5q20 20 30 33t10 26q0 6 -2 12l-1 5q0 5 3.5 8t3.5 6q-1 4 -8 4q-4 0 -8 -4q-13 -11 -23 -25l-27 -36q-3 -3 -5 -7q-1 0 -1 -0.5t-3 -3.5q0 3 1 4v1q9 24 21 51q19 47 37 95q5 14 7 30
q-17 -57 -41 -113q-16 -36 -30 -73l-1 4l1 2q0 5 4 13q20 46 38 92l6 15q13 31 21 64l1 3q0 4 -3 5t-5 1q-5 0 -16 -30q-40 -101 -46 -113q-2 -8 -9 -12q-11 -6 -21 -14l-22 -15v-1q-2 -1 -3 -1h-2h-2q0 7 3 13.5t3 14.5q-6 -18 -6 -28q-2 2 -2 10l7 24q0 4 -2 5t-3 1l-5 -1
q-15 -7 -26 -20l-30 -37v-1q-1 -2 -6 -2q-2 1 -2 3q0 18 9 41q15 37 31 73l19 42q5 12 16 19l2 1q2 1 4 3t2 5l-1 2q-7 7 -7 18q0 9 -7 9q-4 0 -7 -5.5t-11 -25.5q-3 -12 -17 -12q-34 0 -67 -5l-5 -1q-25 -3 -48 -14q-11 -5 -15 -16v-3q0 -6 7 -6q4 1 6 4q15 13 35 18
q27 6 51 9q16 4 33 4l2 1q2 0 4 -4h-7q-17 0 -72 -11q-28 -4 -43 -19q-5 -5 -10 -5l-1 -1q0 -3 4 -2q4 0 7 3q22 19 69 25q8 0 15 2q20 4 33 4q5 0 5 -2l-2 -8q-22 -58 -71 -98l-3 -1l1 11q0 -5 -5 -12v6q3 0 3 14q0 6 -4 6h-6q-25 0 -40.5 -18.5t-15.5 -19.5
q-14 -19 -29 -19l-5 1q-18 4 -25 21q-4 11 -4 22q0 27 10 60q2 7 2 13l-1 9q-1 9 -9 9q-10 0 -23 -26q-5 -11 -11 -21q-28 -57 -44 -81q-4 -7 -10 -13h-1q-1 -2 -2 -2h-2q-3 0 -4.5 3.5t-1.5 14.5q0 13 10 61q26 137 67 227q14 28 14 41q0 5 -4 7q43 8 88 8q168 0 295 -99.5
t173 -256.5h-3q-13 -5 -26 -7q-62 -13 -125 -19zM663 722q18 3 23 8l3 3l-2 2l-2 -2h-1q-9 -6 -21 -7h-6q-1 0 -1 -2t4 -2h3zM659 729q15 0 25 8l3 3q0 4 -4 4q-8 0 -25 -4q-7 -2 -7 -7q1 -3 2.5 -3.5t5.5 -0.5zM951 716q7 7 7 9t-2 2l-2 -3h-1q-2 -3 -2 -8zM843 710
q3 0 3 5h-8q-5 3 -11.5 7t-11.5 4q-4 0 -7 -3h-3l-1 -2q0 -2 5 -2v1h3q4 2 7 2t18 -9zM840 717q4 0 4 4q0 2 -2 4v1q-6 6 -7 12q0 3 2 6q0 6 -6 6l-13 -1l-13 1q-2 0 -3 -1v0l1 -7q0 -2 -0.5 -4.5t-1.5 -4.5t-1 -3q0 -4 4 -4q3 0 6 1.5t6 1.5q4 0 7 -3q12 -7 13 -7t1.5 -1
t2.5 -1zM750 655q4 19 12 36q13 34 28 66l19 43q5 12 16 19l8 7q0 1 -0.5 2t-1.5 1l-1 -1q-16 -10 -23 -27l-21 -49q-33 -68 -36 -97zM580 707l1 8q1 8 2.5 18t5 21.5t3.5 20.5q-9 -31 -12 -68zM484 679l2 12q30 169 82 281q5 10 6 19q-35 -74 -55.5 -152.5t-34.5 -159.5z
M389 505v3q0 3 2 5q29 39 71 63q5 3 10 4q2 0 4 -2v-1h-3q-14 -4 -24 -13q-32 -21 -55 -52zM901 658h-2l-1 2l1 1q5 6 9 13q5 5 20 25q0 3 3 3h2q1 0 1 -1v-1h-1q-11 -12 -20 -25q-5 -8 -11 -15zM656 48q-134 0 -246 67q54 21 108 40q193 62 354 94h4q14 4 28 4l21 -2
q4 -7 14 -7q10 2 12 13q0 9 -6 15.5t-30 6.5q-22 0 -90 -14q-14 0 -94 -21l-40 -9q-123 -30 -242 -72q-35 -13 -69 -29q-96 67 -152.5 171t-56.5 228q0 117 50.5 216t136.5 166.5t196 91.5q-6 -10 -15 -31l-13 -30q-56 -122 -115 -242q-42 -87 -103 -163q-24 -31 -58 -51
q-8 -4 -14 -4q-4 0 -10.5 2.5t-9 16.5t-2.5 29q0 35 14 80l3 12q19 73 57 139q5 10 12 17q2 2 4 2t4 -2q-7 -2 -12 -10q-43 -70 -66 -161q-10 -30 -12 -60q4 28 12 55q16 64 43 120l2 3q10 22 24 42q1 1 1 1.5t4 4.5q1 0 2.5 -0.5t1.5 -1.5q-1 -2 -1 -4t-1 -3
q-5 -37 -16 -85l-1 -6q0 -12 6 -12q4 0 5 5t1.5 13.5t2.5 16.5q21 70 21 88q0 22 -16 22q-24 0 -56 -63q-45 -93 -58 -195q-2 -12 -2 -23q0 -62 41 -65q17 0 31 9q39 24 66 60q83 104 138 239q1 3 4 5h1q1 0 1.5 -0.5t0.5 -1.5h-1q-3 -2 -4 -5l-5 -14q-106 -230 -202 -287
q-13 -8 -28 -8q-13 0 -24 8q6 -7 13 -9t14 -2q15 0 28 8q43 27 72 68q54 69 92 146l6 11q19 36 34 72q0 5 5 7l1 -1v-3q-1 -8 -4 -15q-4 -15 -9 -55q-2 -12 -2 -25q0 -12 5.5 -24t14.5 -12q5 0 12 5q13 10 22 24q14 23 26.5 47t12.5 26l3 1l1 -1v-2h-1l-15 -28
q-22 -47 -44 -68q-7 -7 -16 -7q-5 0 -11 4q7 -8 14 -8q5 0 10 4q24 17 54 83q3 7 9 14v-19q0 -21 12.5 -40t35.5 -19h7q10 0 15.5 -5t9.5 -5t8 3q12 6 24 22q9 12 11 12q3 0 6 -3.5t8 -3.5q10 0 34 24q2 3 5 5v1l4 2l2 -1l-1 -2q-6 -4 -9 -8t-6 -6q-9 -10 -22 -16
q-3 -2 -6 -2q-5 0 -8 3t-5 3t-8 -6q-11 -17 -26 -27q-5 -3 -9 -3q-6 0 -10.5 5t-11.5 5l-4 -1h-6q-15 0 -27 8q11 -11 32 -11q13 0 18.5 -5t10.5 -5q4 0 8 3q12 8 23 24q10 10 11 10q2 0 5 -3t7 -3q6 0 11 3q13 7 32 27q-1 -7 -3 -12q-5 -10 -5 -26q0 -7 2.5 -16t14.5 -9
q20 4 37 33q1 1 1.5 2.5t2.5 2.5t3 2q1 0 1.5 -0.5t0.5 -1.5v0q-1 -1 -3 -2t-3 -4q-5 -10 -12 -18t-15 -12.5t-22 -4.5q3 -4 7 -4q13 0 23 9q14 13 22 29l2 1q2 -2 2 -4v-1q2 -11 11 -11q10 0 19 9q16 13 31 27l5 3q1 0 2 -0.5t1 -1.5l-2 -1q-12 -9 -23 -20q-6 -5 -13 -11.5
t-18 -6.5l-8 1q4 -5 13 -5q7 1 44 33q1 0 1.5 0.5l1.5 1.5t2 1q0 -3 -1 -4q-10 -31 -17 -62q-2 -5 -2 -10q1 -6 6 -8h6q8 8 13.5 18.5t16.5 10.5l5 -1q15 -4 31 -4l12 1q48 3 94 8.5t87 19.5l12 5l1 -4h-2q-47 -20 -130 -27l-16 -1q-44 -4 -54 -4q-16 0 -32 2l-9 1
q-7 0 -15 -12q-4 -7 -8 -11.5t-13 -4.5q4 -4 7 -4q5 0 16 17q5 12 17 12l5 -1q14 -3 36 -3q109 5 175 24q12 3 24 8q13 -53 13 -111q0 -29 -4 -58q-5 13 -20 13q-9 0 -33 -7.5t-44 -24.5q-10 -7 -13 -20q0 -9 3 -12t5 -3t4 1t2 4v1q0 10 8 16q29 22 64 27l2 1q4 0 6 -5l-5 1
q-4 0 -12 -2q-35 -9 -54 -26q-6 -4 -6 -14q4 10 14 16q25 18 57 22l3 1q2 0 2.5 -1t0.5 -3q0 -15 -9 -27q-30 -44 -76 -73q-28 -18 -61 -26l-6 -1q-14 0 -17 17v15q13 54 46 100q16 21 23 36q0 8 -7 8q-4 0 -6 -4q-15 -15 -23 -27q-21 -31 -52 -51l-3 -1q3 6 8 13.5t8 18.5
l-20 -33q0 -1 -1 -1.5t-2 -0.5v3q1 0 1 1t1 2t1 2l17 29l1 6q0 5 -6 5t-23 -22t-41 -29l-8 -1q-1 0 -4.5 1t-4.5 9q-5 14 -14 14q-4 0 -18 -7q-2 -2 -5 -3l2 6q4 8 4 16q-2 -10 -8 -20l-1 -3v3q-1 3 1 6v1q6 11 6 22q-1 6 -6 6t-9 -6q-7 -9 -18 -16t-48 -44q-7 -7 -16 -8
q-10 0 -16 4q7 23 47 59q4 2 4 9q-31 -26 -51 -60l-1 -4l1 -4q-3 4 -3 8q0 7 17 26q4 9 32 33q4 3 4 6q0 2 -1 3q-2 5 -8 5q-7 -1 -12 -4q-29 -16 -54 -36l-11 -8q0 2 0.5 3t1 1.5l1.5 1.5q20 30 24 38q1 0 1.5 1t0.5 2l-1 2q-16 -26 -35 -51l-3 -5l-1 3q0 2 1 3h1
q28 42 32 48.5t4 7.5q0 2 -1.5 3.5t-7.5 1.5q-5 -3 -9 -8l-26 -35q-26 -36 -49 -74q-1 0 -1 -1q-3 -4 -4 -9q0 -6 2.5 -8t4.5 -2q6 0 15 9l3 4q32 44 73 75q0 1 1 1.5l3 1.5q1 0 2 -1t1 -2h-1q0 -1 -1.5 -1t-1.5 -1h-1v-1q-36 -27 -64 -63l-6 -7q-10 -17 -24 -20q2 -2 5 -2
q2 0 6 2q15 13 15 17q24 32 55 58q1 1 2.5 3t7.5 4q-10 -13 -10 -27q0 -12 12 -18l10 -3q1 0 4 -3q-10 1 -18 5q4 -6 9.5 -7t5.5 -2q0 -2 -3 -4q-13 -12 -26 -27q-7 -7 -7 -13q0 -3 2.5 -6.5t6.5 -3.5q7 0 13 6q22 17 37 40q2 2 2 6q1 12 10 20l29 30q7 9 11 9q2 0 4 -4
l-3 1q-2 0 -4 -2l-34 -35q-9 -9 -10 -21q0 -4 -3 -6q-15 -24 -38 -42q-6 -5 -12 -5q-3 0 -6 2l1 -2q3 -3 7 -3q5 0 10 4q23 17 38 40q2 3 2 7q2 13 12 22l33 34q1 0 1.5 1t1.5 2h3q-6 -11 -10 -22q-2 -5 -4.5 -10t-2.5 -10q0 -9 7 -9q8 0 13 8q16 22 38 38h1q1 2 3 2h1
q2 0 3 -2h-3l-3 -3q-22 -16 -38 -38q-3 -4 -7 -6t-11 -2q4 -4 7 -4t6 2.5t6 5.5q17 24 42 40l1 3l5 -7q4 -6 9 -8h5q9 0 25 7v1l6 1q1 0 1 -1h1l-10 -5q-12 -6 -21 -6q-8 0 -11 3q3 -5 7 -7q14 0 27 6l5 2q1 -1 1 -6q1 -11 11 -11q7 0 15 7q16 14 22 17v1l4 2q3 0 4 -1v-1
l-2 -1h-1l-12 -9q-21 -18 -30 -18l-6 1q3 -5 8 -5q8 0 14 5t11.5 9.5t10.5 8.5l1 1q0 1 2 2h3q-6 -16 -10 -32q-1 -5 -2.5 -10.5t-1.5 -11.5q0 -12 5.5 -22.5t16.5 -14.5q6 -3 13 -3t24 5q91 34 140 116q-2 -5 -2 -11l-4 -5q-58 -82 -145 -107q-6 -2 -12 -2q-12 0 -23 9
q11 -12 25 -12l10 1q52 14 93 49q32 26 54 60q-42 -162 -171 -266t-300 -104zM299 658q4 4 4 18v4q2 3 2 6t1 5q17 65 18.5 68.5t2 6.5t0.5 7l-10 -38q-9 -27 -14 -55v-4q0 -12 -9 -15q3 -3 5 -3zM940 237q13 0 13 15q-7 -11 -14 -11q-4 0 -9 2q4 -6 10 -6zM458 261
q2 16 7 31l2 6q15 50 39 97q32 69 78 131q10 15 26 22q3 1 4 4q0 1 -1 1h-2q-15 -6 -24 -18q-36 -46 -62 -97q-33 -60 -55 -125q-10 -31 -12 -52zM463 225q3 0 5 3q11 11 29 47q45 99 116 181q59 67 126 127q23 22 53 36q4 2 4 4t-2.5 5t-6.5 3q-5 0 -10 -5
q-66 -44 -154 -135q-86 -86 -139 -203q-4 -8 -7.5 -16.5t-9.5 -15.5q-1 0 -2 -1.5t-3 -1.5q-6 0 -6 13q0 6 1 11q12 51 34 99q36 83 90 157q10 15 27 22q4 1 4 4q0 8 -7 9q-13 0 -24 -12t-63 -62q-82 -79 -143 -175v-1q0 -2 -3 -2q10 20 45 76l31 52l11 18q16 27 30 56
q11 23 11 48v-1q0 -24 -18 -56q-26 -48 -54 -94q-26 -41 -50 -82l-20 -37q0 8 4 14l55 94q29 46 55 94q25 40 27 75q-1 17 -12 24q-6 4 -13 4q-6 0 -13 -3q-64 -30 -97 -90q-4 -7 -4 -16q0 -14 9 -14l5 1q16 5 30 15q5 3 8.5 6t3.5 5q0 4 -4 4l-4 -1l-9 -4q-1 -1 -3 -1t-3 2
q2 3 2 3.5t1 0.5q28 36 67 60q7 4 12 4q3 0 3 -3v-2q-3 -26 -33 -77q-112 -175 -112 -216q1 -12 12 -12t21 17q25 34 49 69q41 57 89 109h1l2 3l5 -1l-1 -2q-9 -4 -13 -12q-48 -52 -102 -130q-28 -38 -28 -40q-12 -17 -23 -17l-6 1q3 -4 9 -4q10 0 18 14q6 6 30 41
q49 73 109 138l1 2q0 1 3 1l-2 -5q-8 -18 -20 -39q-29 -59 -45 -124q-2 -10 -2 -20q0 -4 1 -12.5t14 -18.5l3 -4q3 -4 5 -4zM373 471l4 1q22 7 38 22h1q2 2 2 5h-3q-14 -14 -33 -21q-1 0 -1 -1l-11 -2l-6 1q4 -5 9 -5zM720 510q3 1 3 3q0 13 8 20q2 1 2 3q0 1 -1.5 3.5
t-4.5 2.5l-4 -1q-18 -2 -21 -9.5t-9 -14.5q-1 -1 -1 -1.5v-1.5l1 -1q1 -2 4 -2q2 0 3.5 0.5t1.5 1.5l7 1q4 0 6 -2t5 -2zM722 503q2 0 3 5q-3 -2 -5 -2q-3 0 -5 2.5t-5 2.5q-4 0 -7 -1.5t-6 -2.5q-2 0 -2 -1l2 -1q1 -1 3 -1q3 0 5.5 1.5t5.5 1.5q4 0 7 -2t4 -2zM726 515
q1 4 4.5 7t3.5 8q-8 -6 -8 -15zM466 219q9 0 32 46q65 147 215 284l12 11q35 37 70 52q3 3 3 4l-2 1l-3 -1q-39 -17 -133 -115q-104 -101 -165 -236q-9 -21 -23 -38q-5 -5 -11 -5q3 -3 5 -3zM1040 415q3 1 3 4v1l-6 -2l-4 1q2 -4 5 -4h2zM954 357l2 5q13 51 43 95
q11 15 21 31l1 1q1 2 1.5 3.5t0.5 3.5q-51 -62 -69 -139z" />
    <glyph glyph-name="currency" unicode="&#xa4;" horiz-adv-x="657" 
 />
    <glyph glyph-name="yen" unicode="&#xa5;" horiz-adv-x="977" 
d="M631 0h-239q-4 0 -7 3t-3 7t3 7t7 3q29 0 49.5 20.5t20.5 48.5v489h-269v40h269v118h-269v40h249l-286 572q-35 65 -80 65q-10 0 -10 9t10 10h236q5 0 8 -2.5t3 -7.5q0 -4 -3 -6.5t-8 -2.5q-22 0 -39 -13t-17 -33q0 -10 5 -22l282 -565l278 563q6 13 6 23q0 20 -17 33.5
t-40 13.5q-10 0 -10 9t10 10h177q4 0 7 -2.5t3 -7.5q0 -4 -3 -6.5t-7 -2.5q-45 0 -79 -63l-287 -574h249v-40h-269v-118h269v-40h-269v-489q0 -28 20.5 -48.5t49.5 -20.5q4 0 7 -3t3 -7t-3 -7t-7 -3z" />
    <glyph glyph-name="brokenbar" unicode="&#xa6;" horiz-adv-x="118" 
d="M118 895h-40v637h40v-637zM106 -100h-40v637h40v-637z" />
    <glyph glyph-name="section" unicode="&#xa7;" horiz-adv-x="752" 
d="M364 -100q-67 0 -124 24t-99.5 57.5t-66.5 65.5q-8 12 -8 22q0 14 8.5 22.5t18.5 8.5q9 0 16 -9q38 -64 106.5 -111t150.5 -47q85 0 145 42.5t92 106.5t32 127q0 67 -31 116.5t-78.5 89.5t-101.5 76l-78 54q-60 40 -114 83.5t-88.5 98t-34.5 128.5q0 92 54 162
q-54 69 -54 156q0 119 87 199t208 80q86 0 145.5 -31t104.5 -74q10 0 10 24v9q0 9 9 9q10 0 10 -9v-192q0 -9 -10 -9q-9 0 -9 9q0 55 -33.5 108t-89.5 88t-126 35q-91 0 -159.5 -61.5t-68.5 -141.5q0 -58 26.5 -100.5t75.5 -82t117 -85.5q179 -119 257 -211q69 -83 69 -202
q0 -82 -46 -151q46 -70 46 -168q0 -93 -50.5 -164t-134.5 -111.5t-183 -40.5zM625 459q10 35 10 68q0 67 -31.5 117.5t-80 90.5t-102.5 77l-79 55q-76 48 -138 104q-17 -35 -17 -74q0 -57 26.5 -99.5t75.5 -81.5t116 -84q147 -102 220 -173z" />
    <glyph glyph-name="dieresis" unicode="&#xa8;" horiz-adv-x="356" 
d="M131 1140q-27 0 -46 19t-19 46t19 46t46 19t46 -19t19 -46t-19 -46t-46 -19zM307 1140q-27 0 -46 19t-19 46t19 46t46 19t46 -19t19 -46t-19 -46t-46 -19z" />
    <glyph glyph-name="copyright" unicode="&#xa9;" horiz-adv-x="1499" 
d="M782 -100q-197 0 -360 99.5t-259.5 266.5t-96.5 370t96.5 370t259.5 266.5t360 99.5q198 0 360.5 -99.5t259.5 -266.5t97 -370t-97 -370t-259.5 -266.5t-360.5 -99.5zM782 -60q187 0 340.5 94t245 252t91.5 350t-91.5 350.5t-245 252.5t-340.5 94q-186 0 -339.5 -94
t-245 -252.5t-91.5 -350.5t91.5 -350t245 -252t339.5 -94zM822 119q-152 0 -265 69.5t-174.5 187t-61.5 260.5t61.5 260.5t174.5 187t265 69.5q142 0 264 -92q8 0 8 32q0 7 9 7q3 0 5.5 -2t2.5 -5v-161q0 -8 -8 -8q-4 0 -6.5 2.5t-2.5 5.5q0 68 -86 128.5t-186 60.5
q-126 0 -214 -64.5t-133.5 -174.5t-45.5 -246t47.5 -246.5t137.5 -175.5t218 -65q77 0 143.5 22.5t116.5 57.5q5 3 9 3q6 0 10.5 -4.5t4.5 -10.5q0 -7 -8 -14q-119 -84 -286 -84z" />
    <glyph glyph-name="ordfeminine" unicode="&#xaa;" horiz-adv-x="618" 
d="M611 717h-149q-6 0 -6 6q0 2 2 4t4 2q17 0 32.5 7.5t15.5 23.5q0 5 -83 265h-204q-83 -260 -83 -265q0 -16 15.5 -23.5t32.5 -7.5q6 0 6 -6t-6 -6h-116q-6 0 -6 6q0 2 2 4t4 2q34 0 48 48l210 656h23l207 -646q6 -19 20 -38.5t31 -19.5q7 0 7 -6t-7 -6zM420 1045l-95 298
l-95 -298h190zM491 597h-298v60h298v-60z" />
    <glyph glyph-name="guillemotleft" unicode="&#xab;" horiz-adv-x="664" 
d="M664 327l-352 273v50l352 274v-45l-32 -30q-32 -29 -73 -71.5t-73 -84.5t-32 -68q0 -25 32 -67.5t73 -84.5t73 -72l32 -29v-45zM418 328l-352 273v50l352 274v-45l-32 -30q-32 -29 -72.5 -71.5t-72.5 -84.5t-32 -68q0 -25 32 -67.5t72.5 -84.5t72.5 -72l32 -29v-45z" />
    <glyph glyph-name="logicalnot" unicode="&#xac;" horiz-adv-x="657" 
 />
    <glyph glyph-name="registered" unicode="&#xae;" horiz-adv-x="639" 
d="M358 1106q33 0 55 24t22 61q0 38 -22 62t-55 24h-83v-171h83zM449 896q-49 0 -50 4q0 4 3 4h1q26 0 28 27q-45 158 -81 158h-75v-157q0 -12 8 -20t20 -8q4 0 4 -3q0 -5 -48 -5t-48 4t3 4h1q12 0 20 8t8 20v326q0 11 -8 19.5t-20 8.5q-4 0 -4 6q0 2 155 2q47 0 75 -28
t28 -75q0 -78 -77 -99q39 -31 76 -168q8 -20 26 -20q4 0 4 -3q0 -5 -49 -5zM352 832q107 0 181 77t74 186q0 108 -74 185t-181 77q-105 0 -179.5 -77t-74.5 -185q0 -109 74.5 -186t179.5 -77zM352 800q-118 0 -202 87t-84 208q0 122 84 208t202 86q119 0 203 -86t84 -208
q0 -121 -84 -208t-203 -87z" />
    <glyph glyph-name="macron" unicode="&#xaf;" horiz-adv-x="734" 
 />
    <glyph glyph-name="degree" unicode="&#xb0;" horiz-adv-x="384" 
d="M225 1100q-66 0 -112.5 46.5t-46.5 112.5t46.5 112.5t112.5 46.5t112.5 -46.5t46.5 -112.5t-46.5 -112.5t-112.5 -46.5zM225 1132q53 0 90.5 37.5t37.5 89.5q0 53 -37.5 90.5t-90.5 37.5q-52 0 -89.5 -37.5t-37.5 -90.5q0 -52 37.5 -89.5t89.5 -37.5z" />
    <glyph glyph-name="plusminus" unicode="&#xb1;" horiz-adv-x="916" 
 />
    <glyph glyph-name="twosuperior" unicode="&#xb2;" horiz-adv-x="1014" 
 />
    <glyph glyph-name="threesuperior" unicode="&#xb3;" horiz-adv-x="1014" 
 />
    <glyph glyph-name="acute" unicode="&#xb4;" horiz-adv-x="237" 
d="M98 1100h-32l64 176q7 17 23.5 24.5t34.5 7.5q19 0 34 -6.5t15 -17.5q0 -4 -3 -8z" />
    <glyph glyph-name="mu" unicode="&#xb5;" horiz-adv-x="1180" 
 />
    <glyph glyph-name="paragraph" unicode="&#xb6;" horiz-adv-x="657" 
 />
    <glyph glyph-name="periodcentered" unicode="&#xb7;" horiz-adv-x="165" 
d="M116 600q-21 0 -35.5 14.5t-14.5 35.5q0 20 14.5 35t35.5 15q20 0 34.5 -15t14.5 -35q0 -21 -14.5 -35.5t-34.5 -14.5z" />
    <glyph glyph-name="periodcentered" unicode="&#x2219;" horiz-adv-x="165" 
d="M116 600q-21 0 -35.5 14.5t-14.5 35.5q0 20 14.5 35t35.5 15q20 0 34.5 -15t14.5 -35q0 -21 -14.5 -35.5t-34.5 -14.5z" />
    <glyph glyph-name="cedilla" unicode="&#xb8;" horiz-adv-x="328" 
d="M191 -200q-33 0 -60.5 10t-43.5 20t-17.5 10.5t-2.5 3t-1 5.5q0 7 5 12.5t10 5.5q4 -1 15 -8q34 -23 71 -23q40 0 60.5 18.5t20.5 44.5q0 28 -14.5 42.5t-32.5 14.5q-32 0 -57 -16q-8 -5 -13 -6q-7 0 -11.5 5t-4.5 11l2 6l89 119h44l-67 -91q14 2 27 2q30 0 58.5 -8.5
t46.5 -27.5t18 -49q0 -52 -38 -76.5t-104 -24.5z" />
    <glyph glyph-name="onesuperior" unicode="&#xb9;" horiz-adv-x="1014" 
 />
    <glyph glyph-name="ordmasculine" unicode="&#xba;" horiz-adv-x="718" 
 />
    <glyph glyph-name="guillemotright" unicode="&#xbb;" horiz-adv-x="664" 
d="M66 327v45l32 29q32 30 72.5 72t72.5 84.5t32 67.5q0 26 -32 68t-72.5 84.5t-72.5 71.5l-32 30v45l351 -274v-50zM312 328v45l32 29q32 30 72.5 72t72.5 84.5t32 67.5q0 26 -32 68t-72.5 84.5t-72.5 71.5l-32 30v45l352 -274v-50z" />
    <glyph glyph-name="onequarter" unicode="&#xbc;" horiz-adv-x="1708" 
 />
    <glyph glyph-name="onehalf" unicode="&#xbd;" horiz-adv-x="1964" 
 />
    <glyph glyph-name="threequarters" unicode="&#xbe;" horiz-adv-x="1708" 
 />
    <glyph glyph-name="questiondown" unicode="&#xbf;" horiz-adv-x="774" 
d="M431 0q-104 0 -187 38.5t-130.5 110.5t-47.5 172q0 84 26 155t66.5 136.5t87.5 130.5q51 70 98 146.5t77.5 165.5t30.5 198q0 7 6.5 10.5t13.5 3.5q8 0 14 -3.5t6 -10.5q0 -139 -29 -244.5t-73 -189.5t-91 -157q-37 -60 -69 -118t-51.5 -120.5t-19.5 -136.5
q0 -106 80 -177t195 -71q74 0 133.5 25t103.5 58.5t69 61.5q6 6 13 6q8 0 14.5 -6.5t6.5 -15.5q0 -6 -6 -13q-38 -39 -87.5 -74.5t-111 -58t-138.5 -22.5zM472 1353q-20 0 -35 14.5t-15 35.5q0 20 15 34.5t35 14.5t35 -14.5t15 -34.5q0 -21 -15 -35.5t-35 -14.5z" />
    <glyph glyph-name="Agrave" unicode="&#xc0;" horiz-adv-x="1047" 
d="M1037 0h-243q-9 0 -10 10q0 9 10 10q25 0 48.5 12.5t23.5 40.5q0 13 -156 544h-370l-154 -527q-2 -8 -2 -16q0 -28 23.5 -41t48.5 -13q9 0 10 -10q0 -9 -10 -10h-182q-4 0 -7 3t-3 7q0 5 3 7.5t7 2.5q29 0 47 25t26 56l387 1332h43l382 -1316q9 -32 30.5 -64.5
t47.5 -32.5q4 0 7 -2.5t3 -7.5q0 -4 -3 -7t-7 -3zM699 657l-174 597l-174 -597h348zM557 1516h-32l-136 176q-2 2 -2 8q0 11 14.5 17.5t33.5 6.5q18 0 35 -7.5t24 -24.5z" />
    <glyph glyph-name="Aacute" unicode="&#xc1;" horiz-adv-x="1047" 
d="M1037 0h-243q-9 0 -10 10q0 9 10 10q25 0 48.5 12.5t23.5 40.5q0 13 -156 544h-370l-154 -527q-2 -8 -2 -16q0 -28 23.5 -41t48.5 -13q9 0 10 -10q0 -9 -10 -10h-182q-4 0 -7 3t-3 7q0 5 3 7.5t7 2.5q29 0 47 25t26 56l387 1332h43l382 -1316q9 -32 30.5 -64.5
t47.5 -32.5q4 0 7 -2.5t3 -7.5q0 -4 -3 -7t-7 -3zM699 657l-174 597l-174 -597h348zM586 1504h-32l63 176q7 17 24 24.5t35 7.5q19 0 33.5 -6.5t14.5 -17.5q0 -2 -0.5 -4t-137.5 -180z" />
    <glyph glyph-name="Acircumflex" unicode="&#xc2;" horiz-adv-x="1047" 
d="M1037 0h-243q-9 0 -10 10q0 9 10 10q25 0 48.5 12.5t23.5 40.5q0 13 -156 544h-370l-154 -527q-2 -8 -2 -16q0 -28 23.5 -41t48.5 -13q9 0 10 -10q0 -9 -10 -10h-182q-4 0 -7 3t-3 7q0 5 3 7.5t7 2.5q29 0 47 25t26 56l387 1332h43l382 -1316q9 -32 30.5 -64.5
t47.5 -32.5q4 0 7 -2.5t3 -7.5q0 -4 -3 -7t-7 -3zM699 657l-174 597l-174 -597h348zM661 1504q-18 0 -34 7.5t-23 24.5l-49 131l-47 -131q-12 -31 -60 -31q-19 0 -33 6.5t-14 16.5l2 8l136 176h33l135 -176q3 -5 3 -8q0 -10 -14.5 -17t-34.5 -7z" />
    <glyph glyph-name="Atilde" unicode="&#xc3;" horiz-adv-x="1047" 
d="M1037 0h-243q-9 0 -10 10q0 9 10 10q25 0 48.5 12.5t23.5 40.5q0 13 -156 544h-370l-154 -527q-2 -8 -2 -16q0 -28 23.5 -41t48.5 -13q9 0 10 -10q0 -9 -10 -10h-182q-4 0 -7 3t-3 7q0 5 3 7.5t7 2.5q29 0 47 25t26 56l387 1332h43l382 -1316q9 -32 30.5 -64.5
t47.5 -32.5q4 0 7 -2.5t3 -7.5q0 -4 -3 -7t-7 -3zM699 657l-174 597l-174 -597h348zM389 1446q-17 0 -17 10q0 59 23 89t87 30q32 0 71 -4.5t73 -4.5q36 0 60.5 9.5t24.5 37.5q0 5 5.5 8t11.5 3t11.5 -3t5.5 -8q0 -61 -20.5 -90.5t-80.5 -29.5q-35 0 -78 6t-81 6
q-34 0 -57 -10t-23 -39q0 -4 -5.5 -7t-10.5 -3z" />
    <glyph glyph-name="Adieresis" unicode="&#xc4;" horiz-adv-x="1047" 
d="M1037 0h-243q-9 0 -10 10q0 9 10 10q25 0 48.5 12.5t23.5 40.5q0 13 -156 544h-370l-154 -527q-2 -8 -2 -16q0 -28 23.5 -41t48.5 -13q9 0 10 -10q0 -9 -10 -10h-182q-4 0 -7 3t-3 7q0 5 3 7.5t7 2.5q29 0 47 25t26 56l387 1332h43l382 -1316q9 -32 30.5 -64.5
t47.5 -32.5q4 0 7 -2.5t3 -7.5q0 -4 -3 -7t-7 -3zM699 657l-174 597l-174 -597h348zM476 1504q-27 0 -46 19t-19 46t19 46t46 19t46.5 -19t19.5 -46t-19.5 -46t-46.5 -19zM653 1504q-27 0 -46 19t-19 46t19 46t46 19t46 -19t19 -46t-19 -46t-46 -19z" />
    <glyph glyph-name="Aring" unicode="&#xc5;" horiz-adv-x="1047" 
d="M1037 0h-243q-9 0 -10 10q0 9 10 10q25 0 48.5 12.5t23.5 40.5q0 13 -156 544h-370l-154 -527q-2 -8 -2 -16q0 -28 23.5 -41t48.5 -13q9 0 10 -10q0 -9 -10 -10h-182q-4 0 -7 3t-3 7q0 5 3 7.5t7 2.5q29 0 47 25t26 56l387 1332h43l382 -1316q9 -32 30.5 -64.5
t47.5 -32.5q4 0 7 -2.5t3 -7.5q0 -4 -3 -7t-7 -3zM699 657l-174 597l-174 -597h348zM562 1491q-53 0 -90.5 38t-37.5 90q0 53 37.5 90.5t90.5 37.5t90 -37.5t37 -90.5q0 -52 -37 -90t-90 -38zM562 1537q34 0 58 24t24 58q0 35 -24 58.5t-58 23.5t-58.5 -23.5t-24.5 -58.5
q0 -34 24.5 -58t58.5 -24z" />
    <glyph glyph-name="AE" unicode="&#xc6;" horiz-adv-x="1486" 
d="M1432 0h-712q-9 0 -10 10q0 4 3 7t7 3q29 0 49 20.5t20 48.5v528h-337l-245 -521h1q-5 -11 -5 -22q0 -21 16.5 -37.5t38.5 -16.5q4 0 7 -3t3 -7t-3 -7t-7 -3h-182q-4 0 -7 3t-3 7t3 7t7 3q50 0 87 77l581 1239q5 12 5 22q0 22 -16 38.5t-39 16.5q-4 0 -7 2.5t-3 6.5
q0 9 10 10h699l23 -90l30 -109q0 -11 -9 -11q-7 0 -10 6q-10 38 -40.5 75.5t-77 63t-105.5 25.5h-315v-616h368q29 0 49 20.5t20 48.5q0 10 10 10q9 0 10 -10v-179q0 -10 -10 -10q-4 0 -7 3t-3 7q0 29 -20 49.5t-49 20.5h-368v-696h355q59 0 105.5 25.5t77 63t40.5 75.5
q2 6 9 6q10 0 10 -7l-28 -107q-5 -24 -26 -96zM789 656v681l-319 -681h319z" />
    <glyph glyph-name="OE" unicode="&#x152;" horiz-adv-x="2055" 
d="M762 -20q-159 0 -287 57.5t-219.5 158t-140.5 234t-49 286.5t49 286.5t140.5 234t219.5 158t287 57.5q204 0 357 -92t240 -248v231q0 29 -20 49.5t-49 20.5q-10 0 -10 9t10 10h672l54 -199q0 -11 -9 -11q-7 0 -10 6q-10 38 -40.5 75.5t-77 63t-105.5 25.5h-315v-616h368
q29 0 49.5 20.5t20.5 48.5q0 10 9 10t10 -10v-179q0 -4 -2.5 -7t-7.5 -3q-4 0 -6.5 3t-2.5 7q0 29 -20.5 49.5t-49.5 20.5h-368v-696h355q59 0 105.5 25.5t77 63t40.5 75.5q1 6 9 6q9 0 9 -8l-21 -85l-32 -117h-712q-9 0 -10 10q0 4 3 7t7 3q29 0 49 20.5t20 48.5v231
q-87 -155 -240 -247.5t-357 -92.5zM762 16q176 0 305.5 94.5t200.5 253.5t71 352q0 194 -71 352.5t-200.5 253t-305.5 94.5q-175 0 -305 -94.5t-201 -253t-71 -352.5q0 -193 71 -352t201 -253.5t305 -94.5z" />
    <glyph glyph-name="Ccedilla" unicode="&#xc7;" horiz-adv-x="1167" 
d="M758 -20q-159 0 -287.5 57.5t-220 158t-140.5 234t-49 286.5t49 286.5t140.5 234t220 158t287.5 57.5q197 0 367 -130q11 0 11 44q0 5 3 8t7 3t7 -3t3 -8v-228q0 -4 -3 -7t-7 -3q-9 0 -10 10q0 65 -56 129t-142.5 106.5t-179.5 42.5q-175 0 -305 -94.5t-201 -253
t-71 -352.5q0 -193 73.5 -352t206.5 -253.5t311 -94.5q106 0 200.5 33.5t165.5 82.5q7 4 13 4q15 0 16 -17q0 -9 -11 -19q-171 -120 -398 -120zM705 -309q-33 0 -60.5 10t-43.5 20t-17.5 10.5t-2.5 3t-1 5.5q0 7 5 12.5t10 5.5q4 -1 15 -8q34 -23 71 -23q40 0 60.5 18.5
t20.5 44.5q0 28 -14.5 42.5t-32.5 14.5q-32 0 -57 -16q-8 -5 -13 -6q-7 0 -11.5 5t-4.5 11l2 6l89 119h44l-67 -91q14 2 27 2q30 0 58.5 -8.5t46.5 -27.5t18 -49q0 -52 -38 -76.5t-104 -24.5z" />
    <glyph glyph-name="Egrave" unicode="&#xc8;" horiz-adv-x="842" 
d="M788 0h-713q-9 0 -9 10t9 10q29 0 49.5 20.5t20.5 49.5v1253q0 29 -20.5 49.5t-49.5 20.5q-9 0 -9 10q0 4 2.5 7t6.5 3h673l54 -201q0 -6 -2.5 -7.5t-7.5 -2.5q-6 0 -9 7q-10 38 -40.5 75.5t-77 63t-105.5 25.5h-316v-617h368q29 0 49.5 20.5t20.5 49.5q0 4 3 7t7 3
q5 0 7.5 -3t2.5 -7v-179q0 -9 -10 -10q-4 0 -7 3t-3 7q0 29 -20.5 49t-49.5 20h-368v-696h355q59 0 106 25.5t77.5 63t40.5 75.5q2 7 8 7q5 -1 7.5 -2.5t2.5 -9.5l-24 -86zM505 1503h-33l-136 176q-2 4 -2 8q0 11 15 17.5t34 6.5q18 0 34.5 -7.5t23.5 -24.5z" />
    <glyph glyph-name="Eacute" unicode="&#xc9;" horiz-adv-x="842" 
d="M788 0h-713q-9 0 -9 10t9 10q29 0 49.5 20.5t20.5 49.5v1253q0 29 -20.5 49.5t-49.5 20.5q-9 0 -9 10q0 4 2.5 7t6.5 3h673l54 -201q0 -6 -2.5 -7.5t-7.5 -2.5q-6 0 -9 7q-10 38 -40.5 75.5t-77 63t-105.5 25.5h-316v-617h368q29 0 49.5 20.5t20.5 49.5q0 4 3 7t7 3
q5 0 7.5 -3t2.5 -7v-179q0 -9 -10 -10q-4 0 -7 3t-3 7q0 29 -20.5 49t-49.5 20h-368v-696h355q59 0 106 25.5t77.5 63t40.5 75.5q2 7 8 7q5 -1 7.5 -2.5t2.5 -9.5l-24 -86zM435 1507h-32l63 176q7 17 24 24.5t35 7.5q19 0 34 -6.5t15 -17.5q0 -4 -3 -8z" />
    <glyph glyph-name="Ecircumflex" unicode="&#xca;" horiz-adv-x="842" 
d="M788 0h-713q-9 0 -9 10t9 10q29 0 49.5 20.5t20.5 49.5v1253q0 29 -20.5 49.5t-49.5 20.5q-9 0 -9 10q0 4 2.5 7t6.5 3h673l54 -201q0 -6 -2.5 -7.5t-7.5 -2.5q-6 0 -9 7q-10 38 -40.5 75.5t-77 63t-105.5 25.5h-316v-617h368q29 0 49.5 20.5t20.5 49.5q0 4 3 7t7 3
q5 0 7.5 -3t2.5 -7v-179q0 -9 -10 -10q-4 0 -7 3t-3 7q0 29 -20.5 49t-49.5 20h-368v-696h355q59 0 106 25.5t77.5 63t40.5 75.5q2 7 8 7q5 -1 7.5 -2.5t2.5 -9.5l-24 -86zM554 1510q-18 0 -34.5 7.5t-23.5 24.5l-49 131l-47 -131q-12 -31 -60 -31q-18 0 -32.5 6.5
t-14.5 16.5l2 8l136 176h33l136 -176q2 -5 2 -8q0 -10 -14.5 -17t-33.5 -7z" />
    <glyph glyph-name="Edieresis" unicode="&#xcb;" horiz-adv-x="842" 
d="M788 0h-713q-9 0 -9 10t9 10q29 0 49.5 20.5t20.5 49.5v1253q0 29 -20.5 49.5t-49.5 20.5q-9 0 -9 10q0 4 2.5 7t6.5 3h673l54 -201q0 -6 -2.5 -7.5t-7.5 -2.5q-6 0 -9 7q-10 38 -40.5 75.5t-77 63t-105.5 25.5h-316v-617h368q29 0 49.5 20.5t20.5 49.5q0 4 3 7t7 3
q5 0 7.5 -3t2.5 -7v-179q0 -9 -10 -10q-4 0 -7 3t-3 7q0 29 -20.5 49t-49.5 20h-368v-696h355q59 0 106 25.5t77.5 63t40.5 75.5q2 7 8 7q5 -1 7.5 -2.5t2.5 -9.5l-24 -86zM348 1504q-27 0 -46 19t-19 46t19 46t46 19t46 -19t19 -46t-19 -46t-46 -19zM524 1504q-27 0 -46 19
t-19 46t19 46t46 19t46 -19t19 -46t-19 -46t-46 -19z" />
    <glyph glyph-name="Igrave" unicode="&#xcc;" horiz-adv-x="325" 
d="M315 0h-239q-9 0 -10 10q0 9 10 10q29 0 49.5 20.5t20.5 49.5v1253q0 29 -20.5 49.5t-49.5 20.5q-9 0 -10 10q0 4 3 7t7 3h239q4 0 7 -3t3 -7t-3 -7t-7 -3q-29 0 -49.5 -20.5t-20.5 -49.5v-1253q0 -29 20.5 -49.5t49.5 -20.5q4 0 7 -2.5t3 -7.5q0 -4 -3 -7t-7 -3z
M212 1504h-32l-136 176q-3 4 -3 8q0 11 15 17.5t34 6.5q18 0 35 -7.5t24 -24.5z" />
    <glyph glyph-name="Iacute" unicode="&#xcd;" horiz-adv-x="325" 
d="M315 0h-239q-9 0 -10 10q0 9 10 10q29 0 49.5 20.5t20.5 49.5v1253q0 29 -20.5 49.5t-49.5 20.5q-9 0 -10 10q0 4 3 7t7 3h239q4 0 7 -3t3 -7t-3 -7t-7 -3q-29 0 -49.5 -20.5t-20.5 -49.5v-1253q0 -29 20.5 -49.5t49.5 -20.5q4 0 7 -2.5t3 -7.5q0 -4 -3 -7t-7 -3z
M211 1504h-33l64 176q14 32 59 32q19 0 33.5 -6.5t14.5 -17.5q0 -2 -0.5 -4t-137.5 -180z" />
    <glyph glyph-name="Icircumflex" unicode="&#xce;" horiz-adv-x="325" 
d="M315 0h-239q-9 0 -10 10q0 9 10 10q29 0 49.5 20.5t20.5 49.5v1253q0 29 -20.5 49.5t-49.5 20.5q-9 0 -10 10q0 4 3 7t7 3h239q4 0 7 -3t3 -7t-3 -7t-7 -3q-29 0 -49.5 -20.5t-20.5 -49.5v-1253q0 -29 20.5 -49.5t49.5 -20.5q4 0 7 -2.5t3 -7.5q0 -4 -3 -7t-7 -3z
M295 1507q-18 0 -34 7.5t-23 24.5l-49 131l-47 -131q-12 -31 -60 -31q-19 0 -33 6.5t-14 16.5l2 8l136 176h32l136 -176q3 -5 3 -8q0 -10 -15 -17t-34 -7z" />
    <glyph glyph-name="Idieresis" unicode="&#xcf;" horiz-adv-x="325" 
d="M315 0h-239q-9 0 -10 10q0 9 10 10q29 0 49.5 20.5t20.5 49.5v1253q0 29 -20.5 49.5t-49.5 20.5q-9 0 -10 10q0 4 3 7t7 3h239q4 0 7 -3t3 -7t-3 -7t-7 -3q-29 0 -49.5 -20.5t-20.5 -49.5v-1253q0 -29 20.5 -49.5t49.5 -20.5q4 0 7 -2.5t3 -7.5q0 -4 -3 -7t-7 -3z
M110 1516q-27 0 -46 19t-19 46t19 46t46 19t46.5 -19t19.5 -46t-19.5 -46t-46.5 -19zM286 1516q-26 0 -45 19t-19 46t19 46t45 19q27 0 46 -19t19 -46t-19 -46t-46 -19z" />
    <glyph glyph-name="Eth" unicode="&#xd0;" horiz-adv-x="1140" 
d="M445 36q176 0 305 89.5t200 243.5t71 347q0 194 -71 348t-200 243.5t-305 89.5h-200v-749h280v-60h-280v-552h200zM445 0h-369q-4 0 -7 3t-3 7q0 5 3 7.5t7 2.5q29 0 49.5 21t20.5 49v498h-218v60h218v695q0 29 -20 50q-21 20 -50 20q-4 0 -7 3t-3 7q0 5 3 7.5t7 2.5h369
q212 0 368 -94.5t241.5 -256.5t85.5 -366q0 -202 -85.5 -364.5t-241.5 -257t-368 -94.5z" />
    <glyph glyph-name="Ntilde" unicode="&#xd1;" horiz-adv-x="949" 
d="M870 0h-80l-605 1323v-1233q0 -29 20.5 -49.5t49.5 -20.5q9 0 10 -10q0 -9 -10 -10h-179q-9 0 -10 10q0 9 10 10q29 0 49.5 20.5t20.5 49.5v1253q0 29 -20.5 49.5t-49.5 20.5q-9 0 -10 10q0 4 3 7t7 3h169l585 -1280v1190q0 29 -20.5 49.5t-49.5 20.5q-4 0 -7 3t-3 7t3 7
t7 3h179q5 0 7.5 -3t2.5 -7q0 -9 -10 -10q-28 0 -48.5 -20.5t-20.5 -49.5v-1343zM338 1453q-17 0 -17 10q0 59 23 89t86 30q33 0 71.5 -4.5t73.5 -4.5q36 0 60.5 9.5t24.5 37.5q0 5 5 8t12 3q6 0 11.5 -3t5.5 -8q0 -61 -20.5 -90.5t-80.5 -29.5q-35 0 -78 6t-81 6
q-81 0 -81 -49q0 -4 -5 -7t-10 -3z" />
    <glyph glyph-name="Ograve" unicode="&#xd2;" horiz-adv-x="1519" 
d="M792 -20q-159 0 -287 57.5t-219.5 158t-140.5 234t-49 286.5t49 286.5t140.5 234t219.5 158t287 57.5t287.5 -57.5t220 -158t140.5 -234t49 -286.5t-49 -286.5t-140.5 -234t-220 -158t-287.5 -57.5zM792 16q176 0 305.5 94.5t200.5 253.5t71 352q0 194 -71 352.5
t-200.5 253t-305.5 94.5q-175 0 -305 -94.5t-201 -253t-71 -352.5q0 -193 71 -352t201 -253.5t305 -94.5zM825 1497h-32l-136 176q-3 4 -3 8q0 11 15 17.5t34 6.5q18 0 35 -7.5t24 -24.5z" />
    <glyph glyph-name="Oacute" unicode="&#xd3;" horiz-adv-x="1519" 
d="M792 -20q-159 0 -287 57.5t-219.5 158t-140.5 234t-49 286.5t49 286.5t140.5 234t219.5 158t287 57.5t287.5 -57.5t220 -158t140.5 -234t49 -286.5t-49 -286.5t-140.5 -234t-220 -158t-287.5 -57.5zM792 16q176 0 305.5 94.5t200.5 253.5t71 352q0 194 -71 352.5
t-200.5 253t-305.5 94.5q-175 0 -305 -94.5t-201 -253t-71 -352.5q0 -193 71 -352t201 -253.5t305 -94.5zM789 1500h-33l64 176q7 17 23.5 24.5t34.5 7.5q20 0 34.5 -6.5t14.5 -17.5q0 -2 -0.5 -4t-137.5 -180z" />
    <glyph glyph-name="Ocircumflex" unicode="&#xd4;" horiz-adv-x="1519" 
d="M792 -20q-159 0 -287 57.5t-219.5 158t-140.5 234t-49 286.5t49 286.5t140.5 234t219.5 158t287 57.5t287.5 -57.5t220 -158t140.5 -234t49 -286.5t-49 -286.5t-140.5 -234t-220 -158t-287.5 -57.5zM792 16q176 0 305.5 94.5t200.5 253.5t71 352q0 194 -71 352.5
t-200.5 253t-305.5 94.5q-175 0 -305 -94.5t-201 -253t-71 -352.5q0 -193 71 -352t201 -253.5t305 -94.5zM904 1500q-18 0 -34 7.5t-23 24.5l-49 131l-47 -131q-13 -31 -60 -31q-19 0 -33 6.5t-14 16.5l2 8l136 176h32l136 -176q3 -5 3 -8q0 -10 -15 -17t-34 -7z" />
    <glyph glyph-name="Otilde" unicode="&#xd5;" horiz-adv-x="1519" 
d="M792 -20q-159 0 -287 57.5t-219.5 158t-140.5 234t-49 286.5t49 286.5t140.5 234t219.5 158t287 57.5t287.5 -57.5t220 -158t140.5 -234t49 -286.5t-49 -286.5t-140.5 -234t-220 -158t-287.5 -57.5zM792 16q176 0 305.5 94.5t200.5 253.5t71 352q0 194 -71 352.5
t-200.5 253t-305.5 94.5q-175 0 -305 -94.5t-201 -253t-71 -352.5q0 -193 71 -352t201 -253.5t305 -94.5zM623 1494q-17 0 -17 10q0 59 23 89t86 30q33 0 71.5 -4.5t73.5 -4.5q36 0 60.5 9.5t24.5 37.5q0 5 5 8t12 3q6 0 11.5 -3t5.5 -8q0 -61 -20.5 -90.5t-80.5 -29.5
q-35 0 -78 6t-81 6q-81 0 -81 -49q0 -4 -5 -7t-10 -3z" />
    <glyph glyph-name="Odieresis" unicode="&#xd6;" horiz-adv-x="1519" 
d="M792 -20q-159 0 -287 57.5t-219.5 158t-140.5 234t-49 286.5t49 286.5t140.5 234t219.5 158t287 57.5t287.5 -57.5t220 -158t140.5 -234t49 -286.5t-49 -286.5t-140.5 -234t-220 -158t-287.5 -57.5zM792 16q176 0 305.5 94.5t200.5 253.5t71 352q0 194 -71 352.5
t-200.5 253t-305.5 94.5q-175 0 -305 -94.5t-201 -253t-71 -352.5q0 -193 71 -352t201 -253.5t305 -94.5zM704 1498q-27 0 -46 19t-19 46t19 46t46 19t46.5 -19t19.5 -46t-19.5 -46t-46.5 -19zM880 1498q-26 0 -45 19t-19 46t19 46t45 19q27 0 46 -19t19 -46t-19 -46
t-46 -19z" />
    <glyph glyph-name="multiply" unicode="&#xd7;" horiz-adv-x="664" 
d="M572 351l-232 232l-232 -232l-42 42l232 232l-232 232l42 43l232 -232l232 232l43 -43l-233 -232l233 -232z" />
    <glyph glyph-name="Oslash" unicode="&#xd8;" horiz-adv-x="1459" 
d="M762 16q176 0 305.5 94.5t200.5 253.5t71 352q0 194 -71 353q-95 212 -286 303l-371 -1336q70 -20 151 -20zM574 48l372 1338q-85 30 -184 30q-175 0 -304.5 -94t-200 -251.5t-72.5 -354.5q0 -193 71.5 -352t201.5 -253q54 -40 116 -63zM762 -20q-105 0 -196 25h-4v1
q-45 12 -87 32q-127 57 -218.5 158t-141 235t-49.5 285q0 153 49.5 287t141 234.5t219 157.5t286.5 57q104 0 195 -24q66 -21 93 -33q128 -57 219.5 -157.5t140.5 -234.5t49 -287q0 -151 -49 -285t-140.5 -235t-220 -158.5t-287.5 -57.5z" />
    <glyph glyph-name="Ugrave" unicode="&#xd9;" horiz-adv-x="961" 
d="M514 -20q-117 0 -200 58q-168 118 -168 499v806q0 29 -20.5 49.5t-49.5 20.5q-10 0 -10 9t10 10h239q9 0 9 -10q0 -4 -2.5 -6.5t-6.5 -2.5q-29 0 -49.5 -20.5t-20.5 -49.5v-806q0 -193 37.5 -304t106.5 -157.5t161 -46.5q82 0 148 51.5t105 163.5t39 293v806
q0 29 -20.5 49.5t-49.5 20.5q-4 0 -7 2.5t-3 6.5q0 5 3 7.5t7 2.5h179q9 0 10 -10q0 -9 -10 -9q-28 0 -48.5 -20.5t-20.5 -49.5v-806q0 -195 -43 -318q-84 -239 -325 -239zM556 1507h-33l-136 176q-2 2 -2 8q0 11 14.5 17.5t33.5 6.5q45 0 59 -32z" />
    <glyph glyph-name="Uacute" unicode="&#xda;" horiz-adv-x="961" 
d="M514 -20q-117 0 -200 58q-168 118 -168 499v806q0 29 -20.5 49.5t-49.5 20.5q-10 0 -10 9t10 10h239q9 0 9 -10q0 -4 -2.5 -6.5t-6.5 -2.5q-29 0 -49.5 -20.5t-20.5 -49.5v-806q0 -193 37.5 -304t106.5 -157.5t161 -46.5q82 0 148 51.5t105 163.5t39 293v806
q0 29 -20.5 49.5t-49.5 20.5q-4 0 -7 2.5t-3 6.5q0 5 3 7.5t7 2.5h179q9 0 10 -10q0 -9 -10 -9q-28 0 -48.5 -20.5t-20.5 -49.5v-806q0 -195 -43 -318q-84 -239 -325 -239zM513 1500h-32l63 176q7 17 24 24.5t35 7.5q19 0 34 -6.5t15 -17.5q0 -4 -3 -8z" />
    <glyph glyph-name="Ucircumflex" unicode="&#xdb;" horiz-adv-x="961" 
d="M514 -20q-117 0 -200 58q-168 118 -168 499v806q0 29 -20.5 49.5t-49.5 20.5q-10 0 -10 9t10 10h239q9 0 9 -10q0 -4 -2.5 -6.5t-6.5 -2.5q-29 0 -49.5 -20.5t-20.5 -49.5v-806q0 -193 37.5 -304t106.5 -157.5t161 -46.5q82 0 148 51.5t105 163.5t39 293v806
q0 29 -20.5 49.5t-49.5 20.5q-4 0 -7 2.5t-3 6.5q0 5 3 7.5t7 2.5h179q9 0 10 -10q0 -9 -10 -9q-28 0 -48.5 -20.5t-20.5 -49.5v-806q0 -195 -43 -318q-84 -239 -325 -239zM631 1479q-17 0 -33.5 7.5t-23.5 24.5l-49 131l-47 -131q-12 -31 -60 -31q-18 0 -32.5 6.5
t-14.5 16.5l2 8l136 176h33l136 -176q2 -5 2 -8q0 -10 -14.5 -17t-34.5 -7z" />
    <glyph glyph-name="Udieresis" unicode="&#xdc;" horiz-adv-x="961" 
d="M514 -20q-117 0 -200 58q-168 118 -168 499v806q0 29 -20.5 49.5t-49.5 20.5q-10 0 -10 9t10 10h239q9 0 9 -10q0 -4 -2.5 -6.5t-6.5 -2.5q-29 0 -49.5 -20.5t-20.5 -49.5v-806q0 -193 37.5 -304t106.5 -157.5t161 -46.5q82 0 148 51.5t105 163.5t39 293v806
q0 29 -20.5 49.5t-49.5 20.5q-4 0 -7 2.5t-3 6.5q0 5 3 7.5t7 2.5h179q9 0 10 -10q0 -9 -10 -9q-28 0 -48.5 -20.5t-20.5 -49.5v-806q0 -195 -43 -318q-84 -239 -325 -239zM432 1500q-27 0 -46 19t-19 46t19 46t46 19q26 0 45.5 -19t19.5 -46t-19.5 -46t-45.5 -19zM608 1500
q-27 0 -46 19t-19 46t19 46t46 19t46 -19t19 -46t-19 -46t-46 -19z" />
    <glyph glyph-name="Yacute" unicode="&#xdd;" horiz-adv-x="956" 
d="M631 0h-239q-9 0 -10 10q0 9 10 10q29 0 49 20.5t20 49.5v646l-303 607q-33 70 -82 70q-9 0 -10 10q0 4 3 7t7 3h236q5 0 7.5 -3t2.5 -7q0 -9 -10 -10q-22 0 -39.5 -13t-17.5 -34q0 -10 6 -23l282 -563l278 563q6 13 6 23q0 20 -17.5 33.5t-40.5 13.5q-9 0 -9 10
q0 4 2.5 7t6.5 3h177q5 0 7.5 -3t2.5 -7q0 -9 -10 -10q-47 0 -82 -70l-303 -607v-646q0 -29 20.5 -49.5t49.5 -20.5q9 0 9 -10t-9 -10zM539 1502h-32l64 176q7 17 23.5 24.5t34.5 7.5q19 0 34 -6.5t15 -17.5q0 -4 -3 -8z" />
    <glyph glyph-name="Ydieresis" unicode="&#x178;" horiz-adv-x="956" 
d="M631 0h-239q-9 0 -10 10q0 9 10 10q29 0 49 20.5t20 49.5v646l-303 607q-33 70 -82 70q-9 0 -10 10q0 4 3 7t7 3h236q5 0 7.5 -3t2.5 -7q0 -9 -10 -10q-22 0 -39.5 -13t-17.5 -34q0 -10 6 -23l282 -563l278 563q6 13 6 23q0 20 -17.5 33.5t-40.5 13.5q-9 0 -9 10
q0 4 2.5 7t6.5 3h177q5 0 7.5 -3t2.5 -7q0 -9 -10 -10q-47 0 -82 -70l-303 -607v-646q0 -29 20.5 -49.5t49.5 -20.5q9 0 9 -10t-9 -10zM426 1495q-27 0 -46 19t-19 46t19 46t46 19t46 -19t19 -46t-19 -46t-46 -19zM602 1495q-27 0 -46 19t-19 46t19 46t46 19t46 -19t19 -46
t-19 -46t-46 -19z" />
    <glyph glyph-name="Thorn" unicode="&#xde;" horiz-adv-x="922" 
d="M315 0h-239q-9 0 -10 10q0 9 10 10q29 0 49.5 20.5t20.5 48.5v1254q0 29 -20.5 49.5t-49.5 20.5q-9 0 -10 10q0 4 3 7t7 3h239q4 0 7 -3t3 -7t-3 -7t-7 -3q-29 0 -49.5 -20.5t-20.5 -49.5v-259h329q111 0 188.5 -50t118.5 -133.5t41 -184.5t-41 -184.5t-118.5 -133.5
t-188.5 -50h-329v-259q0 -28 20.5 -48.5t49.5 -20.5q4 0 7 -2.5t3 -7.5q0 -4 -3 -7t-7 -3zM544 388q119 0 198.5 91.5t79.5 236.5q0 146 -79.5 237t-198.5 91h-299v-656h299z" />
    <glyph glyph-name="germandbls" unicode="&#xdf;" horiz-adv-x="872" 
d="M465 0q-78 0 -146 26q-14 8 -14 21q0 9 6.5 17t17.5 8q6 0 15 -4q54 -28 121 -28q131 0 209 92t78 256q0 96 -35.5 175t-100 126t-151.5 47h-28v40q79 0 137.5 41t90.5 111t32 156q0 87 -26 156.5t-76.5 110.5t-123.5 41q-100 0 -163 -85t-63 -223v-1084h-169
q-9 0 -10 10q0 4 3 7t7 3q29 0 49 20.5t20 48.5v952q0 116 43 204t116 137.5t163 49.5q100 0 174 -47t114.5 -126t40.5 -175q0 -108 -51 -193.5t-142 -126.5q126 -35 197.5 -138t71.5 -238q0 -113 -55.5 -201t-147.5 -137.5t-204 -49.5z" />
    <glyph glyph-name="agrave" unicode="&#xe0;" 
d="M893 0h-226q-4 0 -7 3t-3 7t3 7t7 3q26 0 49.5 12.5t23.5 40.5q0 7 -126 441h-309l-123 -424q-3 -9 -3 -18q0 -27 23.5 -39.5t48.5 -12.5q5 0 7.5 -3t2.5 -7q0 -9 -10 -10h-175q-4 0 -7 3t-3 7t3 7t7 3q29 0 47 25t26 56l318 1093h35l313 -1077q9 -32 30.5 -64.5
t47.5 -32.5q4 0 7 -3t3 -7t-3 -7t-7 -3zM604 547l-145 498l-144 -498h289zM496 1276h-32l-136 176q-2 2 -2 8q0 11 14.5 17.5t33.5 6.5q18 0 35 -7.5t24 -24.5z" />
    <glyph glyph-name="aacute" unicode="&#xe1;" 
d="M893 0h-226q-4 0 -7 3t-3 7t3 7t7 3q26 0 49.5 12.5t23.5 40.5q0 7 -126 441h-309l-123 -424q-3 -9 -3 -18q0 -27 23.5 -39.5t48.5 -12.5q5 0 7.5 -3t2.5 -7q0 -9 -10 -10h-175q-4 0 -7 3t-3 7t3 7t7 3q29 0 47 25t26 56l318 1093h35l313 -1077q9 -32 30.5 -64.5
t47.5 -32.5q4 0 7 -3t3 -7t-3 -7t-7 -3zM604 547l-145 498l-144 -498h289zM505 1273h-32l63 176q7 17 24 24.5t35 7.5q19 0 33.5 -6.5t14.5 -17.5q0 -2 -0.5 -4t-137.5 -180z" />
    <glyph glyph-name="acircumflex" unicode="&#xe2;" 
d="M893 0h-226q-4 0 -7 3t-3 7t3 7t7 3q26 0 49.5 12.5t23.5 40.5q0 7 -126 441h-309l-123 -424q-3 -9 -3 -18q0 -27 23.5 -39.5t48.5 -12.5q5 0 7.5 -3t2.5 -7q0 -9 -10 -10h-175q-4 0 -7 3t-3 7t3 7t7 3q29 0 47 25t26 56l318 1093h35l313 -1077q9 -32 30.5 -64.5
t47.5 -32.5q4 0 7 -3t3 -7t-3 -7t-7 -3zM604 547l-145 498l-144 -498h289zM598 1254q-18 0 -34 7.5t-23 24.5l-49 131l-47 -131q-12 -31 -60 -31q-19 0 -33 6.5t-14 16.5l2 8l136 176h33l135 -176q3 -5 3 -8q0 -10 -14.5 -17t-34.5 -7z" />
    <glyph glyph-name="atilde" unicode="&#xe3;" 
d="M893 0h-226q-4 0 -7 3t-3 7t3 7t7 3q26 0 49.5 12.5t23.5 40.5q0 7 -126 441h-309l-123 -424q-3 -9 -3 -18q0 -27 23.5 -39.5t48.5 -12.5q5 0 7.5 -3t2.5 -7q0 -9 -10 -10h-175q-4 0 -7 3t-3 7t3 7t7 3q29 0 47 25t26 56l318 1093h35l313 -1077q9 -32 30.5 -64.5
t47.5 -32.5q4 0 7 -3t3 -7t-3 -7t-7 -3zM604 547l-145 498l-144 -498h289zM322 1224q-17 0 -17 10q0 59 23 89t87 30q32 0 71 -4.5t73 -4.5q36 0 60.5 9.5t24.5 37.5q0 5 5.5 8t11.5 3t11.5 -3t5.5 -8q0 -61 -20.5 -90.5t-80.5 -29.5q-35 0 -78 6t-81 6q-34 0 -57 -10
t-23 -39q0 -4 -5.5 -7t-10.5 -3z" />
    <glyph glyph-name="adieresis" unicode="&#xe4;" 
d="M893 0h-226q-4 0 -7 3t-3 7t3 7t7 3q26 0 49.5 12.5t23.5 40.5q0 7 -126 441h-309l-123 -424q-3 -9 -3 -18q0 -27 23.5 -39.5t48.5 -12.5q5 0 7.5 -3t2.5 -7q0 -9 -10 -10h-175q-4 0 -7 3t-3 7t3 7t7 3q29 0 47 25t26 56l318 1093h35l313 -1077q9 -32 30.5 -64.5
t47.5 -32.5q4 0 7 -3t3 -7t-3 -7t-7 -3zM604 547l-145 498l-144 -498h289zM396 1256q-27 0 -46 19t-19 46t19 46t46 19t46.5 -19t19.5 -46t-19.5 -46t-46.5 -19zM573 1256q-27 0 -46 19t-19 46t19 46t46 19t46 -19t19 -46t-19 -46t-46 -19z" />
    <glyph glyph-name="aring" unicode="&#xe5;" 
d="M893 0h-226q-4 0 -7 3t-3 7t3 7t7 3q26 0 49.5 12.5t23.5 40.5q0 7 -126 441h-309l-123 -424q-3 -9 -3 -18q0 -27 23.5 -39.5t48.5 -12.5q5 0 7.5 -3t2.5 -7q0 -9 -10 -10h-175q-4 0 -7 3t-3 7t3 7t7 3q29 0 47 25t26 56l318 1093h35l313 -1077q9 -32 30.5 -64.5
t47.5 -32.5q4 0 7 -3t3 -7t-3 -7t-7 -3zM604 547l-145 498l-144 -498h289zM481 1246q-53 0 -90.5 38t-37.5 90q0 53 37.5 90.5t90.5 37.5t90 -37.5t37 -90.5q0 -52 -37 -90t-90 -38zM481 1292q34 0 58 24t24 58q0 35 -24 58.5t-58 23.5t-58.5 -23.5t-24.5 -58.5
q0 -34 24.5 -58t58.5 -24z" />
    <glyph glyph-name="ae" unicode="&#xe6;" horiz-adv-x="1336" 
d="M604 547l-145 498l-144 -498h289zM1285 0h-618q-10 0 -10 10t8 10h2q26 0 49.5 12.5t23.5 40.5q0 6 -126 441h-309q-126 -434 -126 -442q0 -27 23.5 -39.5t48.5 -12.5q10 0 10 -8q0 -11 -10 -12h-175q-10 0 -10 10t8 10h2q53 0 73 81l318 1093h35l247 -850v760
q0 29 -20.5 49.5t-49.5 20.5q-9 0 -9 10q0 5 2.5 7.5t579.5 2.5l52 -196q0 -6 -10 -8q-7 0 -9 7q-11 38 -41 76t-76.5 63t-105.5 25h-230v-514h292q29 0 49.5 20.5t20.5 48.5q0 10 8 10q10 0 11 -10v-172q0 -9 -10 -10q-9 0 -9 10q0 29 -20.5 49.5t-49.5 20.5h-292v-539
q0 -36 30 -42h233q59 0 105.5 26t76.5 63.5t41 74.5q0 7 6 7h2q10 -2 10 -10z" />
    <glyph glyph-name="oe" unicode="&#x153;" horiz-adv-x="1753" 
d="M643 10q146 0 253 79.5t166 212.5t59 295t-59 295.5t-166 212.5t-253 79q-145 0 -252.5 -79t-166.5 -212.5t-59 -295.5t59 -295t166.5 -212.5t252.5 -79.5zM643 -20q-175 0 -305 83t-201 223t-71 311q0 170 71 310t201 223.5t305 83.5q176 0 305 -83q147 -95 218 -260
v233q0 29 -20 50q-21 20 -50 20q-4 0 -6.5 3t-2.5 7q0 5 2.5 7.5t6.5 2.5h573l8 -29q12 -46 15 -58.5t8 -28.5l20 -77q0 -5 -1 -6.5t-9 -4.5q-6 0 -8 7q-11 38 -41 76t-76.5 63t-105.5 25h-230v-514h292q29 0 49.5 20.5t20.5 48.5q0 10 9 10t10 -10v-172q0 -9 -10 -10
q-4 0 -6.5 3t-2.5 7q0 29 -20.5 49.5t-49.5 20.5h-292v-581h263q59 0 105.5 26t76.5 63.5t41 74.5q0 3 2.5 5t5.5 2q2 -1 4 -1t4 -1.5t2 -9.5l-21 -79l-8 -33l-22 -80h-606q-4 0 -6.5 3t-2.5 7q0 5 2.5 7.5t6.5 2.5q29 0 49.5 21t20.5 49v232q-71 -166 -218 -259
q-129 -83 -305 -83z" />
    <glyph glyph-name="ccedilla" unicode="&#xe7;" horiz-adv-x="1022" 
d="M679 -20q-177 0 -308 83t-203 223t-72 310q0 171 72 311t203 223t308 83q164 0 307 -109q10 0 10 37q0 9 10 9t10 -9v-191q0 -9 -10 -10q-9 0 -10 10q0 54 -47 108t-119.5 89.5t-150.5 35.5q-147 0 -255.5 -79t-168 -212t-59.5 -296q0 -162 61.5 -295t173 -212t260.5 -79
q89 0 168.5 28t138.5 69q7 4 11 4q6 0 9.5 -4.5t3.5 -10.5q0 -7 -9 -16q-144 -100 -334 -100zM593 -314q-33 0 -60.5 10t-43.5 20t-17.5 10.5t-2.5 3t-1 5.5q0 7 5 12.5t10 5.5q4 -1 15 -8q34 -23 71 -23q40 0 60 18.5t20 44.5q0 28 -14 42.5t-33 14.5q-31 0 -56 -16
q-8 -5 -13 -6q-7 0 -12 5t-5 11l2 6l89 119h45l-68 -91q13 2 28 2q30 0 58.5 -8.5t46.5 -27.5t18 -49q0 -52 -38 -76.5t-104 -24.5z" />
    <glyph glyph-name="egrave" unicode="&#xe8;" horiz-adv-x="732" 
d="M681 0h-606q-9 0 -9 10q0 4 2.5 7t6.5 3q29 0 49.5 20.5t20.5 49.5v1014q0 29 -20.5 49.5t-49.5 20.5q-9 0 -9 10q0 4 2.5 7t6.5 3h573l28 -104q19 -77 24 -92q0 -7 -10 -8q-6 0 -9 7q-10 38 -40.5 75.5t-77 63t-105.5 25.5h-230v-514h292q29 0 49.5 20.5t20.5 48.5
q0 10 9 10t10 -10v-172q0 -9 -10 -10q-9 0 -9 10q0 29 -20.5 49.5t-49.5 20.5h-292v-581h263q59 0 105.5 25.5t77 63t40.5 75.5q2 7 8 7q5 -1 7.5 -2.5t2.5 -9.5zM430 1276h-32l-136 176q-3 4 -3 8q0 11 15 17.5t34 6.5q18 0 34.5 -7.5t23.5 -24.5z" />
    <glyph glyph-name="eacute" unicode="&#xe9;" horiz-adv-x="732" 
d="M681 0h-606q-9 0 -9 10q0 4 2.5 7t6.5 3q29 0 49.5 20.5t20.5 49.5v1014q0 29 -20.5 49.5t-49.5 20.5q-9 0 -9 10q0 4 2.5 7t6.5 3h573l28 -104q19 -77 24 -92q0 -7 -10 -8q-6 0 -9 7q-10 38 -40.5 75.5t-77 63t-105.5 25.5h-230v-514h292q29 0 49.5 20.5t20.5 48.5
q0 10 9 10t10 -10v-172q0 -9 -10 -10q-9 0 -9 10q0 29 -20.5 49.5t-49.5 20.5h-292v-581h263q59 0 105.5 25.5t77 63t40.5 75.5q2 7 8 7q5 -1 7.5 -2.5t2.5 -9.5zM401 1276h-33l64 176q7 17 23.5 24.5t34.5 7.5q20 0 34.5 -6.5t14.5 -17.5q0 -4 -2 -8z" />
    <glyph glyph-name="ecircumflex" unicode="&#xea;" horiz-adv-x="732" 
d="M681 0h-606q-9 0 -9 10q0 4 2.5 7t6.5 3q29 0 49.5 20.5t20.5 49.5v1014q0 29 -20.5 49.5t-49.5 20.5q-9 0 -9 10q0 4 2.5 7t6.5 3h573l28 -104q19 -77 24 -92q0 -7 -10 -8q-6 0 -9 7q-10 38 -40.5 75.5t-77 63t-105.5 25.5h-230v-514h292q29 0 49.5 20.5t20.5 48.5
q0 10 9 10t10 -10v-172q0 -9 -10 -10q-9 0 -9 10q0 29 -20.5 49.5t-49.5 20.5h-292v-581h263q59 0 105.5 25.5t77 63t40.5 75.5q2 7 8 7q5 -1 7.5 -2.5t2.5 -9.5zM505 1276q-18 0 -34 7.5t-23 24.5l-50 131l-46 -131q-13 -31 -60 -31q-19 0 -33 6.5t-14 16.5l2 8l136 176h32
l136 -176q3 -5 3 -8q0 -10 -15 -17t-34 -7z" />
    <glyph glyph-name="edieresis" unicode="&#xeb;" horiz-adv-x="732" 
d="M681 0h-606q-9 0 -9 10q0 4 2.5 7t6.5 3q29 0 49.5 20.5t20.5 49.5v1014q0 29 -20.5 49.5t-49.5 20.5q-9 0 -9 10q0 4 2.5 7t6.5 3h573l28 -104q19 -77 24 -92q0 -7 -10 -8q-6 0 -9 7q-10 38 -40.5 75.5t-77 63t-105.5 25.5h-230v-514h292q29 0 49.5 20.5t20.5 48.5
q0 10 9 10t10 -10v-172q0 -9 -10 -10q-9 0 -9 10q0 29 -20.5 49.5t-49.5 20.5h-292v-581h263q59 0 105.5 25.5t77 63t40.5 75.5q2 7 8 7q5 -1 7.5 -2.5t2.5 -9.5zM307 1275q-27 0 -46 19t-19 46t19 46t46 19t46 -19t19 -46t-19 -46t-46 -19zM483 1275q-27 0 -46 19t-19 46
t19 46t46 19t46 -19t19 -46t-19 -46t-46 -19z" />
    <glyph glyph-name="igrave" unicode="&#xec;" horiz-adv-x="308" 
d="M298 0h-222q-9 0 -10 10q0 9 10 10q29 0 49.5 20.5t20.5 49.5v1014q0 29 -20.5 49.5t-49.5 20.5q-4 0 -7 3t-3 7q0 9 10 10h222q9 0 10 -10q0 -4 -2.5 -7t-7.5 -3q-28 0 -48.5 -20.5t-20.5 -49.5v-1014q0 -29 20.5 -49.5t48.5 -20.5q9 0 10 -10q0 -9 -10 -10zM222 1284
h-33l-135 176q-3 4 -3 8q0 11 15 17.5t34 6.5q18 0 34.5 -7.5t23.5 -24.5z" />
    <glyph glyph-name="iacute" unicode="&#xed;" horiz-adv-x="308" 
d="M298 0h-222q-9 0 -10 10q0 9 10 10q29 0 49.5 20.5t20.5 49.5v1014q0 29 -20.5 49.5t-49.5 20.5q-4 0 -7 3t-3 7q0 9 10 10h222q9 0 10 -10q0 -4 -2.5 -7t-7.5 -3q-28 0 -48.5 -20.5t-20.5 -49.5v-1014q0 -29 20.5 -49.5t48.5 -20.5q9 0 10 -10q0 -9 -10 -10zM203 1280
h-32l64 176q7 17 23.5 24.5t34.5 7.5q19 0 34 -6.5t15 -17.5q0 -4 -3 -8z" />
    <glyph glyph-name="icircumflex" unicode="&#xee;" horiz-adv-x="308" 
d="M298 0h-222q-9 0 -10 10q0 9 10 10q29 0 49.5 20.5t20.5 49.5v1014q0 29 -20.5 49.5t-49.5 20.5q-4 0 -7 3t-3 7q0 9 10 10h222q9 0 10 -10q0 -4 -2.5 -7t-7.5 -3q-28 0 -48.5 -20.5t-20.5 -49.5v-1014q0 -29 20.5 -49.5t48.5 -20.5q9 0 10 -10q0 -9 -10 -10zM292 1254
q-17 0 -33.5 7.5t-23.5 24.5l-49 131l-47 -131q-12 -31 -60 -31q-18 0 -32.5 6.5t-14.5 16.5l2 8l136 176h33l136 -176q2 -5 2 -8q0 -10 -14.5 -17t-34.5 -7z" />
    <glyph glyph-name="idieresis" unicode="&#xef;" horiz-adv-x="308" 
d="M298 0h-222q-9 0 -10 10q0 9 10 10q29 0 49.5 20.5t20.5 49.5v1014q0 29 -20.5 49.5t-49.5 20.5q-4 0 -7 3t-3 7q0 9 10 10h222q9 0 10 -10q0 -4 -2.5 -7t-7.5 -3q-28 0 -48.5 -20.5t-20.5 -49.5v-1014q0 -29 20.5 -49.5t48.5 -20.5q9 0 10 -10q0 -9 -10 -10zM94 1260
q-27 0 -46 19t-19 46t19 46t46 19t46 -19t19 -46t-19 -46t-46 -19zM270 1260q-27 0 -46 19t-19 46t19 46t46 19t46 -19t19 -46t-19 -46t-46 -19z" />
    <glyph glyph-name="eth" unicode="&#xf0;" horiz-adv-x="975" 
d="M395 30q146 0 253.5 74.5t167 203.5t59.5 289q0 161 -59.5 289.5t-166.5 203.5q-108 74 -254 74h-167v-509h285v-60h-285v-565h167zM395 0h-319q-4 0 -7 3t-3 7q0 5 3 7.5t7 2.5q29 0 49.5 21t20.5 49v505h-230v60h230v449q0 29 -20 50q-21 20 -50 20q-4 0 -7 3t-3 7
q0 5 3 7.5t7 2.5h319q176 0 306.5 -78.5t202 -213.5t71.5 -305q0 -169 -71.5 -304.5t-202 -214t-306.5 -78.5z" />
    <glyph glyph-name="ntilde" unicode="&#xf1;" horiz-adv-x="828" 
d="M749 0h-66l-504 1103v-1013q0 -29 20.5 -49.5t48.5 -20.5q9 0 10 -10q0 -4 -2.5 -7t-7.5 -3h-172q-4 0 -7 3t-3 7q0 9 10 10q29 0 49.5 20.5t20.5 49.5v1015q0 29 -20.5 49t-49.5 20q-4 0 -7 3t-3 7q0 9 10 10h152l488 -1066v977q0 29 -20.5 49t-49.5 20q-4 0 -7 3t-3 7
q0 5 3 7.5t7 2.5h173q9 0 9 -10q0 -4 -2.5 -7t-6.5 -3q-29 0 -49.5 -20t-20.5 -49v-1105zM282 1227q-17 0 -17 10q0 59 23 89t86 30q33 0 71.5 -4.5t73.5 -4.5q36 0 60.5 9.5t24.5 37.5q0 5 5 8t12 3q6 0 11.5 -3t5.5 -8q0 -61 -20.5 -90.5t-80.5 -29.5q-35 0 -78.5 6
t-80.5 6q-81 0 -81 -49q0 -4 -5 -7t-10 -3z" />
    <glyph glyph-name="ograve" unicode="&#xf2;" horiz-adv-x="1280" 
d="M673 -20q-175 0 -305 83t-201 223.5t-71 310.5q0 171 71 311t201 223t305 83q176 0 305.5 -83t200.5 -223t71 -311q0 -170 -71 -310.5t-200.5 -223.5t-305.5 -83zM673 10q145 0 252.5 79.5t166.5 212.5t59 295t-59 295.5t-166.5 212.5t-252.5 79t-252.5 -79
t-166.5 -212.5t-59 -295.5t59 -295t166.5 -212.5t252.5 -79.5zM678 1269h-32l-136 176q-3 4 -3 8q0 11 15 17.5t34 6.5q18 0 34.5 -7.5t23.5 -24.5z" />
    <glyph glyph-name="oacute" unicode="&#xf3;" horiz-adv-x="1280" 
d="M673 -20q-175 0 -305 83t-201 223.5t-71 310.5q0 171 71 311t201 223t305 83q176 0 305.5 -83t200.5 -223t71 -311q0 -170 -71 -310.5t-200.5 -223.5t-305.5 -83zM673 10q145 0 252.5 79.5t166.5 212.5t59 295t-59 295.5t-166.5 212.5t-252.5 79t-252.5 -79
t-166.5 -212.5t-59 -295.5t59 -295t166.5 -212.5t252.5 -79.5zM640 1280h-32l64 176q7 17 23.5 24.5t34.5 7.5q19 0 34 -6.5t15 -17.5q0 -4 -3 -8z" />
    <glyph glyph-name="ocircumflex" unicode="&#xf4;" horiz-adv-x="1280" 
d="M673 -20q-175 0 -305 83t-201 223.5t-71 310.5q0 171 71 311t201 223t305 83q176 0 305.5 -83t200.5 -223t71 -311q0 -170 -71 -310.5t-200.5 -223.5t-305.5 -83zM673 10q145 0 252.5 79.5t166.5 212.5t59 295t-59 295.5t-166.5 212.5t-252.5 79t-252.5 -79
t-166.5 -212.5t-59 -295.5t59 -295t166.5 -212.5t252.5 -79.5zM745 1265q-18 0 -34 7.5t-23 24.5l-50 131l-47 -131q-12 -31 -60 -31q-18 0 -32.5 6.5t-14.5 16.5l3 8l136 176h32l136 -176q3 -5 3 -8q0 -10 -15 -17t-34 -7z" />
    <glyph glyph-name="otilde" unicode="&#xf5;" horiz-adv-x="1280" 
d="M673 -20q-175 0 -305 83t-201 223.5t-71 310.5q0 171 71 311t201 223t305 83q176 0 305.5 -83t200.5 -223t71 -311q0 -170 -71 -310.5t-200.5 -223.5t-305.5 -83zM673 10q145 0 252.5 79.5t166.5 212.5t59 295t-59 295.5t-166.5 212.5t-252.5 79t-252.5 -79
t-166.5 -212.5t-59 -295.5t59 -295t166.5 -212.5t252.5 -79.5zM473 1242q-16 0 -16 10q0 59 23 89t86 30q32 0 71 -4.5t74 -4.5q36 0 60.5 9.5t24.5 37.5q0 5 5 8t12 3q6 0 11 -3t5 -8q0 -61 -20 -90.5t-81 -29.5q-34 0 -77.5 6t-80.5 6q-81 0 -81 -49q0 -4 -5 -7t-11 -3z
" />
    <glyph glyph-name="odieresis" unicode="&#xf6;" horiz-adv-x="1280" 
d="M673 -20q-175 0 -305 83t-201 223.5t-71 310.5q0 171 71 311t201 223t305 83q176 0 305.5 -83t200.5 -223t71 -311q0 -170 -71 -310.5t-200.5 -223.5t-305.5 -83zM673 10q145 0 252.5 79.5t166.5 212.5t59 295t-59 295.5t-166.5 212.5t-252.5 79t-252.5 -79
t-166.5 -212.5t-59 -295.5t59 -295t166.5 -212.5t252.5 -79.5zM585 1267q-27 0 -46 19t-19 46t19 46t46 19t46 -19t19 -46t-19 -46t-46 -19zM761 1267q-27 0 -46 19t-19 46t19 46t46 19t46 -19t19 -46t-19 -46t-46 -19z" />
    <glyph glyph-name="divide" unicode="&#xf7;" horiz-adv-x="712" 
d="M687 595h-662v60h662v-60zM356 858q-20 0 -35 14.5t-15 35.5q0 20 15 35t35 15t35 -15t15 -35q0 -21 -15 -35.5t-35 -14.5zM356 302q-20 0 -35 14.5t-15 35.5q0 20 15 35t35 15t35 -15t15 -35q0 -21 -15 -35.5t-35 -14.5z" />
    <glyph glyph-name="oslash" unicode="&#xf8;" horiz-adv-x="1220" 
d="M643 10q146 0 253 79.5t166 212.5t59 295t-59 295.5t-166 212.5q-39 28 -81 46l-311 -1120q64 -21 139 -21zM468 45l311 1119q-64 20 -136 20q-145 0 -252.5 -79t-166.5 -212.5t-59 -295.5t59 -295t167 -213q36 -27 77 -44zM460 -127h-40l37 134q-64 21 -119 56
q-130 83 -201 223t-71 311q0 170 71 310t201 223.5t305 83.5q77 0 145 -16l30 108h40l-33 -118q66 -21 123 -57q131 -84 201.5 -224t70.5 -310q0 -171 -70.5 -311t-200.5 -223t-306 -83q-79 0 -149 17z" />
    <glyph glyph-name="ugrave" unicode="&#xf9;" horiz-adv-x="840" 
d="M453 -20q-98 0 -166.5 48t-104.5 151t-36 266v659q0 29 -20.5 49.5t-49.5 20.5q-9 0 -10 10q0 4 3 7t7 3h222q5 0 7.5 -3t2.5 -7q0 -9 -10 -10q-28 0 -48.5 -20.5t-20.5 -49.5v-659q0 -161 31.5 -254t89 -131.5t134.5 -38.5q68 0 123.5 43t88 136.5t32.5 244.5v659
q0 29 -20.5 49.5t-49.5 20.5q-9 0 -10 10q0 4 3 7t7 3h172q5 0 7.5 -3t2.5 -7q0 -9 -10 -10q-28 0 -48.5 -20.5t-20.5 -49.5v-659q0 -163 -36 -266t-104.5 -151t-167.5 -48zM506 1272h-32l-136 176q-3 4 -3 8q0 11 15 17.5t34 6.5q18 0 34.5 -7.5t23.5 -24.5z" />
    <glyph glyph-name="uacute" unicode="&#xfa;" horiz-adv-x="840" 
d="M453 -20q-98 0 -166.5 48t-104.5 151t-36 266v659q0 29 -20.5 49.5t-49.5 20.5q-9 0 -10 10q0 4 3 7t7 3h222q5 0 7.5 -3t2.5 -7q0 -9 -10 -10q-28 0 -48.5 -20.5t-20.5 -49.5v-659q0 -161 31.5 -254t89 -131.5t134.5 -38.5q68 0 123.5 43t88 136.5t32.5 244.5v659
q0 29 -20.5 49.5t-49.5 20.5q-9 0 -10 10q0 4 3 7t7 3h172q5 0 7.5 -3t2.5 -7q0 -9 -10 -10q-28 0 -48.5 -20.5t-20.5 -49.5v-659q0 -163 -36 -266t-104.5 -151t-167.5 -48zM485 1280h-33l64 176q7 17 23.5 24.5t34.5 7.5q20 0 34.5 -6.5t14.5 -17.5q0 -4 -3 -8z" />
    <glyph glyph-name="ucircumflex" unicode="&#xfb;" horiz-adv-x="840" 
d="M453 -20q-98 0 -166.5 48t-104.5 151t-36 266v659q0 29 -20.5 49.5t-49.5 20.5q-9 0 -10 10q0 4 3 7t7 3h222q5 0 7.5 -3t2.5 -7q0 -9 -10 -10q-28 0 -48.5 -20.5t-20.5 -49.5v-659q0 -161 31.5 -254t89 -131.5t134.5 -38.5q68 0 123.5 43t88 136.5t32.5 244.5v659
q0 29 -20.5 49.5t-49.5 20.5q-9 0 -10 10q0 4 3 7t7 3h172q5 0 7.5 -3t2.5 -7q0 -9 -10 -10q-28 0 -48.5 -20.5t-20.5 -49.5v-659q0 -163 -36 -266t-104.5 -151t-167.5 -48zM593 1265q-18 0 -34 7.5t-23 24.5l-50 131l-47 -131q-12 -31 -60 -31q-18 0 -32 6.5t-14 16.5l2 8
l136 176h32l136 -176q3 -5 3 -8q0 -10 -15 -17t-34 -7z" />
    <glyph glyph-name="udieresis" unicode="&#xfc;" horiz-adv-x="840" 
d="M453 -20q-98 0 -166.5 48t-104.5 151t-36 266v659q0 29 -20.5 49.5t-49.5 20.5q-9 0 -10 10q0 4 3 7t7 3h222q5 0 7.5 -3t2.5 -7q0 -9 -10 -10q-28 0 -48.5 -20.5t-20.5 -49.5v-659q0 -161 31.5 -254t89 -131.5t134.5 -38.5q68 0 123.5 43t88 136.5t32.5 244.5v659
q0 29 -20.5 49.5t-49.5 20.5q-9 0 -10 10q0 4 3 7t7 3h172q5 0 7.5 -3t2.5 -7q0 -9 -10 -10q-28 0 -48.5 -20.5t-20.5 -49.5v-659q0 -163 -36 -266t-104.5 -151t-167.5 -48zM395 1264q-27 0 -46 19t-19 46t19 46t46 19t46 -19t19 -46t-19 -46t-46 -19zM571 1264
q-27 0 -46 19t-19 46t19 46t46 19t46 -19t19 -46t-19 -46t-46 -19z" />
    <glyph glyph-name="yacute" unicode="&#xfd;" horiz-adv-x="824" 
d="M556 0h-222q-4 0 -7 3t-3 7q0 9 10 10q29 0 49.5 20.5t20.5 49.5v524l-246 491q-34 69 -82 69q-4 0 -7 3t-3 7q0 5 3 7.5t7 2.5h219q9 0 10 -10q0 -4 -2.5 -7t-7.5 -3q-22 0 -39.5 -13t-17.5 -33q0 -10 6 -23l227 -454l225 454q6 13 6 23q0 20 -17 33t-40 13q-4 0 -7 3
t-3 7q0 9 10 10h169q9 0 10 -10q0 -4 -2.5 -7t-7.5 -3q-48 0 -82 -69l-245 -491v-524q0 -29 20.5 -49.5t48.5 -20.5q9 0 10 -10q0 -4 -2.5 -7t-7.5 -3zM484 1261h-32l64 176q7 17 23.5 24.5t34.5 7.5q19 0 34 -6.5t15 -17.5q0 -4 -3 -8z" />
    <glyph glyph-name="thorn" unicode="&#xfe;" horiz-adv-x="922" 
d="M315 0h-239q-9 0 -10 10q0 9 10 10q29 0 49.5 20.5t20.5 48.5v1254q0 29 -20.5 49.5t-49.5 20.5q-9 0 -10 10q0 4 3 7t7 3h239q4 0 7 -3t3 -7t-3 -7t-7 -3q-29 0 -49.5 -20.5t-20.5 -49.5v-259h329q111 0 188.5 -50t118.5 -133.5t41 -184.5t-41 -184.5t-118.5 -133.5
t-188.5 -50h-329v-259q0 -28 20.5 -48.5t49.5 -20.5q4 0 7 -2.5t3 -7.5q0 -4 -3 -7t-7 -3zM544 388q119 0 198.5 91.5t79.5 236.5q0 146 -79.5 237t-198.5 91h-299v-656h299z" />
    <glyph glyph-name="ydieresis" unicode="&#xff;" horiz-adv-x="824" 
d="M556 0h-222q-4 0 -7 3t-3 7q0 9 10 10q29 0 49.5 20.5t20.5 49.5v524l-246 491q-34 69 -82 69q-4 0 -7 3t-3 7q0 5 3 7.5t7 2.5h219q9 0 10 -10q0 -4 -2.5 -7t-7.5 -3q-22 0 -39.5 -13t-17.5 -33q0 -10 6 -23l227 -454l225 454q6 13 6 23q0 20 -17 33t-40 13q-4 0 -7 3
t-3 7q0 9 10 10h169q9 0 10 -10q0 -4 -2.5 -7t-7.5 -3q-48 0 -82 -69l-245 -491v-524q0 -29 20.5 -49.5t48.5 -20.5q9 0 10 -10q0 -4 -2.5 -7t-7.5 -3zM387 1256q-27 0 -46 19t-19 46t19 46t46 19t46 -19t19 -46t-19 -46t-46 -19zM563 1256q-27 0 -46 19t-19 46t19 46t46 19
t46 -19t19 -46t-19 -46t-46 -19z" />
    <glyph glyph-name="circumflex" unicode="&#x2c6;" horiz-adv-x="375" 
d="M326 1100q-17 0 -33.5 7.5t-23.5 24.5l-49 131l-47 -131q-12 -31 -60 -31q-18 0 -32.5 6.5t-14.5 16.5l2 8l136 176h33l136 -176q2 -5 2 -8q0 -10 -14.5 -17t-34.5 -7z" />
    <glyph glyph-name="tilde" unicode="&#x2dc;" horiz-adv-x="439" 
d="M83 1100q-17 0 -17 10q0 59 23 89t86 30q33 0 71.5 -4.5t73.5 -4.5q36 0 60.5 9.5t24.5 37.5q0 5 5 8t12 3q6 0 11.5 -3t5.5 -8q0 -61 -20.5 -90.5t-80.5 -29.5q-35 0 -78 6t-81 6q-81 0 -81 -49q0 -4 -5 -7t-10 -3z" />
    <glyph glyph-name="endash" unicode="&#x2013;" horiz-adv-x="829" 
d="M804 595h-779v60h779v-60z" />
    <glyph glyph-name="emdash" unicode="&#x2014;" horiz-adv-x="925" 
d="M900 595h-875v60h875v-60z" />
    <glyph glyph-name="quoteleft" unicode="&#x2018;" horiz-adv-x="166" 
d="M116 1220q-21 0 -35.5 14.5t-14.5 35.5q0 93 55 151q7 6 14 6t12.5 -5.5t5.5 -13.5q0 -7 -6 -14q-28 -28 -37 -75q23 0 39.5 -12.5t16.5 -36.5q0 -21 -15 -35.5t-35 -14.5z" />
    <glyph glyph-name="quoteright" unicode="&#x2019;" horiz-adv-x="166" 
d="M97 1220q-7 0 -12.5 6t-5.5 13q0 8 6 14q28 28 37 75q-24 0 -40 12.5t-16 36.5q0 21 14.5 35.5t35.5 14.5q20 0 35 -14.5t15 -35.5q0 -93 -55 -151q-6 -6 -14 -6z" />
    <glyph glyph-name="quotesinglbase" unicode="&#x201a;" horiz-adv-x="165" 
d="M97 -100q-7 0 -13 6t-6 13q0 8 6 14q28 28 37 75q-23 0 -39 12.5t-16 36.5q0 21 14.5 35.5t34.5 14.5q21 0 35.5 -14.5t14.5 -35.5q0 -92 -54 -151q-8 -6 -14 -6z" />
    <glyph glyph-name="quotedblleft" unicode="&#x201c;" horiz-adv-x="291" 
d="M241 1220q-20 0 -35 14.5t-15 35.5q0 93 55 151q7 6 14 6t12.5 -5.5t5.5 -13.5q0 -7 -6 -14q-27 -28 -37 -75q24 0 40 -12.5t16 -36.5q0 -21 -14.5 -35.5t-35.5 -14.5zM116 1220q-21 0 -35.5 14.5t-14.5 35.5q0 93 55 151q7 6 14 6t12.5 -5.5t5.5 -13.5q0 -7 -6 -14
q-28 -28 -37 -75q23 0 39.5 -12.5t16.5 -36.5q0 -21 -15 -35.5t-35 -14.5z" />
    <glyph glyph-name="quotedblright" unicode="&#x201d;" horiz-adv-x="291" 
d="M97 1220q-7 0 -12.5 6t-5.5 13q0 8 6 14q28 28 37 75q-24 0 -40 12.5t-16 36.5q0 21 14.5 35.5t35.5 14.5q20 0 35 -14.5t15 -35.5q0 -93 -55 -151q-6 -6 -14 -6zM222 1220q-7 0 -12.5 6t-5.5 13q0 8 6 14q28 28 37 75q-23 0 -39.5 12.5t-16.5 36.5q0 21 15 35.5t35 14.5
q21 0 35.5 -14.5t14.5 -35.5q0 -93 -55 -151q-6 -6 -14 -6z" />
    <glyph glyph-name="quotedblbase" unicode="&#x201e;" horiz-adv-x="290" 
d="M97 -100q-7 0 -13 6t-6 13q0 8 6 14q28 28 37 75q-23 0 -39 12.5t-16 36.5q0 21 14.5 35.5t34.5 14.5q21 0 35.5 -14.5t14.5 -35.5q0 -92 -54 -151q-8 -6 -14 -6zM222 -100q-7 0 -12.5 6t-5.5 13q0 8 6 14q28 28 36 75q-23 0 -39 13t-16 36q0 21 14.5 35.5t35.5 14.5
q20 0 34.5 -14.5t14.5 -35.5q0 -93 -54 -151q-6 -6 -14 -6z" />
    <glyph glyph-name="dagger" unicode="&#x2020;" horiz-adv-x="1014" 
 />
    <glyph glyph-name="daggerdbl" unicode="&#x2021;" horiz-adv-x="1014" 
 />
    <glyph glyph-name="bullet" unicode="&#x2022;" horiz-adv-x="1024" 
d="M230 617q-41 0 -70 29.5t-29 69.5q0 41 29 70.5t70 29.5t70 -29.5t29 -70.5q0 -40 -29 -69.5t-70 -29.5z" />
    <glyph glyph-name="ellipsis" unicode="&#x2026;" horiz-adv-x="756" 
d="M115 0q-20 0 -34.5 14.5t-14.5 34.5q0 21 14.5 35.5t34.5 14.5q21 0 35.5 -14.5t14.5 -35.5q0 -20 -14.5 -34.5t-35.5 -14.5zM411 0q-20 0 -34.5 14.5t-14.5 34.5q0 21 14.5 35.5t34.5 14.5t34.5 -14.5t14.5 -35.5q0 -20 -14.5 -34.5t-34.5 -14.5zM706 0
q-20 0 -34.5 14.5t-14.5 34.5q0 21 14.5 35.5t34.5 14.5q21 0 35.5 -14.5t14.5 -35.5q0 -20 -14.5 -34.5t-35.5 -14.5z" />
    <glyph glyph-name="guilsinglleft" unicode="&#x2039;" horiz-adv-x="418" 
d="M418 328l-352 273v50l352 274v-45l-32 -30q-32 -29 -72.5 -71.5t-72.5 -84.5t-32 -68q0 -25 32 -67.5t72.5 -84.5t72.5 -72l32 -29v-45z" />
    <glyph glyph-name="guilsinglright" unicode="&#x203a;" horiz-adv-x="418" 
d="M66 327v45l32 29q32 30 72.5 72t72.5 84.5t32 67.5q0 26 -32 68t-72.5 84.5t-72.5 71.5l-32 30v45l351 -274v-50z" />
    <glyph glyph-name="Euro" unicode="&#x20ac;" horiz-adv-x="1286" 
d="M657 674q-2 0 -2 2q7 15 19 27l2 1q1 0 2 -2l-1 -1q-12 -10 -18 -24q0 -1 -1 -1v-1q0 -1 -1 -1zM406 118l-4 2q54 22 108 40q170 57 345 93h2q31 7 54 7q9 0 14 -9v1l-2 1q-5 5 -12 5l-7 -1q-10 0 -19 -2q-106 -19 -210 -49q-12 -3 -23 -7q-118 -31 -246 -81zM945 635
h-28q-2 0 -2 1l4 6l10 10q24 24 24 37v2q-10 -22 -29 -39l-15 -16v3q0 2 3 5q20 20 30 33t10 26q0 6 -2 12l-1 5q0 5 3.5 8t3.5 6q-1 4 -8 4q-4 0 -8 -4q-13 -11 -23 -25l-27 -36q-3 -3 -5 -7q-1 0 -1 -0.5t-3 -3.5q0 3 1 4v1q9 24 21 51q19 47 37 95q5 14 7 30
q-17 -57 -41 -113q-16 -36 -30 -73l-1 4l1 2q0 5 4 13q20 46 38 92l6 15q13 31 21 64l1 3q0 4 -3 5t-5 1q-5 0 -16 -30q-40 -101 -46 -113q-2 -8 -9 -12q-11 -6 -21 -14l-22 -15v-1q-2 -1 -3 -1h-2h-2q0 7 3 13.5t3 14.5q-6 -18 -6 -28q-2 2 -2 10l7 24q0 4 -2 5t-3 1l-5 -1
q-15 -7 -26 -20l-30 -37v-1q-1 -2 -6 -2q-2 1 -2 3q0 18 9 41q15 37 31 73l19 42q5 12 16 19l2 1q2 1 4 3t2 5l-1 2q-7 7 -7 18q0 9 -7 9q-4 0 -7 -5.5t-11 -25.5q-3 -12 -17 -12q-34 0 -67 -5l-5 -1q-25 -3 -48 -14q-11 -5 -15 -16v-3q0 -6 7 -6q4 1 6 4q15 13 35 18
q27 6 51 9q16 4 33 4l2 1q2 0 4 -4h-7q-17 0 -72 -11q-28 -4 -43 -19q-5 -5 -10 -5l-1 -1q0 -3 4 -2q4 0 7 3q22 19 69 25q8 0 15 2q20 4 33 4q5 0 5 -2l-2 -8q-22 -58 -71 -98l-3 -1l1 11q0 -5 -5 -12v6q3 0 3 14q0 6 -4 6h-6q-25 0 -40.5 -18.5t-15.5 -19.5
q-14 -19 -29 -19l-5 1q-18 4 -25 21q-4 11 -4 22q0 27 10 60q2 7 2 13l-1 9q-1 9 -9 9q-10 0 -23 -26q-5 -11 -11 -21q-28 -57 -44 -81q-4 -7 -10 -13h-1q-1 -2 -2 -2h-2q-3 0 -4.5 3.5t-1.5 14.5q0 13 10 61q26 137 67 227q14 28 14 41q0 5 -4 7q43 8 88 8q168 0 295 -99.5
t173 -256.5h-3q-13 -5 -26 -7q-62 -13 -125 -19zM663 722q18 3 23 8l3 3l-2 2l-2 -2h-1q-9 -6 -21 -7h-6q-1 0 -1 -2t4 -2h3zM659 729q15 0 25 8l3 3q0 4 -4 4q-8 0 -25 -4q-7 -2 -7 -7q1 -3 2.5 -3.5t5.5 -0.5zM951 716q7 7 7 9t-2 2l-2 -3h-1q-2 -3 -2 -8zM843 710
q3 0 3 5h-8q-5 3 -11.5 7t-11.5 4q-4 0 -7 -3h-3l-1 -2q0 -2 5 -2v1h3q4 2 7 2t18 -9zM840 717q4 0 4 4q0 2 -2 4v1q-6 6 -7 12q0 3 2 6q0 6 -6 6l-13 -1l-13 1q-2 0 -3 -1v0l1 -7q0 -2 -0.5 -4.5t-1.5 -4.5t-1 -3q0 -4 4 -4q3 0 6 1.5t6 1.5q4 0 7 -3q12 -7 13 -7t1.5 -1
t2.5 -1zM750 655q4 19 12 36q13 34 28 66l19 43q5 12 16 19l8 7q0 1 -0.5 2t-1.5 1l-1 -1q-16 -10 -23 -27l-21 -49q-33 -68 -36 -97zM580 707l1 8q1 8 2.5 18t5 21.5t3.5 20.5q-9 -31 -12 -68zM484 679l2 12q30 169 82 281q5 10 6 19q-35 -74 -55.5 -152.5t-34.5 -159.5z
M389 505v3q0 3 2 5q29 39 71 63q5 3 10 4q2 0 4 -2v-1h-3q-14 -4 -24 -13q-32 -21 -55 -52zM901 658h-2l-1 2l1 1q5 6 9 13q5 5 20 25q0 3 3 3h2q1 0 1 -1v-1h-1q-11 -12 -20 -25q-5 -8 -11 -15zM656 48q-134 0 -246 67q54 21 108 40q193 62 354 94h4q14 4 28 4l21 -2
q4 -7 14 -7q10 2 12 13q0 9 -6 15.5t-30 6.5q-22 0 -90 -14q-14 0 -94 -21l-40 -9q-123 -30 -242 -72q-35 -13 -69 -29q-96 67 -152.5 171t-56.5 228q0 117 50.5 216t136.5 166.5t196 91.5q-6 -10 -15 -31l-13 -30q-56 -122 -115 -242q-42 -87 -103 -163q-24 -31 -58 -51
q-8 -4 -14 -4q-4 0 -10.5 2.5t-9 16.5t-2.5 29q0 35 14 80l3 12q19 73 57 139q5 10 12 17q2 2 4 2t4 -2q-7 -2 -12 -10q-43 -70 -66 -161q-10 -30 -12 -60q4 28 12 55q16 64 43 120l2 3q10 22 24 42q1 1 1 1.5t4 4.5q1 0 2.5 -0.5t1.5 -1.5q-1 -2 -1 -4t-1 -3
q-5 -37 -16 -85l-1 -6q0 -12 6 -12q4 0 5 5t1.5 13.5t2.5 16.5q21 70 21 88q0 22 -16 22q-24 0 -56 -63q-45 -93 -58 -195q-2 -12 -2 -23q0 -62 41 -65q17 0 31 9q39 24 66 60q83 104 138 239q1 3 4 5h1q1 0 1.5 -0.5t0.5 -1.5h-1q-3 -2 -4 -5l-5 -14q-106 -230 -202 -287
q-13 -8 -28 -8q-13 0 -24 8q6 -7 13 -9t14 -2q15 0 28 8q43 27 72 68q54 69 92 146l6 11q19 36 34 72q0 5 5 7l1 -1v-3q-1 -8 -4 -15q-4 -15 -9 -55q-2 -12 -2 -25q0 -12 5.5 -24t14.5 -12q5 0 12 5q13 10 22 24q14 23 26.5 47t12.5 26l3 1l1 -1v-2h-1l-15 -28
q-22 -47 -44 -68q-7 -7 -16 -7q-5 0 -11 4q7 -8 14 -8q5 0 10 4q24 17 54 83q3 7 9 14v-19q0 -21 12.5 -40t35.5 -19h7q10 0 15.5 -5t9.5 -5t8 3q12 6 24 22q9 12 11 12q3 0 6 -3.5t8 -3.5q10 0 34 24q2 3 5 5v1l4 2l2 -1l-1 -2q-6 -4 -9 -8t-6 -6q-9 -10 -22 -16
q-3 -2 -6 -2q-5 0 -8 3t-5 3t-8 -6q-11 -17 -26 -27q-5 -3 -9 -3q-6 0 -10.5 5t-11.5 5l-4 -1h-6q-15 0 -27 8q11 -11 32 -11q13 0 18.5 -5t10.5 -5q4 0 8 3q12 8 23 24q10 10 11 10q2 0 5 -3t7 -3q6 0 11 3q13 7 32 27q-1 -7 -3 -12q-5 -10 -5 -26q0 -7 2.5 -16t14.5 -9
q20 4 37 33q1 1 1.5 2.5t2.5 2.5t3 2q1 0 1.5 -0.5t0.5 -1.5v0q-1 -1 -3 -2t-3 -4q-5 -10 -12 -18t-15 -12.5t-22 -4.5q3 -4 7 -4q13 0 23 9q14 13 22 29l2 1q2 -2 2 -4v-1q2 -11 11 -11q10 0 19 9q16 13 31 27l5 3q1 0 2 -0.5t1 -1.5l-2 -1q-12 -9 -23 -20q-6 -5 -13 -11.5
t-18 -6.5l-8 1q4 -5 13 -5q7 1 44 33q1 0 1.5 0.5l1.5 1.5t2 1q0 -3 -1 -4q-10 -31 -17 -62q-2 -5 -2 -10q1 -6 6 -8h6q8 8 13.5 18.5t16.5 10.5l5 -1q15 -4 31 -4l12 1q48 3 94 8.5t87 19.5l12 5l1 -4h-2q-47 -20 -130 -27l-16 -1q-44 -4 -54 -4q-16 0 -32 2l-9 1
q-7 0 -15 -12q-4 -7 -8 -11.5t-13 -4.5q4 -4 7 -4q5 0 16 17q5 12 17 12l5 -1q14 -3 36 -3q109 5 175 24q12 3 24 8q13 -53 13 -111q0 -29 -4 -58q-5 13 -20 13q-9 0 -33 -7.5t-44 -24.5q-10 -7 -13 -20q0 -9 3 -12t5 -3t4 1t2 4v1q0 10 8 16q29 22 64 27l2 1q4 0 6 -5l-5 1
q-4 0 -12 -2q-35 -9 -54 -26q-6 -4 -6 -14q4 10 14 16q25 18 57 22l3 1q2 0 2.5 -1t0.5 -3q0 -15 -9 -27q-30 -44 -76 -73q-28 -18 -61 -26l-6 -1q-14 0 -17 17v15q13 54 46 100q16 21 23 36q0 8 -7 8q-4 0 -6 -4q-15 -15 -23 -27q-21 -31 -52 -51l-3 -1q3 6 8 13.5t8 18.5
l-20 -33q0 -1 -1 -1.5t-2 -0.5v3q1 0 1 1t1 2t1 2l17 29l1 6q0 5 -6 5t-23 -22t-41 -29l-8 -1q-1 0 -4.5 1t-4.5 9q-5 14 -14 14q-4 0 -18 -7q-2 -2 -5 -3l2 6q4 8 4 16q-2 -10 -8 -20l-1 -3v3q-1 3 1 6v1q6 11 6 22q-1 6 -6 6t-9 -6q-7 -9 -18 -16t-48 -44q-7 -7 -16 -8
q-10 0 -16 4q7 23 47 59q4 2 4 9q-31 -26 -51 -60l-1 -4l1 -4q-3 4 -3 8q0 7 17 26q4 9 32 33q4 3 4 6q0 2 -1 3q-2 5 -8 5q-7 -1 -12 -4q-29 -16 -54 -36l-11 -8q0 2 0.5 3t1 1.5l1.5 1.5q20 30 24 38q1 0 1.5 1t0.5 2l-1 2q-16 -26 -35 -51l-3 -5l-1 3q0 2 1 3h1
q28 42 32 48.5t4 7.5q0 2 -1.5 3.5t-7.5 1.5q-5 -3 -9 -8l-26 -35q-26 -36 -49 -74q-1 0 -1 -1q-3 -4 -4 -9q0 -6 2.5 -8t4.5 -2q6 0 15 9l3 4q32 44 73 75q0 1 1 1.5l3 1.5q1 0 2 -1t1 -2h-1q0 -1 -1.5 -1t-1.5 -1h-1v-1q-36 -27 -64 -63l-6 -7q-10 -17 -24 -20q2 -2 5 -2
q2 0 6 2q15 13 15 17q24 32 55 58q1 1 2.5 3t7.5 4q-10 -13 -10 -27q0 -12 12 -18l10 -3q1 0 4 -3q-10 1 -18 5q4 -6 9.5 -7t5.5 -2q0 -2 -3 -4q-13 -12 -26 -27q-7 -7 -7 -13q0 -3 2.5 -6.5t6.5 -3.5q7 0 13 6q22 17 37 40q2 2 2 6q1 12 10 20l29 30q7 9 11 9q2 0 4 -4
l-3 1q-2 0 -4 -2l-34 -35q-9 -9 -10 -21q0 -4 -3 -6q-15 -24 -38 -42q-6 -5 -12 -5q-3 0 -6 2l1 -2q3 -3 7 -3q5 0 10 4q23 17 38 40q2 3 2 7q2 13 12 22l33 34q1 0 1.5 1t1.5 2h3q-6 -11 -10 -22q-2 -5 -4.5 -10t-2.5 -10q0 -9 7 -9q8 0 13 8q16 22 38 38h1q1 2 3 2h1
q2 0 3 -2h-3l-3 -3q-22 -16 -38 -38q-3 -4 -7 -6t-11 -2q4 -4 7 -4t6 2.5t6 5.5q17 24 42 40l1 3l5 -7q4 -6 9 -8h5q9 0 25 7v1l6 1q1 0 1 -1h1l-10 -5q-12 -6 -21 -6q-8 0 -11 3q3 -5 7 -7q14 0 27 6l5 2q1 -1 1 -6q1 -11 11 -11q7 0 15 7q16 14 22 17v1l4 2q3 0 4 -1v-1
l-2 -1h-1l-12 -9q-21 -18 -30 -18l-6 1q3 -5 8 -5q8 0 14 5t11.5 9.5t10.5 8.5l1 1q0 1 2 2h3q-6 -16 -10 -32q-1 -5 -2.5 -10.5t-1.5 -11.5q0 -12 5.5 -22.5t16.5 -14.5q6 -3 13 -3t24 5q91 34 140 116q-2 -5 -2 -11l-4 -5q-58 -82 -145 -107q-6 -2 -12 -2q-12 0 -23 9
q11 -12 25 -12l10 1q52 14 93 49q32 26 54 60q-42 -162 -171 -266t-300 -104zM299 658q4 4 4 18v4q2 3 2 6t1 5q17 65 18.5 68.5t2 6.5t0.5 7l-10 -38q-9 -27 -14 -55v-4q0 -12 -9 -15q3 -3 5 -3zM940 237q13 0 13 15q-7 -11 -14 -11q-4 0 -9 2q4 -6 10 -6zM458 261
q2 16 7 31l2 6q15 50 39 97q32 69 78 131q10 15 26 22q3 1 4 4q0 1 -1 1h-2q-15 -6 -24 -18q-36 -46 -62 -97q-33 -60 -55 -125q-10 -31 -12 -52zM463 225q3 0 5 3q11 11 29 47q45 99 116 181q59 67 126 127q23 22 53 36q4 2 4 4t-2.5 5t-6.5 3q-5 0 -10 -5
q-66 -44 -154 -135q-86 -86 -139 -203q-4 -8 -7.5 -16.5t-9.5 -15.5q-1 0 -2 -1.5t-3 -1.5q-6 0 -6 13q0 6 1 11q12 51 34 99q36 83 90 157q10 15 27 22q4 1 4 4q0 8 -7 9q-13 0 -24 -12t-63 -62q-82 -79 -143 -175v-1q0 -2 -3 -2q10 20 45 76l31 52l11 18q16 27 30 56
q11 23 11 48v-1q0 -24 -18 -56q-26 -48 -54 -94q-26 -41 -50 -82l-20 -37q0 8 4 14l55 94q29 46 55 94q25 40 27 75q-1 17 -12 24q-6 4 -13 4q-6 0 -13 -3q-64 -30 -97 -90q-4 -7 -4 -16q0 -14 9 -14l5 1q16 5 30 15q5 3 8.5 6t3.5 5q0 4 -4 4l-4 -1l-9 -4q-1 -1 -3 -1t-3 2
q2 3 2 3.5t1 0.5q28 36 67 60q7 4 12 4q3 0 3 -3v-2q-3 -26 -33 -77q-112 -175 -112 -216q1 -12 12 -12t21 17q25 34 49 69q41 57 89 109h1l2 3l5 -1l-1 -2q-9 -4 -13 -12q-48 -52 -102 -130q-28 -38 -28 -40q-12 -17 -23 -17l-6 1q3 -4 9 -4q10 0 18 14q6 6 30 41
q49 73 109 138l1 2q0 1 3 1l-2 -5q-8 -18 -20 -39q-29 -59 -45 -124q-2 -10 -2 -20q0 -4 1 -12.5t14 -18.5l3 -4q3 -4 5 -4zM373 471l4 1q22 7 38 22h1q2 2 2 5h-3q-14 -14 -33 -21q-1 0 -1 -1l-11 -2l-6 1q4 -5 9 -5zM720 510q3 1 3 3q0 13 8 20q2 1 2 3q0 1 -1.5 3.5
t-4.5 2.5l-4 -1q-18 -2 -21 -9.5t-9 -14.5q-1 -1 -1 -1.5v-1.5l1 -1q1 -2 4 -2q2 0 3.5 0.5t1.5 1.5l7 1q4 0 6 -2t5 -2zM722 503q2 0 3 5q-3 -2 -5 -2q-3 0 -5 2.5t-5 2.5q-4 0 -7 -1.5t-6 -2.5q-2 0 -2 -1l2 -1q1 -1 3 -1q3 0 5.5 1.5t5.5 1.5q4 0 7 -2t4 -2zM726 515
q1 4 4.5 7t3.5 8q-8 -6 -8 -15zM466 219q9 0 32 46q65 147 215 284l12 11q35 37 70 52q3 3 3 4l-2 1l-3 -1q-39 -17 -133 -115q-104 -101 -165 -236q-9 -21 -23 -38q-5 -5 -11 -5q3 -3 5 -3zM1040 415q3 1 3 4v1l-6 -2l-4 1q2 -4 5 -4h2zM954 357l2 5q13 51 43 95
q11 15 21 31l1 1q1 2 1.5 3.5t0.5 3.5q-51 -62 -69 -139z" />
    <glyph glyph-name="trademark" unicode="&#x2122;" horiz-adv-x="982" 
d="M264 621q-55 0 -56.5 1t-1.5 3q0 4 4 4q14 0 23 8t9 20v521h-68q-39 0 -66 -21t-34 -45q-1 -2 -4 -2q-4 0 -4 3l24 81h348l25 -81q0 -3 -5 -3q-4 0 -4 2q-7 24 -33.5 45t-66.5 21h-67v-521q0 -12 9 -20t22 -8q4 0 4 -4q0 -2 -1 -3t-57 -1zM924 621q-56 0 -57.5 1.5
t-1.5 2.5q0 4 5 4q13 0 22 8t9 20v483l-183 -519h-18l-184 522v-486q0 -12 9.5 -20t22.5 -8q4 0 4 -4q0 -1 -1 -2.5t-43 -1.5t-43.5 1.5t-1.5 2.5q0 4 4 4q13 0 22 8t9 20v501q0 11 -9 19.5t-22 8.5q-4 0 -4 4q0 2 1.5 3t78.5 1l179 -510l179 510h76q5 0 5 -4t-5 -4
q-13 0 -22 -8.5t-9 -19.5v-501q0 -12 9 -20t22 -8q5 0 5 -4q0 -1 -1.5 -2.5t-56.5 -1.5z" />
  </font>
</defs>
</svg>
