<?xml version="1.0" standalone="no"?>
<!DOCTYPE svg PUBLIC "-//W3C//DTD SVG 20010904//EN"
 "http://www.w3.org/TR/2001/REC-SVG-20010904/DTD/svg10.dtd">
<svg version="1.0" xmlns="http://www.w3.org/2000/svg"
 width="4560.000000pt" height="4560.000000pt" viewBox="0 0 4560.000000 4560.000000"
 preserveAspectRatio="xMidYMid meet">
<metadata>
Created by potrace 1.14, written by Peter Selinger 2001-2017
</metadata>
<g transform="translate(0.000000,4560.000000) scale(0.100000,-0.100000)"
fill="#000000" stroke="none">
<path d="M23946 32806 c-9 -14 -16 -27 -16 -30 0 -2 -34 -75 -76 -162 -42 -88
-85 -179 -96 -204 -11 -25 -49 -105 -84 -179 -35 -73 -64 -135 -64 -137 0 -1
-34 -73 -75 -159 -41 -87 -75 -159 -75 -161 0 -1 -38 -82 -85 -179 -47 -97
-85 -178 -85 -180 0 -2 -25 -57 -56 -122 -31 -65 -71 -149 -89 -188 -18 -38
-54 -115 -80 -170 -26 -55 -60 -127 -75 -160 -15 -33 -49 -105 -75 -160 -26
-55 -62 -131 -80 -170 -43 -92 -109 -232 -153 -325 -19 -41 -36 -77 -37 -80 0
-3 -15 -34 -32 -70 -54 -113 -134 -283 -163 -345 -43 -93 -81 -174 -230 -490
-11 -22 -37 -78 -59 -125 -21 -47 -71 -152 -110 -234 -39 -82 -71 -150 -71
-152 0 -1 -34 -73 -75 -159 -41 -86 -75 -158 -75 -160 0 -3 -75 -163 -176
-374 -35 -73 -64 -135 -64 -136 0 -2 -25 -56 -56 -121 -31 -66 -102 -218 -159
-339 -57 -121 -135 -287 -174 -369 -39 -82 -71 -150 -71 -151 0 -2 -34 -74
-75 -160 -41 -87 -75 -159 -75 -160 0 -2 -30 -65 -66 -141 -36 -77 -81 -170
-99 -209 -18 -38 -51 -110 -74 -160 -23 -49 -46 -99 -51 -110 -5 -11 -48 -100
-95 -199 -47 -98 -85 -180 -85 -181 0 -2 -26 -59 -58 -127 -33 -68 -70 -148
-85 -178 -14 -30 -49 -104 -77 -165 -29 -60 -64 -135 -77 -165 -14 -30 -56
-119 -94 -198 -38 -80 -69 -146 -69 -147 0 -2 -34 -74 -75 -160 -41 -87 -75
-158 -75 -160 0 -1 -36 -78 -80 -169 -44 -92 -80 -169 -80 -170 0 -3 -44 -97
-160 -341 -16 -33 -50 -105 -75 -160 -141 -300 -202 -429 -240 -510 -244 -517
-271 -577 -288 -627 -17 -50 -33 -109 -43 -158 -9 -46 -11 -5986 -2 -6011 16
-41 36 -17 91 109 30 70 70 159 87 197 54 121 58 128 108 246 27 63 59 134 70
159 11 25 36 81 55 125 19 44 112 255 206 468 94 213 171 390 171 392 0 3 15
38 34 78 36 77 79 175 131 297 58 136 315 724 340 778 14 29 25 55 25 57 0 2
11 28 24 57 13 29 65 148 116 263 50 116 100 228 109 250 10 22 32 72 49 110
17 39 42 95 55 125 14 30 89 201 167 380 78 179 150 343 160 365 10 22 39 90
65 150 26 61 60 137 75 170 15 33 58 130 95 215 37 85 80 183 96 218 16 35 29
65 29 68 0 2 18 43 40 90 22 47 40 87 40 89 0 3 141 326 175 400 7 17 46 104
85 195 39 91 80 183 90 205 10 22 37 85 60 140 24 55 53 123 65 150 33 74 89
200 125 285 18 41 45 103 61 137 16 34 40 91 55 125 14 35 34 81 44 103 16 35
74 167 116 263 8 17 20 47 28 65 8 17 40 91 71 162 31 72 65 148 75 170 22 49
134 304 282 640 60 138 123 278 139 313 16 35 29 66 29 68 0 5 16 42 81 182
21 45 35 82 32 82 -3 0 -1 6 5 13 5 6 38 77 72 157 34 80 71 163 81 185 10 22
109 247 219 500 111 253 207 474 214 490 8 17 44 100 81 185 37 85 75 173 85
195 10 22 43 96 73 165 31 69 76 170 102 225 l46 100 82 -165 c46 -91 125
-255 176 -365 52 -110 121 -255 153 -323 32 -68 58 -125 58 -127 0 -2 25 -57
56 -122 83 -174 123 -260 159 -338 18 -38 52 -110 75 -160 23 -49 70 -151 105
-225 34 -74 90 -193 124 -264 33 -70 61 -130 61 -131 0 -1 32 -69 70 -149 39
-81 70 -148 70 -150 0 -2 29 -64 64 -137 59 -125 77 -162 161 -344 18 -38 52
-110 75 -160 23 -49 55 -117 70 -150 15 -33 47 -100 70 -150 23 -49 57 -121
75 -160 83 -179 182 -390 231 -494 30 -62 54 -115 54 -116 0 -2 30 -65 66
-141 36 -77 74 -157 84 -180 11 -23 44 -94 75 -159 30 -64 55 -118 55 -120 0
-1 28 -61 61 -131 55 -115 133 -282 236 -504 19 -41 51 -109 70 -150 20 -41
68 -145 108 -230 40 -85 100 -213 134 -284 34 -70 61 -130 61 -131 0 -2 26
-59 59 -126 32 -68 70 -149 84 -179 14 -30 60 -129 102 -220 43 -91 93 -199
112 -240 19 -41 51 -109 70 -150 20 -41 51 -108 69 -147 51 -109 94 -201 179
-383 43 -91 91 -194 107 -230 17 -36 55 -116 84 -179 30 -62 54 -114 54 -116
0 -2 30 -65 66 -141 36 -77 95 -202 131 -279 36 -77 81 -174 101 -215 19 -41
49 -106 67 -145 18 -38 52 -110 75 -160 59 -125 175 -373 253 -540 35 -77 87
-187 115 -245 27 -58 59 -127 72 -155 12 -27 43 -93 67 -145 25 -52 57 -120
70 -150 14 -30 54 -115 89 -189 35 -73 64 -135 64 -137 0 -1 32 -69 70 -150
39 -80 70 -148 70 -150 0 -1 22 -49 49 -106 90 -190 128 -272 239 -508 60
-129 125 -269 145 -310 89 -193 255 -547 308 -658 32 -68 59 -125 59 -127 0
-2 32 -69 70 -150 39 -81 70 -148 70 -150 0 -2 29 -63 64 -137 54 -112 170
-359 299 -638 16 -36 61 -132 100 -215 38 -82 77 -168 87 -190 89 -206 143
-280 223 -306 37 -12 265 -14 1427 -14 1330 0 1382 1 1395 18 18 24 26 6 -272
617 -177 362 -284 582 -353 725 -37 77 -127 262 -200 410 -73 149 -154 315
-180 370 -26 55 -107 222 -180 370 -73 149 -158 324 -190 390 -32 66 -110 228
-175 360 -64 132 -145 299 -180 370 -34 72 -113 234 -175 360 -62 127 -151
309 -197 405 -47 96 -128 263 -180 370 -53 107 -136 278 -185 380 -50 102
-133 273 -185 380 -91 185 -168 344 -351 720 -44 91 -126 260 -182 375 -56
116 -140 287 -185 380 -45 94 -131 269 -190 390 -59 121 -140 288 -180 370
-40 83 -121 249 -180 370 -59 121 -142 292 -185 380 -43 88 -126 259 -185 380
-59 121 -145 297 -190 390 -45 94 -128 265 -185 380 -56 116 -135 278 -175
360 -40 83 -120 247 -178 366 -58 118 -143 294 -190 390 -46 96 -127 262 -179
369 -53 107 -133 272 -178 365 -46 94 -130 267 -188 385 -57 118 -139 287
-182 375 -74 154 -156 322 -373 765 -168 346 -296 608 -372 765 -106 220 -238
491 -355 730 -282 579 -417 854 -560 1150 -43 88 -121 250 -175 360 -54 110
-137 281 -185 380 -48 99 -136 279 -195 400 -59 121 -142 292 -185 380 -75
155 -152 314 -375 770 -59 121 -140 288 -180 370 -40 83 -120 247 -177 365
-58 118 -147 301 -198 405 -51 105 -142 291 -202 415 -61 124 -129 266 -153
315 -24 50 -52 98 -63 108 -19 17 -20 17 -36 -7z"/>
<path d="M10794 32745 c-14 -21 -7 -35 111 -246 69 -123 130 -231 135 -239 5
-8 18 -31 29 -50 10 -19 94 -167 185 -328 91 -161 166 -295 166 -298 0 -3 8
-18 18 -32 11 -15 32 -52 49 -82 16 -30 60 -109 98 -175 37 -66 79 -140 93
-165 14 -25 42 -74 62 -110 20 -36 49 -86 64 -112 14 -27 38 -69 52 -95 15
-27 44 -77 64 -113 20 -36 50 -87 65 -115 16 -27 39 -68 51 -90 12 -22 32 -58
44 -80 100 -184 141 -230 212 -239 24 -3 2296 -5 5049 -3 4247 2 5008 4 5023
16 9 7 46 75 82 150 35 75 70 145 76 156 17 30 61 119 111 225 25 52 79 166
121 253 42 87 76 160 76 161 0 2 29 64 64 137 76 161 112 238 181 389 29 63
66 144 83 180 67 143 320 707 368 822 30 73 30 83 -3 96 -20 8 -1918 11 -6371
10 l-6343 -1 -15 -22z"/>
<path d="M24413 32752 c-13 -2 -24 -8 -24 -13 -1 -5 -2 -15 -3 -21 -1 -7 17
-51 40 -98 23 -47 88 -179 144 -295 106 -218 161 -331 325 -670 54 -110 128
-263 165 -340 37 -77 106 -219 152 -315 47 -96 120 -247 163 -335 43 -88 118
-243 167 -345 50 -102 98 -203 108 -225 22 -51 86 -120 125 -135 17 -7 80 -25
140 -41 61 -17 115 -31 120 -33 6 -2 24 -6 40 -10 139 -35 590 -187 730 -247
17 -7 32 -13 35 -14 9 -3 45 -18 135 -57 50 -22 108 -47 130 -56 66 -28 485
-237 565 -282 85 -48 360 -211 375 -222 6 -4 86 -58 179 -118 92 -61 173 -115
180 -120 6 -6 76 -58 156 -117 154 -115 269 -205 360 -283 14 -12 47 -40 74
-63 28 -23 60 -51 72 -62 12 -11 57 -51 100 -90 100 -88 526 -515 620 -620 39
-44 115 -132 169 -195 53 -63 107 -126 118 -140 56 -66 300 -398 368 -500 132
-200 269 -422 269 -435 0 -3 11 -22 23 -43 75 -118 262 -506 354 -732 43 -106
143 -382 173 -475 29 -92 109 -373 114 -399 2 -12 7 -28 10 -36 3 -8 8 -26 10
-40 3 -14 15 -68 26 -120 25 -111 60 -284 65 -320 2 -14 9 -56 16 -95 7 -38
12 -73 11 -77 -1 -4 2 -29 7 -55 5 -26 12 -77 16 -113 3 -36 8 -76 10 -90 3
-14 7 -50 10 -80 3 -30 7 -73 9 -95 3 -22 8 -98 11 -170 4 -71 9 -150 10 -175
5 -65 5 -602 0 -685 -3 -67 -11 -184 -21 -310 -2 -33 -6 -76 -9 -95 -2 -19 -7
-60 -10 -90 -9 -91 -16 -142 -25 -200 -5 -30 -12 -75 -15 -100 -5 -40 -18
-118 -29 -175 -2 -11 -7 -40 -12 -65 -4 -25 -8 -47 -9 -50 -1 -3 -5 -23 -9
-45 -4 -22 -19 -86 -32 -143 -13 -56 -26 -110 -28 -120 -5 -28 -17 -72 -48
-182 -17 -58 -32 -112 -34 -120 -4 -18 -73 -228 -108 -330 -29 -81 -48 -130
-77 -197 -11 -24 -19 -49 -19 -56 0 -7 -4 -17 -8 -22 -5 -6 -26 -50 -47 -100
-21 -49 -77 -171 -125 -270 -93 -191 -104 -230 -90 -304 5 -25 81 -194 170
-376 242 -492 495 -1011 657 -1345 407 -838 484 -992 506 -1005 20 -12 17 -15
187 195 189 234 331 430 507 695 62 94 117 175 123 182 5 7 10 14 10 16 0 3
45 78 99 169 55 90 110 184 124 209 13 24 47 87 76 139 54 97 214 419 271 545
41 91 150 345 150 351 0 3 8 24 19 47 58 130 259 716 276 806 2 12 6 25 10 30
6 11 122 462 130 511 3 19 15 73 25 120 20 89 66 327 75 395 3 22 10 65 15 95
5 30 12 75 15 100 3 25 10 72 15 105 5 33 12 87 15 120 4 33 8 71 10 85 2 14
7 57 10 95 4 39 8 81 10 95 2 14 7 70 10 125 4 55 9 113 11 130 25 215 24
1202 -1 1400 -2 17 -7 71 -10 120 -3 50 -8 108 -10 130 -3 22 -7 60 -10 85
-10 94 -36 316 -40 340 -2 14 -14 88 -25 165 -30 190 -28 182 -45 265 -2 13
-7 42 -11 64 -3 22 -7 43 -9 46 -2 3 -6 22 -9 42 -3 20 -15 79 -27 130 -11 51
-23 103 -25 116 -3 13 -14 60 -25 105 -11 45 -22 91 -24 102 -41 193 -260 874
-340 1060 -7 17 -40 96 -74 177 -34 81 -74 176 -90 210 -15 35 -38 86 -51 113
-47 106 -220 447 -295 580 -201 359 -460 760 -686 1059 -41 54 -90 119 -109
145 -55 74 -297 367 -380 461 -66 76 -152 171 -205 229 -101 111 -553 561
-669 667 -60 54 -117 106 -126 114 -9 8 -49 44 -90 80 -41 36 -77 67 -80 70
-10 11 -177 148 -315 259 -77 62 -147 118 -155 125 -32 25 -289 215 -370 273
-174 124 -623 415 -725 469 -11 6 -78 45 -150 86 -561 323 -1217 613 -1880
832 -165 55 -465 144 -514 153 -13 2 -31 7 -40 12 -9 4 -43 13 -76 20 -33 7
-71 17 -85 21 -14 5 -88 23 -165 40 -77 17 -158 35 -180 40 -22 6 -51 12 -65
14 -14 3 -83 16 -155 31 -71 14 -143 27 -160 30 -16 2 -97 15 -180 29 -82 13
-168 27 -190 30 -22 3 -71 10 -110 15 -38 6 -92 13 -120 16 -27 4 -60 8 -73
10 -13 2 -53 7 -90 10 -37 4 -78 8 -91 10 -14 3 -54 7 -90 11 -36 3 -72 7 -81
9 -64 12 -369 25 -417 17z"/>
<path d="M15958 30010 c-48 -3 -92 -10 -99 -17 -6 -6 -15 -30 -19 -52 -15 -83
-1 -14055 14 -14206 2 -16 4 -40 5 -52 3 -53 6 -53 364 -53 183 0 342 3 354 6
12 3 25 15 29 27 3 11 7 3235 7 7165 0 6997 -1 7144 -19 7163 -18 17 -39 19
-284 21 -146 2 -304 1 -352 -2z"/>
<path d="M18010 30009 c-110 -7 -130 -13 -131 -43 -16 -323 -11 -13670 5
-14185 4 -147 8 -151 140 -152 327 -2 579 2 595 11 10 5 21 19 24 30 3 12 5
3233 5 7159 0 6952 0 7139 -18 7159 -17 17 -33 20 -132 21 -62 1 -176 3 -253
4 -77 1 -183 -1 -235 -4z"/>
<path d="M16908 29990 c-22 -17 -22 -20 -24 -341 -1 -178 -5 -742 -9 -1254
-13 -1911 3 -12496 19 -12699 4 -56 24 -66 128 -67 114 0 479 0 518 0 20 1 35
9 46 26 15 23 17 126 21 1143 11 2523 3 12050 -11 12974 -2 171 -5 200 -20
217 -16 18 -35 19 -331 19 -288 0 -317 -1 -337 -18z"/>
<path d="M28235 16891 c-38 -26 -140 -94 -225 -150 -85 -57 -167 -112 -182
-122 -15 -10 -29 -19 -32 -19 -2 0 -40 -22 -83 -48 -43 -26 -85 -51 -93 -55
-8 -4 -31 -17 -50 -28 -103 -63 -502 -266 -684 -348 -68 -31 -406 -167 -436
-176 -14 -4 -38 -13 -55 -20 -58 -26 -448 -153 -494 -161 -8 -2 -35 -9 -60
-17 -46 -15 -314 -84 -361 -93 -14 -3 -65 -14 -115 -25 -87 -20 -152 -32 -225
-44 -19 -3 -42 -8 -50 -10 -8 -2 -28 -6 -45 -9 -16 -3 -70 -12 -120 -20 -101
-17 -138 -22 -210 -31 -27 -4 -61 -8 -75 -11 -14 -2 -52 -6 -85 -9 -33 -3 -73
-8 -90 -10 -28 -4 -116 -11 -250 -20 -33 -2 -123 -7 -200 -10 -77 -3 -183 -9
-235 -12 -52 -4 -1877 -8 -4055 -10 -2178 -2 -3970 -5 -3982 -8 -12 -3 -25
-15 -28 -26 -4 -12 -7 -560 -7 -1218 0 -1061 2 -1201 16 -1239 17 -46 30 -63
61 -79 13 -6 1448 -9 4075 -8 3566 2 4230 5 4430 20 25 2 83 6 130 10 119 8
199 15 240 20 19 2 67 7 105 10 39 4 77 8 85 10 8 1 47 6 85 10 77 7 108 11
205 25 100 15 142 20 185 26 40 5 189 30 235 39 14 3 41 8 60 11 19 2 46 7 60
9 14 3 39 7 55 10 17 3 39 7 50 9 11 3 70 14 130 26 61 12 119 24 130 26 36 7
359 83 415 98 563 148 1037 309 1535 524 473 204 1063 515 1427 753 48 30 48
50 4 143 -34 73 -245 521 -321 681 -23 50 -111 236 -194 415 -84 179 -182 385
-217 459 -35 73 -64 135 -64 137 0 2 -36 78 -80 170 -44 91 -80 167 -80 169 0
12 -125 262 -134 267 -19 13 -28 9 -101 -41z"/>
</g>
</svg>
